<meta message track_name name='Piano' time=0>
<meta message instrument_name name='Microsoft GS ²¨±íÈí¼þºÏ³ÉÆ÷' time=0>
<meta message key_signature key='Bb' time=0>
program_change channel=0 program=0 time=0
control_change channel=0 control=10 value=64 time=0
note_on channel=0 note=65 velocity=80 time=0
note_off channel=0 note=65 velocity=64 time=216
note_on channel=0 note=55 velocity=80 time=24
note_off channel=0 note=55 velocity=64 time=216
note_on channel=0 note=58 velocity=80 time=24
note_off channel=0 note=58 velocity=64 time=216
note_on channel=0 note=65 velocity=80 time=24
note_off channel=0 note=65 velocity=64 time=456
note_on channel=0 note=55 velocity=80 time=24
note_off channel=0 note=55 velocity=64 time=216
note_on channel=0 note=58 velocity=80 time=24
note_off channel=0 note=58 velocity=64 time=216
note_on channel=0 note=65 velocity=80 time=24
note_off channel=0 note=65 velocity=64 time=456
note_on channel=0 note=55 velocity=80 time=24
note_off channel=0 note=55 velocity=64 time=216
note_on channel=0 note=58 velocity=80 time=24
note_off channel=0 note=58 velocity=64 time=216
note_on channel=0 note=65 velocity=80 time=24
note_off channel=0 note=65 velocity=64 time=456
note_on channel=0 note=55 velocity=80 time=24
note_off channel=0 note=55 velocity=64 time=432
note_on channel=0 note=58 velocity=80 time=48
note_off channel=0 note=58 velocity=64 time=216
note_on channel=0 note=58 velocity=80 time=264
note_off channel=0 note=58 velocity=64 time=432
note_on channel=0 note=58 velocity=80 time=48
note_off channel=0 note=58 velocity=64 time=432
note_on channel=0 note=58 velocity=80 time=48
note_off channel=0 note=58 velocity=64 time=432
note_on channel=0 note=58 velocity=80 time=48
note_off channel=0 note=58 velocity=64 time=216
note_on channel=0 note=60 velocity=80 time=264
note_off channel=0 note=60 velocity=64 time=432
note_on channel=0 note=62 velocity=80 time=48
note_off channel=0 note=62 velocity=64 time=432
note_on channel=0 note=63 velocity=80 time=48
note_off channel=0 note=63 velocity=64 time=432
note_on channel=0 note=67 velocity=80 time=48
note_off channel=0 note=67 velocity=64 time=216
note_on channel=0 note=77 velocity=80 time=24
note_off channel=0 note=77 velocity=64 time=216
note_on channel=0 note=67 velocity=80 time=24
note_off channel=0 note=67 velocity=64 time=216
note_on channel=0 note=70 velocity=80 time=24
note_off channel=0 note=70 velocity=64 time=216
note_on channel=0 note=77 velocity=80 time=24
note_off channel=0 note=77 velocity=64 time=456
note_on channel=0 note=67 velocity=80 time=24
note_off channel=0 note=67 velocity=64 time=216
note_on channel=0 note=70 velocity=80 time=24
note_off channel=0 note=70 velocity=64 time=216
note_on channel=0 note=77 velocity=80 time=24
note_off channel=0 note=77 velocity=64 time=456
note_on channel=0 note=67 velocity=80 time=24
note_off channel=0 note=67 velocity=64 time=216
note_on channel=0 note=70 velocity=80 time=24
note_off channel=0 note=70 velocity=64 time=216
note_on channel=0 note=77 velocity=80 time=24
note_off channel=0 note=77 velocity=64 time=456
note_on channel=0 note=67 velocity=80 time=24
note_off channel=0 note=67 velocity=64 time=216
note_on channel=0 note=74 velocity=80 time=24
note_off channel=0 note=74 velocity=64 time=216
note_on channel=0 note=75 velocity=80 time=24
note_off channel=0 note=75 velocity=64 time=216
note_on channel=0 note=77 velocity=80 time=264
note_off channel=0 note=77 velocity=64 time=864
note_on channel=0 note=58 velocity=80 time=96
note_off channel=0 note=58 velocity=64 time=216
note_on channel=0 note=55 velocity=80 time=24
note_off channel=0 note=55 velocity=64 time=216
note_on channel=0 note=58 velocity=80 time=24
note_off channel=0 note=58 velocity=64 time=216
note_on channel=0 note=62 velocity=80 time=1224
note_off channel=0 note=62 velocity=64 time=216
note_on channel=0 note=55 velocity=80 time=24
note_off channel=0 note=55 velocity=64 time=432
note_on channel=0 note=58 velocity=80 time=288
note_on channel=0 note=65 velocity=80 time=0
note_off channel=0 note=58 velocity=64 time=216
note_off channel=0 note=65 velocity=64 time=0
note_on channel=0 note=58 velocity=80 time=24
note_on channel=0 note=65 velocity=80 time=0
note_off channel=0 note=58 velocity=64 time=216
note_off channel=0 note=65 velocity=64 time=0
note_on channel=0 note=58 velocity=80 time=24
note_on channel=0 note=65 velocity=80 time=0
note_off channel=0 note=58 velocity=64 time=216
note_off channel=0 note=65 velocity=64 time=0
note_on channel=0 note=58 velocity=80 time=24
note_on channel=0 note=65 velocity=80 time=0
note_off channel=0 note=58 velocity=64 time=216
note_off channel=0 note=65 velocity=64 time=0
note_on channel=0 note=60 velocity=80 time=24
note_off channel=0 note=60 velocity=64 time=216
note_on channel=0 note=60 velocity=80 time=24
note_off channel=0 note=60 velocity=64 time=216
note_on channel=0 note=60 velocity=80 time=24
note_off channel=0 note=60 velocity=64 time=216
note_on channel=0 note=58 velocity=80 time=264
note_on channel=0 note=65 velocity=80 time=0
note_off channel=0 note=58 velocity=64 time=216
note_off channel=0 note=65 velocity=64 time=0
note_on channel=0 note=58 velocity=80 time=24
note_on channel=0 note=65 velocity=80 time=0
note_off channel=0 note=58 velocity=64 time=216
note_off channel=0 note=65 velocity=64 time=0
note_on channel=0 note=58 velocity=80 time=24
note_on channel=0 note=65 velocity=80 time=0
note_off channel=0 note=58 velocity=64 time=216
note_off channel=0 note=65 velocity=64 time=0
note_on channel=0 note=58 velocity=80 time=24
note_on channel=0 note=65 velocity=80 time=0
note_off channel=0 note=58 velocity=64 time=216
note_off channel=0 note=65 velocity=64 time=0
note_on channel=0 note=60 velocity=80 time=24
note_off channel=0 note=60 velocity=64 time=216
note_on channel=0 note=62 velocity=80 time=24
note_off channel=0 note=62 velocity=64 time=216
note_on channel=0 note=63 velocity=80 time=24
note_off channel=0 note=63 velocity=64 time=216
note_on channel=0 note=62 velocity=80 time=264
note_off channel=0 note=62 velocity=64 time=864
note_on channel=0 note=62 velocity=80 time=96
note_off channel=0 note=62 velocity=64 time=432
note_on channel=0 note=57 velocity=80 time=48
note_off channel=0 note=57 velocity=64 time=216
note_on channel=0 note=58 velocity=80 time=984
note_off channel=0 note=58 velocity=64 time=216
note_on channel=0 note=62 velocity=80 time=24
note_off channel=0 note=62 velocity=64 time=432
note_on channel=0 note=55 velocity=80 time=48
note_off channel=0 note=55 velocity=64 time=216
note_on channel=0 note=55 velocity=80 time=264
note_on channel=0 note=65 velocity=80 time=0
note_off channel=0 note=55 velocity=64 time=216
note_off channel=0 note=65 velocity=64 time=0
note_on channel=0 note=55 velocity=80 time=24
note_on channel=0 note=65 velocity=80 time=0
note_off channel=0 note=55 velocity=64 time=216
note_off channel=0 note=65 velocity=64 time=0
note_on channel=0 note=55 velocity=80 time=24
note_on channel=0 note=65 velocity=80 time=0
note_off channel=0 note=55 velocity=64 time=216
note_off channel=0 note=65 velocity=64 time=0
note_on channel=0 note=55 velocity=80 time=24
note_on channel=0 note=65 velocity=80 time=0
note_off channel=0 note=55 velocity=64 time=216
note_off channel=0 note=65 velocity=64 time=0
note_on channel=0 note=60 velocity=80 time=24
note_off channel=0 note=60 velocity=64 time=216
note_on channel=0 note=60 velocity=80 time=24
note_off channel=0 note=60 velocity=64 time=216
note_on channel=0 note=60 velocity=80 time=24
note_off channel=0 note=60 velocity=64 time=216
note_on channel=0 note=58 velocity=80 time=264
note_on channel=0 note=60 velocity=80 time=0
note_on channel=0 note=65 velocity=80 time=0
note_off channel=0 note=58 velocity=64 time=216
note_off channel=0 note=60 velocity=64 time=0
note_off channel=0 note=65 velocity=64 time=0
note_on channel=0 note=58 velocity=80 time=24
note_on channel=0 note=60 velocity=80 time=0
note_on channel=0 note=65 velocity=80 time=0
note_off channel=0 note=58 velocity=64 time=216
note_off channel=0 note=60 velocity=64 time=0
note_off channel=0 note=65 velocity=64 time=0
note_on channel=0 note=58 velocity=80 time=24
note_on channel=0 note=60 velocity=80 time=0
note_on channel=0 note=65 velocity=80 time=0
note_off channel=0 note=58 velocity=64 time=216
note_off channel=0 note=60 velocity=64 time=0
note_off channel=0 note=65 velocity=64 time=0
note_on channel=0 note=58 velocity=80 time=24
note_on channel=0 note=60 velocity=80 time=0
note_on channel=0 note=65 velocity=80 time=0
note_off channel=0 note=58 velocity=64 time=216
note_off channel=0 note=60 velocity=64 time=0
note_off channel=0 note=65 velocity=64 time=0
note_on channel=0 note=60 velocity=80 time=24
note_off channel=0 note=60 velocity=64 time=216
note_on channel=0 note=62 velocity=80 time=24
note_off channel=0 note=62 velocity=64 time=216
note_on channel=0 note=63 velocity=80 time=24
note_off channel=0 note=63 velocity=64 time=216
note_on channel=0 note=65 velocity=80 time=264
note_off channel=0 note=65 velocity=64 time=648
note_on channel=0 note=58 velocity=80 time=72
note_off channel=0 note=58 velocity=64 time=216
note_on channel=0 note=60 velocity=80 time=24
note_off channel=0 note=60 velocity=64 time=216
note_on channel=0 note=62 velocity=80 time=24
note_off channel=0 note=62 velocity=64 time=216
note_on channel=0 note=63 velocity=80 time=24
note_off channel=0 note=63 velocity=64 time=216
note_on channel=0 note=55 velocity=80 time=984
note_off channel=0 note=55 velocity=64 time=216
note_on channel=0 note=57 velocity=80 time=24
note_off channel=0 note=57 velocity=64 time=216
note_on channel=0 note=58 velocity=80 time=24
note_off channel=0 note=58 velocity=64 time=216
note_on channel=0 note=65 velocity=80 time=24
note_off channel=0 note=65 velocity=64 time=216
note_on channel=0 note=55 velocity=80 time=1224
note_on channel=0 note=63 velocity=80 time=0
note_off channel=0 note=55 velocity=64 time=216
note_off channel=0 note=63 velocity=64 time=0
note_on channel=0 note=62 velocity=80 time=24
note_off channel=0 note=62 velocity=64 time=216
note_on channel=0 note=60 velocity=80 time=24
note_off channel=0 note=60 velocity=64 time=1968
note_on channel=0 note=54 velocity=80 time=192
note_on channel=0 note=62 velocity=80 time=0
note_off channel=0 note=54 velocity=64 time=432
note_off channel=0 note=62 velocity=64 time=0
note_on channel=0 note=63 velocity=80 time=48
note_off channel=0 note=63 velocity=64 time=216
note_on channel=0 note=62 velocity=80 time=24
note_off channel=0 note=62 velocity=64 time=432
note_on channel=0 note=60 velocity=80 time=48
note_off channel=0 note=60 velocity=64 time=432
note_on channel=0 note=58 velocity=80 time=48
note_off channel=0 note=58 velocity=64 time=1968
note_on channel=0 note=58 velocity=80 time=432
note_on channel=0 note=65 velocity=80 time=0
note_off channel=0 note=58 velocity=64 time=216
note_off channel=0 note=65 velocity=64 time=0
note_on channel=0 note=58 velocity=80 time=24
note_on channel=0 note=65 velocity=80 time=0
note_off channel=0 note=58 velocity=64 time=216
note_off channel=0 note=65 velocity=64 time=0
note_on channel=0 note=58 velocity=80 time=24
note_on channel=0 note=65 velocity=80 time=0
note_off channel=0 note=58 velocity=64 time=216
note_off channel=0 note=65 velocity=64 time=0
note_on channel=0 note=58 velocity=80 time=24
note_on channel=0 note=65 velocity=80 time=0
note_off channel=0 note=58 velocity=64 time=216
note_off channel=0 note=65 velocity=64 time=0
note_on channel=0 note=60 velocity=80 time=24
note_off channel=0 note=60 velocity=64 time=216
note_on channel=0 note=60 velocity=80 time=24
note_off channel=0 note=60 velocity=64 time=216
note_on channel=0 note=60 velocity=80 time=24
note_off channel=0 note=60 velocity=64 time=216
note_on channel=0 note=57 velocity=80 time=264
note_on channel=0 note=65 velocity=80 time=0
note_off channel=0 note=57 velocity=64 time=216
note_off channel=0 note=65 velocity=64 time=0
note_on channel=0 note=57 velocity=80 time=24
note_on channel=0 note=65 velocity=80 time=0
note_off channel=0 note=57 velocity=64 time=216
note_off channel=0 note=65 velocity=64 time=0
note_on channel=0 note=57 velocity=80 time=24
note_on channel=0 note=65 velocity=80 time=0
note_off channel=0 note=57 velocity=64 time=216
note_off channel=0 note=65 velocity=64 time=0
note_on channel=0 note=57 velocity=80 time=24
note_on channel=0 note=65 velocity=80 time=0
note_off channel=0 note=57 velocity=64 time=216
note_off channel=0 note=65 velocity=64 time=0
note_on channel=0 note=60 velocity=80 time=24
note_off channel=0 note=60 velocity=64 time=216
note_on channel=0 note=62 velocity=80 time=24
note_off channel=0 note=62 velocity=64 time=216
note_on channel=0 note=63 velocity=80 time=24
note_off channel=0 note=63 velocity=64 time=216
note_on channel=0 note=62 velocity=80 time=264
note_off channel=0 note=62 velocity=64 time=648
note_on channel=0 note=58 velocity=80 time=72
note_off channel=0 note=58 velocity=64 time=216
note_on channel=0 note=62 velocity=80 time=24
note_off channel=0 note=62 velocity=64 time=216
note_on channel=0 note=67 velocity=80 time=24
note_off channel=0 note=67 velocity=64 time=216
note_on channel=0 note=69 velocity=80 time=24
note_off channel=0 note=69 velocity=64 time=216
note_on channel=0 note=70 velocity=80 time=24
note_off channel=0 note=70 velocity=64 time=1728
note_on channel=0 note=77 velocity=80 time=432
note_on channel=0 note=70 velocity=80 time=0
note_off channel=0 note=77 velocity=64 time=216
note_off channel=0 note=70 velocity=64 time=0
note_on channel=0 note=77 velocity=80 time=24
note_on channel=0 note=70 velocity=80 time=0
note_off channel=0 note=77 velocity=64 time=216
note_off channel=0 note=70 velocity=64 time=0
note_on channel=0 note=77 velocity=80 time=24
note_on channel=0 note=70 velocity=80 time=0
note_off channel=0 note=77 velocity=64 time=216
note_off channel=0 note=70 velocity=64 time=0
note_on channel=0 note=77 velocity=80 time=24
note_on channel=0 note=70 velocity=80 time=0
note_off channel=0 note=77 velocity=64 time=216
note_off channel=0 note=70 velocity=64 time=0
note_on channel=0 note=72 velocity=80 time=24
note_off channel=0 note=72 velocity=64 time=216
note_on channel=0 note=72 velocity=80 time=24
note_off channel=0 note=72 velocity=64 time=216
note_on channel=0 note=72 velocity=80 time=24
note_off channel=0 note=72 velocity=64 time=216
note_on channel=0 note=77 velocity=80 time=264
note_on channel=0 note=69 velocity=80 time=0
note_off channel=0 note=77 velocity=64 time=216
note_off channel=0 note=69 velocity=64 time=0
note_on channel=0 note=77 velocity=80 time=24
note_on channel=0 note=69 velocity=80 time=0
note_off channel=0 note=77 velocity=64 time=216
note_off channel=0 note=69 velocity=64 time=0
note_on channel=0 note=77 velocity=80 time=24
note_on channel=0 note=69 velocity=80 time=0
note_off channel=0 note=77 velocity=64 time=216
note_off channel=0 note=69 velocity=64 time=0
note_on channel=0 note=77 velocity=80 time=24
note_on channel=0 note=75 velocity=80 time=0
note_on channel=0 note=69 velocity=80 time=0
note_off channel=0 note=77 velocity=64 time=216
note_off channel=0 note=75 velocity=64 time=0
note_off channel=0 note=69 velocity=64 time=0
note_on channel=0 note=72 velocity=80 time=24
note_off channel=0 note=72 velocity=64 time=216
note_on channel=0 note=74 velocity=80 time=24
note_off channel=0 note=74 velocity=64 time=216
note_on channel=0 note=75 velocity=80 time=24
note_off channel=0 note=75 velocity=64 time=216
note_on channel=0 note=74 velocity=80 time=264
note_off channel=0 note=74 velocity=64 time=648
note_on channel=0 note=58 velocity=80 time=72
note_off channel=0 note=58 velocity=64 time=216
note_on channel=0 note=62 velocity=80 time=24
note_off channel=0 note=62 velocity=64 time=216
note_on channel=0 note=67 velocity=80 time=24
note_off channel=0 note=67 velocity=64 time=216
note_on channel=0 note=67 velocity=80 time=24
note_off channel=0 note=67 velocity=64 time=216
note_on channel=0 note=69 velocity=80 time=24
note_off channel=0 note=69 velocity=64 time=216
note_on channel=0 note=70 velocity=80 time=24
note_off channel=0 note=70 velocity=64 time=216
note_on channel=0 note=69 velocity=80 time=24
note_off channel=0 note=69 velocity=64 time=216
note_on channel=0 note=67 velocity=80 time=24
note_off channel=0 note=67 velocity=64 time=216
note_on channel=0 note=62 velocity=80 time=24
note_off channel=0 note=62 velocity=64 time=216
note_on channel=0 note=58 velocity=80 time=24
note_off channel=0 note=58 velocity=64 time=216
note_on channel=0 note=60 velocity=80 time=24
note_off channel=0 note=60 velocity=64 time=432
note_on channel=0 note=77 velocity=80 time=288
note_on channel=0 note=70 velocity=80 time=0
note_off channel=0 note=77 velocity=64 time=216
note_off channel=0 note=70 velocity=64 time=0
note_on channel=0 note=77 velocity=80 time=24
note_on channel=0 note=70 velocity=80 time=0
note_off channel=0 note=77 velocity=64 time=216
note_off channel=0 note=70 velocity=64 time=0
note_on channel=0 note=77 velocity=80 time=24
note_on channel=0 note=70 velocity=80 time=0
note_off channel=0 note=77 velocity=64 time=216
note_off channel=0 note=70 velocity=64 time=0
note_on channel=0 note=77 velocity=80 time=24
note_on channel=0 note=70 velocity=80 time=0
note_off channel=0 note=77 velocity=64 time=216
note_off channel=0 note=70 velocity=64 time=0
note_on channel=0 note=72 velocity=80 time=24
note_off channel=0 note=72 velocity=64 time=216
note_on channel=0 note=72 velocity=80 time=24
note_off channel=0 note=72 velocity=64 time=216
note_on channel=0 note=72 velocity=80 time=24
note_off channel=0 note=72 velocity=64 time=216
note_on channel=0 note=77 velocity=80 time=264
note_on channel=0 note=69 velocity=80 time=0
note_off channel=0 note=77 velocity=64 time=216
note_off channel=0 note=69 velocity=64 time=0
note_on channel=0 note=77 velocity=80 time=24
note_on channel=0 note=69 velocity=80 time=0
note_off channel=0 note=77 velocity=64 time=216
note_off channel=0 note=69 velocity=64 time=0
note_on channel=0 note=77 velocity=80 time=24
note_on channel=0 note=69 velocity=80 time=0
note_off channel=0 note=77 velocity=64 time=216
note_off channel=0 note=69 velocity=64 time=0
note_on channel=0 note=77 velocity=80 time=24
note_on channel=0 note=69 velocity=80 time=0
note_off channel=0 note=77 velocity=64 time=216
note_off channel=0 note=69 velocity=64 time=0
note_on channel=0 note=72 velocity=80 time=24
note_off channel=0 note=72 velocity=64 time=216
note_on channel=0 note=74 velocity=80 time=24
note_off channel=0 note=74 velocity=64 time=216
note_on channel=0 note=75 velocity=80 time=24
note_off channel=0 note=75 velocity=64 time=216
note_on channel=0 note=77 velocity=80 time=264
note_on channel=0 note=67 velocity=80 time=0
note_off channel=0 note=77 velocity=64 time=1296
note_off channel=0 note=67 velocity=64 time=0
note_on channel=0 note=74 velocity=80 time=144
note_on channel=0 note=70 velocity=80 time=0
note_on channel=0 note=67 velocity=80 time=0
note_off channel=0 note=74 velocity=64 time=216
note_off channel=0 note=70 velocity=64 time=0
note_off channel=0 note=67 velocity=64 time=0
note_on channel=0 note=75 velocity=80 time=264
note_on channel=0 note=70 velocity=80 time=0
note_on channel=0 note=67 velocity=80 time=0
note_off channel=0 note=75 velocity=64 time=432
note_off channel=0 note=70 velocity=64 time=0
note_off channel=0 note=67 velocity=64 time=0
note_on channel=0 note=74 velocity=80 time=48
note_on channel=0 note=70 velocity=80 time=0
note_on channel=0 note=67 velocity=80 time=0
note_off channel=0 note=74 velocity=64 time=216
note_off channel=0 note=70 velocity=64 time=0
note_off channel=0 note=67 velocity=64 time=0
note_on channel=0 note=67 velocity=80 time=24
note_off channel=0 note=67 velocity=64 time=216
note_on channel=0 note=69 velocity=80 time=24
note_off channel=0 note=69 velocity=64 time=216
note_on channel=0 note=70 velocity=80 time=24
note_off channel=0 note=70 velocity=64 time=216
note_on channel=0 note=67 velocity=80 time=24
note_on channel=0 note=77 velocity=80 time=0
note_off channel=0 note=67 velocity=64 time=1104
note_off channel=0 note=77 velocity=64 time=0
note_on channel=0 note=75 velocity=80 time=336
note_off channel=0 note=75 velocity=64 time=216
note_on channel=0 note=74 velocity=80 time=24
note_off channel=0 note=74 velocity=64 time=216
note_on channel=0 note=72 velocity=80 time=24
note_off channel=0 note=72 velocity=64 time=1968
note_on channel=0 note=81 velocity=80 time=192
note_off channel=0 note=81 velocity=64 time=432
note_on channel=0 note=74 velocity=80 time=48
note_off channel=0 note=74 velocity=64 time=216
note_on channel=0 note=72 velocity=80 time=24
note_off channel=0 note=72 velocity=64 time=432
note_on channel=0 note=74 velocity=80 time=48
note_off channel=0 note=74 velocity=64 time=432
note_on channel=0 note=72 velocity=80 time=48
note_off channel=0 note=72 velocity=64 time=888
note_on channel=0 note=62 velocity=80 time=72
note_on channel=0 note=67 velocity=80 time=0
note_on channel=0 note=70 velocity=80 time=0
note_off channel=0 note=62 velocity=64 time=864
note_off channel=0 note=67 velocity=64 time=0
note_off channel=0 note=70 velocity=64 time=0
note_on channel=0 note=77 velocity=80 time=576
note_on channel=0 note=70 velocity=80 time=0
note_off channel=0 note=77 velocity=64 time=216
note_off channel=0 note=70 velocity=64 time=0
note_on channel=0 note=77 velocity=80 time=24
note_on channel=0 note=70 velocity=80 time=0
note_off channel=0 note=77 velocity=64 time=216
note_off channel=0 note=70 velocity=64 time=0
note_on channel=0 note=77 velocity=80 time=24
note_on channel=0 note=70 velocity=80 time=0
note_off channel=0 note=77 velocity=64 time=216
note_off channel=0 note=70 velocity=64 time=0
note_on channel=0 note=77 velocity=80 time=24
note_on channel=0 note=70 velocity=80 time=0
note_off channel=0 note=77 velocity=64 time=216
note_off channel=0 note=70 velocity=64 time=0
note_on channel=0 note=72 velocity=80 time=24
note_on channel=0 note=70 velocity=80 time=0
note_off channel=0 note=72 velocity=64 time=216
note_off channel=0 note=70 velocity=64 time=0
note_on channel=0 note=72 velocity=80 time=24
note_on channel=0 note=70 velocity=80 time=0
note_off channel=0 note=72 velocity=64 time=216
note_off channel=0 note=70 velocity=64 time=0
note_on channel=0 note=72 velocity=80 time=24
note_on channel=0 note=70 velocity=80 time=0
note_off channel=0 note=72 velocity=64 time=216
note_off channel=0 note=70 velocity=64 time=0
note_on channel=0 note=77 velocity=80 time=264
note_on channel=0 note=69 velocity=80 time=0
note_off channel=0 note=77 velocity=64 time=216
note_off channel=0 note=69 velocity=64 time=0
note_on channel=0 note=77 velocity=80 time=24
note_on channel=0 note=69 velocity=80 time=0
note_off channel=0 note=77 velocity=64 time=216
note_off channel=0 note=69 velocity=64 time=0
note_on channel=0 note=77 velocity=80 time=24
note_on channel=0 note=69 velocity=80 time=0
note_off channel=0 note=77 velocity=64 time=216
note_off channel=0 note=69 velocity=64 time=0
note_on channel=0 note=77 velocity=80 time=24
note_on channel=0 note=69 velocity=80 time=0
note_off channel=0 note=77 velocity=64 time=216
note_off channel=0 note=69 velocity=64 time=0
note_on channel=0 note=72 velocity=80 time=24
note_off channel=0 note=72 velocity=64 time=216
note_on channel=0 note=74 velocity=80 time=24
note_off channel=0 note=74 velocity=64 time=216
note_on channel=0 note=77 velocity=80 time=24
note_off channel=0 note=77 velocity=64 time=216
note_on channel=0 note=79 velocity=80 time=264
note_on channel=0 note=74 velocity=80 time=0
note_on channel=0 note=71 velocity=80 time=0
note_off channel=0 note=79 velocity=64 time=648
note_off channel=0 note=74 velocity=64 time=0
note_off channel=0 note=71 velocity=64 time=0
note_on channel=0 note=59 velocity=80 time=72
note_off channel=0 note=59 velocity=64 time=216
note_on channel=0 note=62 velocity=80 time=24
note_off channel=0 note=62 velocity=64 time=216
note_on channel=0 note=67 velocity=80 time=24
note_off channel=0 note=67 velocity=64 time=216
note_on channel=0 note=71 velocity=80 time=24
note_on channel=0 note=71 velocity=80 time=150
note_on channel=0 note=74 velocity=80 time=30
note_on channel=0 note=79 velocity=80 time=30
note_off channel=0 note=71 velocity=64 time=6
note_off channel=0 note=71 velocity=64 time=1230
note_off channel=0 note=74 velocity=64 time=30
note_off channel=0 note=79 velocity=64 time=30
note_on channel=0 note=77 velocity=80 time=174
note_on channel=0 note=70 velocity=80 time=0
note_off channel=0 note=77 velocity=64 time=216
note_off channel=0 note=70 velocity=64 time=0
note_on channel=0 note=77 velocity=80 time=24
note_on channel=0 note=70 velocity=80 time=0
note_off channel=0 note=77 velocity=64 time=216
note_off channel=0 note=70 velocity=64 time=0
note_on channel=0 note=63 velocity=80 time=504
note_on channel=0 note=70 velocity=80 time=0
note_off channel=0 note=63 velocity=64 time=216
note_off channel=0 note=70 velocity=64 time=0
note_on channel=0 note=63 velocity=80 time=24
note_on channel=0 note=70 velocity=80 time=0
note_off channel=0 note=63 velocity=64 time=216
note_off channel=0 note=70 velocity=64 time=0
note_on channel=0 note=77 velocity=80 time=504
note_on channel=0 note=70 velocity=80 time=0
note_off channel=0 note=77 velocity=64 time=216
note_off channel=0 note=70 velocity=64 time=0
note_on channel=0 note=77 velocity=80 time=24
note_on channel=0 note=70 velocity=80 time=0
note_off channel=0 note=77 velocity=64 time=216
note_off channel=0 note=70 velocity=64 time=0
note_on channel=0 note=65 velocity=80 time=504
note_on channel=0 note=72 velocity=80 time=0
note_off channel=0 note=65 velocity=64 time=216
note_off channel=0 note=72 velocity=64 time=0
note_on channel=0 note=65 velocity=80 time=24
note_on channel=0 note=72 velocity=80 time=0
note_off channel=0 note=65 velocity=64 time=216
note_off channel=0 note=72 velocity=64 time=0
note_on channel=0 note=70 velocity=80 time=504
note_off channel=0 note=70 velocity=64 time=216
note_on channel=0 note=72 velocity=80 time=24
note_off channel=0 note=72 velocity=64 time=216
note_on channel=0 note=74 velocity=80 time=24
note_on channel=0 note=70 velocity=80 time=0
note_on channel=0 note=65 velocity=80 time=0
note_off channel=0 note=74 velocity=64 time=432
note_off channel=0 note=70 velocity=64 time=0
note_off channel=0 note=65 velocity=64 time=0
note_on channel=0 note=74 velocity=80 time=48
note_on channel=0 note=70 velocity=80 time=0
note_on channel=0 note=65 velocity=80 time=0
note_off channel=0 note=74 velocity=64 time=216
note_off channel=0 note=70 velocity=64 time=0
note_off channel=0 note=65 velocity=64 time=0
note_on channel=0 note=74 velocity=80 time=24
note_on channel=0 note=70 velocity=80 time=0
note_on channel=0 note=65 velocity=80 time=0
note_off channel=0 note=74 velocity=64 time=432
note_off channel=0 note=70 velocity=64 time=0
note_off channel=0 note=65 velocity=64 time=0
note_on channel=0 note=72 velocity=80 time=48
note_off channel=0 note=72 velocity=64 time=432
note_on channel=0 note=70 velocity=80 time=48
note_off channel=0 note=70 velocity=64 time=216
note_on channel=0 note=74 velocity=80 time=24
note_on channel=0 note=70 velocity=80 time=0
note_on channel=0 note=67 velocity=80 time=0
note_off channel=0 note=74 velocity=64 time=432
note_off channel=0 note=70 velocity=64 time=0
note_off channel=0 note=67 velocity=64 time=0
note_on channel=0 note=77 velocity=80 time=48
note_on channel=0 note=67 velocity=80 time=0
note_off channel=0 note=77 velocity=64 time=216
note_off channel=0 note=67 velocity=64 time=0
note_on channel=0 note=77 velocity=80 time=24
note_on channel=0 note=67 velocity=80 time=0
note_off channel=0 note=77 velocity=64 time=432
note_off channel=0 note=67 velocity=64 time=0
note_on channel=0 note=77 velocity=80 time=288
note_on channel=0 note=67 velocity=80 time=0
note_off channel=0 note=77 velocity=64 time=216
note_off channel=0 note=67 velocity=64 time=0
note_on channel=0 note=77 velocity=80 time=24
note_on channel=0 note=67 velocity=80 time=0
note_off channel=0 note=77 velocity=64 time=216
note_off channel=0 note=67 velocity=64 time=0
note_on channel=0 note=67 velocity=80 time=504
note_on channel=0 note=70 velocity=80 time=0
note_off channel=0 note=67 velocity=64 time=216
note_off channel=0 note=70 velocity=64 time=0
note_on channel=0 note=67 velocity=80 time=24
note_on channel=0 note=70 velocity=80 time=0
note_off channel=0 note=67 velocity=64 time=216
note_off channel=0 note=70 velocity=64 time=0
note_on channel=0 note=67 velocity=80 time=264
note_off channel=0 note=67 velocity=64 time=216
note_on channel=0 note=77 velocity=80 time=24
note_on channel=0 note=67 velocity=80 time=0
note_off channel=0 note=77 velocity=64 time=216
note_off channel=0 note=67 velocity=64 time=0
note_on channel=0 note=77 velocity=80 time=24
note_on channel=0 note=67 velocity=80 time=0
note_off channel=0 note=77 velocity=64 time=216
note_off channel=0 note=67 velocity=64 time=0
note_on channel=0 note=72 velocity=80 time=504
note_on channel=0 note=69 velocity=80 time=0
note_off channel=0 note=72 velocity=64 time=216
note_off channel=0 note=69 velocity=64 time=0
note_on channel=0 note=72 velocity=80 time=24
note_on channel=0 note=69 velocity=80 time=0
note_off channel=0 note=72 velocity=64 time=216
note_off channel=0 note=69 velocity=64 time=0
note_on channel=0 note=74 velocity=80 time=264
note_off channel=0 note=74 velocity=64 time=216
note_on channel=0 note=75 velocity=80 time=24
note_off channel=0 note=75 velocity=64 time=216
note_on channel=0 note=74 velocity=80 time=24
note_off channel=0 note=74 velocity=64 time=1536
note_on channel=0 note=62 velocity=80 time=384
note_off channel=0 note=62 velocity=64 time=216
note_on channel=0 note=62 velocity=80 time=24
note_on channel=0 note=66 velocity=80 time=0
note_on channel=0 note=69 velocity=80 time=0
note_off channel=0 note=62 velocity=64 time=648
note_off channel=0 note=66 velocity=64 time=0
note_off channel=0 note=69 velocity=64 time=0
note_on channel=0 note=62 velocity=80 time=72
note_off channel=0 note=62 velocity=64 time=216
note_on channel=0 note=62 velocity=80 time=24
note_on channel=0 note=66 velocity=80 time=0
note_on channel=0 note=69 velocity=80 time=0
note_off channel=0 note=62 velocity=64 time=432
note_off channel=0 note=66 velocity=64 time=0
note_off channel=0 note=69 velocity=64 time=0
note_on channel=0 note=77 velocity=80 time=48
note_on channel=0 note=69 velocity=80 time=0
note_off channel=0 note=77 velocity=64 time=216
note_off channel=0 note=69 velocity=64 time=0
note_on channel=0 note=77 velocity=80 time=24
note_on channel=0 note=69 velocity=80 time=0
note_off channel=0 note=77 velocity=64 time=216
note_off channel=0 note=69 velocity=64 time=0
note_on channel=0 note=67 velocity=80 time=504
note_on channel=0 note=70 velocity=80 time=0
note_off channel=0 note=67 velocity=64 time=216
note_off channel=0 note=70 velocity=64 time=0
note_on channel=0 note=67 velocity=80 time=24
note_on channel=0 note=70 velocity=80 time=0
note_off channel=0 note=67 velocity=64 time=216
note_off channel=0 note=70 velocity=64 time=0
note_on channel=0 note=67 velocity=80 time=264
note_off channel=0 note=67 velocity=64 time=216
note_on channel=0 note=77 velocity=80 time=24
note_on channel=0 note=70 velocity=80 time=0
note_off channel=0 note=77 velocity=64 time=216
note_off channel=0 note=70 velocity=64 time=0
note_on channel=0 note=77 velocity=80 time=24
note_on channel=0 note=70 velocity=80 time=0
note_off channel=0 note=77 velocity=64 time=216
note_off channel=0 note=70 velocity=64 time=0
note_on channel=0 note=72 velocity=80 time=504
note_on channel=0 note=69 velocity=80 time=0
note_off channel=0 note=72 velocity=64 time=216
note_off channel=0 note=69 velocity=64 time=0
note_on channel=0 note=72 velocity=80 time=24
note_on channel=0 note=69 velocity=80 time=0
note_off channel=0 note=72 velocity=64 time=216
note_off channel=0 note=69 velocity=64 time=0
note_on channel=0 note=69 velocity=80 time=264
note_off channel=0 note=69 velocity=64 time=216
note_on channel=0 note=70 velocity=80 time=24
note_off channel=0 note=70 velocity=64 time=216
note_on channel=0 note=72 velocity=80 time=24
note_off channel=0 note=72 velocity=64 time=216
note_on channel=0 note=74 velocity=80 time=24
note_on channel=0 note=70 velocity=80 time=0
note_on channel=0 note=67 velocity=80 time=0
note_off channel=0 note=74 velocity=64 time=432
note_off channel=0 note=70 velocity=64 time=0
note_off channel=0 note=67 velocity=64 time=0
note_on channel=0 note=74 velocity=80 time=48
note_on channel=0 note=70 velocity=80 time=0
note_on channel=0 note=67 velocity=80 time=0
note_off channel=0 note=74 velocity=64 time=216
note_off channel=0 note=70 velocity=64 time=0
note_off channel=0 note=67 velocity=64 time=0
note_on channel=0 note=74 velocity=80 time=24
note_on channel=0 note=70 velocity=80 time=0
note_on channel=0 note=67 velocity=80 time=0
note_off channel=0 note=74 velocity=64 time=432
note_off channel=0 note=70 velocity=64 time=0
note_off channel=0 note=67 velocity=64 time=0
note_on channel=0 note=82 velocity=80 time=48
note_on channel=0 note=79 velocity=80 time=0
note_on channel=0 note=74 velocity=80 time=0
note_off channel=0 note=82 velocity=64 time=432
note_off channel=0 note=79 velocity=64 time=0
note_off channel=0 note=74 velocity=64 time=0
note_on channel=0 note=74 velocity=80 time=48
note_off channel=0 note=74 velocity=64 time=216
note_on channel=0 note=81 velocity=80 time=24
note_on channel=0 note=77 velocity=80 time=0
note_on channel=0 note=74 velocity=80 time=0
note_off channel=0 note=81 velocity=64 time=648
note_off channel=0 note=77 velocity=64 time=0
note_off channel=0 note=74 velocity=64 time=0
note_on channel=0 note=77 velocity=80 time=72
note_on channel=0 note=69 velocity=80 time=0
note_off channel=0 note=77 velocity=64 time=432
note_off channel=0 note=69 velocity=64 time=0
note_on channel=0 note=67 velocity=80 time=48
note_off channel=0 note=67 velocity=64 time=216
note_on channel=0 note=77 velocity=80 time=24
note_on channel=0 note=67 velocity=80 time=0
note_off channel=0 note=77 velocity=64 time=216
note_off channel=0 note=67 velocity=64 time=0
note_on channel=0 note=77 velocity=80 time=24
note_on channel=0 note=67 velocity=80 time=0
note_off channel=0 note=77 velocity=64 time=216
note_off channel=0 note=67 velocity=64 time=0
note_on channel=0 note=67 velocity=80 time=504
note_on channel=0 note=70 velocity=80 time=0
note_off channel=0 note=67 velocity=64 time=216
note_off channel=0 note=70 velocity=64 time=0
note_on channel=0 note=67 velocity=80 time=24
note_on channel=0 note=70 velocity=80 time=0
note_off channel=0 note=67 velocity=64 time=216
note_off channel=0 note=70 velocity=64 time=0
note_on channel=0 note=67 velocity=80 time=264
note_off channel=0 note=67 velocity=64 time=216
note_on channel=0 note=77 velocity=80 time=24
note_on channel=0 note=70 velocity=80 time=0
note_off channel=0 note=77 velocity=64 time=216
note_off channel=0 note=70 velocity=64 time=0
note_on channel=0 note=77 velocity=80 time=24
note_on channel=0 note=70 velocity=80 time=0
note_off channel=0 note=77 velocity=64 time=216
note_off channel=0 note=70 velocity=64 time=0
note_on channel=0 note=72 velocity=80 time=504
note_on channel=0 note=69 velocity=80 time=0
note_off channel=0 note=72 velocity=64 time=216
note_off channel=0 note=69 velocity=64 time=0
note_on channel=0 note=72 velocity=80 time=24
note_on channel=0 note=69 velocity=80 time=0
note_off channel=0 note=72 velocity=64 time=216
note_off channel=0 note=69 velocity=64 time=0
note_on channel=0 note=70 velocity=80 time=264
note_off channel=0 note=70 velocity=64 time=216
note_on channel=0 note=72 velocity=80 time=24
note_off channel=0 note=72 velocity=64 time=216
note_on channel=0 note=62 velocity=80 time=24
note_on channel=0 note=70 velocity=80 time=0
note_off channel=0 note=62 velocity=64 time=1968
note_off channel=0 note=70 velocity=64 time=0
note_on channel=0 note=74 velocity=80 time=1152
note_off channel=0 note=74 velocity=64 time=216
note_on channel=0 note=72 velocity=80 time=24
note_off channel=0 note=72 velocity=64 time=216
note_on channel=0 note=70 velocity=80 time=24
note_off channel=0 note=70 velocity=64 time=216
note_on channel=0 note=69 velocity=80 time=24
note_off channel=0 note=69 velocity=64 time=216
note_on channel=0 note=70 velocity=80 time=24
note_off channel=0 note=70 velocity=64 time=1176
note_on channel=0 note=70 velocity=80 time=24
note_off channel=0 note=70 velocity=64 time=432
note_on channel=0 note=65 velocity=80 time=48
note_off channel=0 note=65 velocity=64 time=216
note_on channel=0 note=72 velocity=80 time=24
note_on channel=0 note=65 velocity=80 time=0
note_off channel=0 note=72 velocity=64 time=864
note_off channel=0 note=65 velocity=64 time=0
note_on channel=0 note=65 velocity=80 time=96
note_on channel=0 note=74 velocity=80 time=0
note_off channel=0 note=65 velocity=64 time=216
note_off channel=0 note=74 velocity=64 time=0
note_on channel=0 note=72 velocity=80 time=24
note_off channel=0 note=72 velocity=64 time=216
note_on channel=0 note=70 velocity=80 time=24
note_off channel=0 note=70 velocity=64 time=216
note_on channel=0 note=69 velocity=80 time=24
note_off channel=0 note=69 velocity=64 time=216
note_on channel=0 note=63 velocity=80 time=24
note_on channel=0 note=70 velocity=80 time=0
note_off channel=0 note=63 velocity=64 time=1176
note_off channel=0 note=70 velocity=64 time=0
note_on channel=0 note=63 velocity=80 time=24
note_on channel=0 note=70 velocity=80 time=0
note_off channel=0 note=63 velocity=64 time=432
note_off channel=0 note=70 velocity=64 time=0
note_on channel=0 note=62 velocity=80 time=48
note_off channel=0 note=62 velocity=64 time=216
note_on channel=0 note=60 velocity=80 time=24
note_on channel=0 note=69 velocity=80 time=0
note_off channel=0 note=60 velocity=64 time=864
note_off channel=0 note=69 velocity=64 time=0
note_on channel=0 note=65 velocity=80 time=96
note_on channel=0 note=74 velocity=80 time=0
note_off channel=0 note=65 velocity=64 time=216
note_off channel=0 note=74 velocity=64 time=0
note_on channel=0 note=72 velocity=80 time=24
note_off channel=0 note=72 velocity=64 time=216
note_on channel=0 note=70 velocity=80 time=24
note_off channel=0 note=70 velocity=64 time=216
note_on channel=0 note=69 velocity=80 time=24
note_off channel=0 note=69 velocity=64 time=216
note_on channel=0 note=62 velocity=80 time=24
note_on channel=0 note=67 velocity=80 time=0
note_on channel=0 note=70 velocity=80 time=0
note_off channel=0 note=62 velocity=64 time=1176
note_off channel=0 note=67 velocity=64 time=0
note_off channel=0 note=70 velocity=64 time=0
note_on channel=0 note=62 velocity=80 time=24
note_on channel=0 note=67 velocity=80 time=0
note_on channel=0 note=70 velocity=80 time=0
note_off channel=0 note=62 velocity=64 time=432
note_off channel=0 note=67 velocity=64 time=0
note_off channel=0 note=70 velocity=64 time=0
note_on channel=0 note=67 velocity=80 time=48
note_off channel=0 note=67 velocity=64 time=216
note_on channel=0 note=72 velocity=80 time=24
note_on channel=0 note=65 velocity=80 time=0
note_off channel=0 note=72 velocity=64 time=648
note_off channel=0 note=65 velocity=64 time=0
note_on channel=0 note=79 velocity=80 time=72
note_on channel=0 note=72 velocity=80 time=0
note_off channel=0 note=79 velocity=64 time=432
note_off channel=0 note=72 velocity=64 time=0
note_on channel=0 note=77 velocity=80 time=48
note_on channel=0 note=72 velocity=80 time=0
note_off channel=0 note=77 velocity=64 time=432
note_off channel=0 note=72 velocity=64 time=0
note_on channel=0 note=67 velocity=80 time=48
note_off channel=0 note=67 velocity=64 time=216
note_on channel=0 note=74 velocity=80 time=24
note_on channel=0 note=67 velocity=80 time=0
note_off channel=0 note=74 velocity=64 time=1728
note_off channel=0 note=67 velocity=64 time=0
note_on channel=0 note=74 velocity=80 time=1152
note_off channel=0 note=74 velocity=64 time=216
note_on channel=0 note=72 velocity=80 time=24
note_off channel=0 note=72 velocity=64 time=216
note_on channel=0 note=70 velocity=80 time=24
note_off channel=0 note=70 velocity=64 time=216
note_on channel=0 note=69 velocity=80 time=24
note_off channel=0 note=69 velocity=64 time=216
note_on channel=0 note=63 velocity=80 time=24
note_on channel=0 note=70 velocity=80 time=0
note_off channel=0 note=63 velocity=64 time=1176
note_off channel=0 note=70 velocity=64 time=0
note_on channel=0 note=63 velocity=80 time=24
note_on channel=0 note=70 velocity=80 time=0
note_off channel=0 note=63 velocity=64 time=432
note_off channel=0 note=70 velocity=64 time=0
note_on channel=0 note=65 velocity=80 time=48
note_off channel=0 note=65 velocity=64 time=216
note_on channel=0 note=72 velocity=80 time=24
note_on channel=0 note=65 velocity=80 time=0
note_off channel=0 note=72 velocity=64 time=864
note_off channel=0 note=65 velocity=64 time=0
note_on channel=0 note=65 velocity=80 time=96
note_on channel=0 note=74 velocity=80 time=0
note_off channel=0 note=65 velocity=64 time=216
note_off channel=0 note=74 velocity=64 time=0
note_on channel=0 note=72 velocity=80 time=24
note_off channel=0 note=72 velocity=64 time=216
note_on channel=0 note=70 velocity=80 time=24
note_off channel=0 note=70 velocity=64 time=216
note_on channel=0 note=69 velocity=80 time=24
note_off channel=0 note=69 velocity=64 time=216
note_on channel=0 note=63 velocity=80 time=24
note_on channel=0 note=70 velocity=80 time=0
note_off channel=0 note=63 velocity=64 time=1176
note_off channel=0 note=70 velocity=64 time=0
note_on channel=0 note=63 velocity=80 time=24
note_on channel=0 note=70 velocity=80 time=0
note_off channel=0 note=63 velocity=64 time=432
note_off channel=0 note=70 velocity=64 time=0
note_on channel=0 note=62 velocity=80 time=48
note_off channel=0 note=62 velocity=64 time=216
note_on channel=0 note=62 velocity=80 time=24
note_on channel=0 note=69 velocity=80 time=0
note_off channel=0 note=62 velocity=64 time=864
note_off channel=0 note=69 velocity=64 time=0
note_on channel=0 note=65 velocity=80 time=96
note_on channel=0 note=74 velocity=80 time=0
note_off channel=0 note=65 velocity=64 time=216
note_off channel=0 note=74 velocity=64 time=0
note_on channel=0 note=72 velocity=80 time=24
note_off channel=0 note=72 velocity=64 time=216
note_on channel=0 note=70 velocity=80 time=24
note_off channel=0 note=70 velocity=64 time=216
note_on channel=0 note=69 velocity=80 time=24
note_off channel=0 note=69 velocity=64 time=216
note_on channel=0 note=63 velocity=80 time=24
note_on channel=0 note=70 velocity=80 time=0
note_off channel=0 note=63 velocity=64 time=1176
note_off channel=0 note=70 velocity=64 time=0
note_on channel=0 note=63 velocity=80 time=24
note_on channel=0 note=70 velocity=80 time=0
note_off channel=0 note=63 velocity=64 time=432
note_off channel=0 note=70 velocity=64 time=0
note_on channel=0 note=65 velocity=80 time=48
note_off channel=0 note=65 velocity=64 time=216
note_on channel=0 note=72 velocity=80 time=24
note_on channel=0 note=65 velocity=80 time=0
note_off channel=0 note=72 velocity=64 time=648
note_off channel=0 note=65 velocity=64 time=0
note_on channel=0 note=79 velocity=80 time=72
note_on channel=0 note=72 velocity=80 time=0
note_off channel=0 note=79 velocity=64 time=432
note_off channel=0 note=72 velocity=64 time=0
note_on channel=0 note=77 velocity=80 time=48
note_on channel=0 note=72 velocity=80 time=0
note_off channel=0 note=77 velocity=64 time=432
note_off channel=0 note=72 velocity=64 time=0
note_on channel=0 note=72 velocity=80 time=48
note_off channel=0 note=72 velocity=64 time=216
note_on channel=0 note=79 velocity=80 time=24
note_on channel=0 note=74 velocity=80 time=0
note_on channel=0 note=71 velocity=80 time=0
note_off channel=0 note=79 velocity=64 time=864
note_off channel=0 note=74 velocity=64 time=0
note_off channel=0 note=71 velocity=64 time=0
note_on channel=0 note=59 velocity=80 time=96
note_off channel=0 note=59 velocity=64 time=216
note_on channel=0 note=62 velocity=80 time=24
note_off channel=0 note=62 velocity=64 time=216
note_on channel=0 note=67 velocity=80 time=24
note_off channel=0 note=67 velocity=64 time=216
note_on channel=0 note=71 velocity=80 time=24
note_on channel=0 note=71 velocity=80 time=150
note_on channel=0 note=74 velocity=80 time=30
note_on channel=0 note=79 velocity=80 time=30
note_off channel=0 note=71 velocity=64 time=6
note_off channel=0 note=71 velocity=64 time=1230
note_off channel=0 note=74 velocity=64 time=30
note_off channel=0 note=79 velocity=64 time=30
note_on channel=0 note=77 velocity=80 time=174
note_on channel=0 note=70 velocity=80 time=0
note_off channel=0 note=77 velocity=64 time=216
note_off channel=0 note=70 velocity=64 time=0
note_on channel=0 note=77 velocity=80 time=24
note_on channel=0 note=70 velocity=80 time=0
note_off channel=0 note=77 velocity=64 time=216
note_off channel=0 note=70 velocity=64 time=0
note_on channel=0 note=63 velocity=80 time=504
note_on channel=0 note=70 velocity=80 time=0
note_off channel=0 note=63 velocity=64 time=216
note_off channel=0 note=70 velocity=64 time=0
note_on channel=0 note=63 velocity=80 time=24
note_on channel=0 note=70 velocity=80 time=0
note_off channel=0 note=63 velocity=64 time=216
note_off channel=0 note=70 velocity=64 time=0
note_on channel=0 note=77 velocity=80 time=504
note_on channel=0 note=70 velocity=80 time=0
note_off channel=0 note=77 velocity=64 time=216
note_off channel=0 note=70 velocity=64 time=0
note_on channel=0 note=77 velocity=80 time=24
note_on channel=0 note=70 velocity=80 time=0
note_off channel=0 note=77 velocity=64 time=216
note_off channel=0 note=70 velocity=64 time=0
note_on channel=0 note=65 velocity=80 time=504
note_on channel=0 note=72 velocity=80 time=0
note_off channel=0 note=65 velocity=64 time=216
note_off channel=0 note=72 velocity=64 time=0
note_on channel=0 note=65 velocity=80 time=24
note_on channel=0 note=72 velocity=80 time=0
note_off channel=0 note=65 velocity=64 time=216
note_off channel=0 note=72 velocity=64 time=0
note_on channel=0 note=70 velocity=80 time=504
note_off channel=0 note=70 velocity=64 time=216
note_on channel=0 note=72 velocity=80 time=24
note_off channel=0 note=72 velocity=64 time=216
note_on channel=0 note=74 velocity=80 time=24
note_on channel=0 note=70 velocity=80 time=0
note_on channel=0 note=65 velocity=80 time=0
note_off channel=0 note=74 velocity=64 time=432
note_off channel=0 note=70 velocity=64 time=0
note_off channel=0 note=65 velocity=64 time=0
note_on channel=0 note=74 velocity=80 time=48
note_on channel=0 note=70 velocity=80 time=0
note_on channel=0 note=65 velocity=80 time=0
note_off channel=0 note=74 velocity=64 time=216
note_off channel=0 note=70 velocity=64 time=0
note_off channel=0 note=65 velocity=64 time=0
note_on channel=0 note=74 velocity=80 time=24
note_on channel=0 note=70 velocity=80 time=0
note_on channel=0 note=65 velocity=80 time=0
note_off channel=0 note=74 velocity=64 time=432
note_off channel=0 note=70 velocity=64 time=0
note_off channel=0 note=65 velocity=64 time=0
note_on channel=0 note=72 velocity=80 time=48
note_off channel=0 note=72 velocity=64 time=432
note_on channel=0 note=70 velocity=80 time=48
note_off channel=0 note=70 velocity=64 time=216
note_on channel=0 note=74 velocity=80 time=24
note_on channel=0 note=70 velocity=80 time=0
note_on channel=0 note=67 velocity=80 time=0
note_off channel=0 note=74 velocity=64 time=432
note_off channel=0 note=70 velocity=64 time=0
note_off channel=0 note=67 velocity=64 time=0
note_on channel=0 note=77 velocity=80 time=48
note_on channel=0 note=67 velocity=80 time=0
note_off channel=0 note=77 velocity=64 time=216
note_off channel=0 note=67 velocity=64 time=0
note_on channel=0 note=77 velocity=80 time=24
note_on channel=0 note=67 velocity=80 time=0
note_off channel=0 note=77 velocity=64 time=432
note_off channel=0 note=67 velocity=64 time=0
note_on channel=0 note=77 velocity=80 time=288
note_on channel=0 note=67 velocity=80 time=0
note_off channel=0 note=77 velocity=64 time=216
note_off channel=0 note=67 velocity=64 time=0
note_on channel=0 note=77 velocity=80 time=24
note_on channel=0 note=67 velocity=80 time=0
note_off channel=0 note=77 velocity=64 time=216
note_off channel=0 note=67 velocity=64 time=0
note_on channel=0 note=67 velocity=80 time=504
note_on channel=0 note=70 velocity=80 time=0
note_off channel=0 note=67 velocity=64 time=216
note_off channel=0 note=70 velocity=64 time=0
note_on channel=0 note=67 velocity=80 time=24
note_on channel=0 note=70 velocity=80 time=0
note_off channel=0 note=67 velocity=64 time=216
note_off channel=0 note=70 velocity=64 time=0
note_on channel=0 note=67 velocity=80 time=264
note_off channel=0 note=67 velocity=64 time=216
note_on channel=0 note=77 velocity=80 time=24
note_on channel=0 note=67 velocity=80 time=0
note_off channel=0 note=77 velocity=64 time=216
note_off channel=0 note=67 velocity=64 time=0
note_on channel=0 note=77 velocity=80 time=24
note_on channel=0 note=67 velocity=80 time=0
note_off channel=0 note=77 velocity=64 time=216
note_off channel=0 note=67 velocity=64 time=0
note_on channel=0 note=72 velocity=80 time=504
note_on channel=0 note=69 velocity=80 time=0
note_off channel=0 note=72 velocity=64 time=216
note_off channel=0 note=69 velocity=64 time=0
note_on channel=0 note=72 velocity=80 time=24
note_on channel=0 note=69 velocity=80 time=0
note_off channel=0 note=72 velocity=64 time=216
note_off channel=0 note=69 velocity=64 time=0
note_on channel=0 note=74 velocity=80 time=264
note_off channel=0 note=74 velocity=64 time=216
note_on channel=0 note=75 velocity=80 time=24
note_off channel=0 note=75 velocity=64 time=216
note_on channel=0 note=74 velocity=80 time=24
note_off channel=0 note=74 velocity=64 time=1536
note_on channel=0 note=62 velocity=80 time=384
note_off channel=0 note=62 velocity=64 time=216
note_on channel=0 note=62 velocity=80 time=24
note_on channel=0 note=66 velocity=80 time=0
note_on channel=0 note=69 velocity=80 time=0
note_off channel=0 note=62 velocity=64 time=648
note_off channel=0 note=66 velocity=64 time=0
note_off channel=0 note=69 velocity=64 time=0
note_on channel=0 note=62 velocity=80 time=72
note_off channel=0 note=62 velocity=64 time=216
note_on channel=0 note=62 velocity=80 time=24
note_on channel=0 note=66 velocity=80 time=0
note_on channel=0 note=69 velocity=80 time=0
note_off channel=0 note=62 velocity=64 time=432
note_off channel=0 note=66 velocity=64 time=0
note_off channel=0 note=69 velocity=64 time=0
note_on channel=0 note=77 velocity=80 time=48
note_on channel=0 note=69 velocity=80 time=0
note_off channel=0 note=77 velocity=64 time=216
note_off channel=0 note=69 velocity=64 time=0
note_on channel=0 note=77 velocity=80 time=24
note_on channel=0 note=69 velocity=80 time=0
note_off channel=0 note=77 velocity=64 time=216
note_off channel=0 note=69 velocity=64 time=0
note_on channel=0 note=67 velocity=80 time=504
note_on channel=0 note=70 velocity=80 time=0
note_off channel=0 note=67 velocity=64 time=216
note_off channel=0 note=70 velocity=64 time=0
note_on channel=0 note=67 velocity=80 time=24
note_on channel=0 note=70 velocity=80 time=0
note_off channel=0 note=67 velocity=64 time=216
note_off channel=0 note=70 velocity=64 time=0
note_on channel=0 note=67 velocity=80 time=264
note_off channel=0 note=67 velocity=64 time=216
note_on channel=0 note=77 velocity=80 time=24
note_on channel=0 note=70 velocity=80 time=0
note_off channel=0 note=77 velocity=64 time=216
note_off channel=0 note=70 velocity=64 time=0
note_on channel=0 note=77 velocity=80 time=24
note_on channel=0 note=70 velocity=80 time=0
note_off channel=0 note=77 velocity=64 time=216
note_off channel=0 note=70 velocity=64 time=0
note_on channel=0 note=72 velocity=80 time=504
note_on channel=0 note=69 velocity=80 time=0
note_off channel=0 note=72 velocity=64 time=216
note_off channel=0 note=69 velocity=64 time=0
note_on channel=0 note=72 velocity=80 time=24
note_on channel=0 note=69 velocity=80 time=0
note_off channel=0 note=72 velocity=64 time=216
note_off channel=0 note=69 velocity=64 time=0
note_on channel=0 note=69 velocity=80 time=264
note_off channel=0 note=69 velocity=64 time=216
note_on channel=0 note=70 velocity=80 time=24
note_off channel=0 note=70 velocity=64 time=216
note_on channel=0 note=72 velocity=80 time=24
note_off channel=0 note=72 velocity=64 time=216
note_on channel=0 note=74 velocity=80 time=24
note_on channel=0 note=70 velocity=80 time=0
note_on channel=0 note=67 velocity=80 time=0
note_off channel=0 note=74 velocity=64 time=432
note_off channel=0 note=70 velocity=64 time=0
note_off channel=0 note=67 velocity=64 time=0
note_on channel=0 note=74 velocity=80 time=48
note_on channel=0 note=70 velocity=80 time=0
note_on channel=0 note=67 velocity=80 time=0
note_off channel=0 note=74 velocity=64 time=216
note_off channel=0 note=70 velocity=64 time=0
note_off channel=0 note=67 velocity=64 time=0
note_on channel=0 note=74 velocity=80 time=24
note_on channel=0 note=70 velocity=80 time=0
note_on channel=0 note=67 velocity=80 time=0
note_off channel=0 note=74 velocity=64 time=432
note_off channel=0 note=70 velocity=64 time=0
note_off channel=0 note=67 velocity=64 time=0
note_on channel=0 note=82 velocity=80 time=48
note_on channel=0 note=79 velocity=80 time=0
note_on channel=0 note=74 velocity=80 time=0
note_off channel=0 note=82 velocity=64 time=432
note_off channel=0 note=79 velocity=64 time=0
note_off channel=0 note=74 velocity=64 time=0
note_on channel=0 note=74 velocity=80 time=48
note_off channel=0 note=74 velocity=64 time=216
note_on channel=0 note=81 velocity=80 time=24
note_on channel=0 note=77 velocity=80 time=0
note_on channel=0 note=74 velocity=80 time=0
note_off channel=0 note=81 velocity=64 time=648
note_off channel=0 note=77 velocity=64 time=0
note_off channel=0 note=74 velocity=64 time=0
note_on channel=0 note=77 velocity=80 time=72
note_on channel=0 note=69 velocity=80 time=0
note_off channel=0 note=77 velocity=64 time=432
note_off channel=0 note=69 velocity=64 time=0
note_on channel=0 note=67 velocity=80 time=48
note_off channel=0 note=67 velocity=64 time=216
note_on channel=0 note=77 velocity=80 time=24
note_on channel=0 note=67 velocity=80 time=0
note_off channel=0 note=77 velocity=64 time=216
note_off channel=0 note=67 velocity=64 time=0
note_on channel=0 note=77 velocity=80 time=24
note_on channel=0 note=67 velocity=80 time=0
note_off channel=0 note=77 velocity=64 time=216
note_off channel=0 note=67 velocity=64 time=0
note_on channel=0 note=67 velocity=80 time=504
note_on channel=0 note=70 velocity=80 time=0
note_off channel=0 note=67 velocity=64 time=216
note_off channel=0 note=70 velocity=64 time=0
note_on channel=0 note=67 velocity=80 time=24
note_on channel=0 note=70 velocity=80 time=0
note_off channel=0 note=67 velocity=64 time=216
note_off channel=0 note=70 velocity=64 time=0
note_on channel=0 note=67 velocity=80 time=264
note_off channel=0 note=67 velocity=64 time=216
note_on channel=0 note=77 velocity=80 time=24
note_on channel=0 note=70 velocity=80 time=0
note_off channel=0 note=77 velocity=64 time=216
note_off channel=0 note=70 velocity=64 time=0
note_on channel=0 note=77 velocity=80 time=24
note_on channel=0 note=70 velocity=80 time=0
note_off channel=0 note=77 velocity=64 time=216
note_off channel=0 note=70 velocity=64 time=0
note_on channel=0 note=72 velocity=80 time=504
note_on channel=0 note=69 velocity=80 time=0
note_off channel=0 note=72 velocity=64 time=216
note_off channel=0 note=69 velocity=64 time=0
note_on channel=0 note=72 velocity=80 time=24
note_on channel=0 note=69 velocity=80 time=0
note_off channel=0 note=72 velocity=64 time=216
note_off channel=0 note=69 velocity=64 time=0
note_on channel=0 note=70 velocity=80 time=264
note_off channel=0 note=70 velocity=64 time=216
note_on channel=0 note=72 velocity=80 time=24
note_off channel=0 note=72 velocity=64 time=216
note_on channel=0 note=62 velocity=80 time=24
note_on channel=0 note=70 velocity=80 time=0
note_off channel=0 note=62 velocity=64 time=1968
note_off channel=0 note=70 velocity=64 time=0
<meta message key_signature key='C' time=192>
note_on channel=0 note=91 velocity=80 time=1440
note_on channel=0 note=79 velocity=80 time=0
note_off channel=0 note=91 velocity=64 time=216
note_off channel=0 note=79 velocity=64 time=0
note_on channel=0 note=91 velocity=80 time=24
note_on channel=0 note=79 velocity=80 time=0
note_off channel=0 note=91 velocity=64 time=216
note_off channel=0 note=79 velocity=64 time=0
note_on channel=0 note=84 velocity=80 time=504
note_on channel=0 note=79 velocity=80 time=0
note_off channel=0 note=84 velocity=64 time=216
note_off channel=0 note=79 velocity=64 time=0
note_on channel=0 note=84 velocity=80 time=24
note_on channel=0 note=79 velocity=80 time=0
note_off channel=0 note=84 velocity=64 time=216
note_off channel=0 note=79 velocity=64 time=0
note_on channel=0 note=91 velocity=80 time=504
note_on channel=0 note=79 velocity=80 time=0
note_off channel=0 note=91 velocity=64 time=216
note_off channel=0 note=79 velocity=64 time=0
note_on channel=0 note=91 velocity=80 time=24
note_on channel=0 note=79 velocity=80 time=0
note_off channel=0 note=91 velocity=64 time=216
note_off channel=0 note=79 velocity=64 time=0
note_on channel=0 note=74 velocity=80 time=504
note_on channel=0 note=67 velocity=80 time=0
note_off channel=0 note=74 velocity=64 time=216
note_off channel=0 note=67 velocity=64 time=0
note_on channel=0 note=74 velocity=80 time=24
note_on channel=0 note=67 velocity=80 time=0
note_off channel=0 note=74 velocity=64 time=216
note_off channel=0 note=67 velocity=64 time=0
note_on channel=0 note=67 velocity=80 time=264
note_off channel=0 note=67 velocity=64 time=216
note_on channel=0 note=72 velocity=80 time=24
note_off channel=0 note=72 velocity=64 time=216
note_on channel=0 note=74 velocity=80 time=24
note_off channel=0 note=74 velocity=64 time=216
note_on channel=0 note=76 velocity=80 time=24
note_on channel=0 note=67 velocity=80 time=0
note_off channel=0 note=76 velocity=64 time=432
note_off channel=0 note=67 velocity=64 time=0
note_on channel=0 note=76 velocity=80 time=48
note_on channel=0 note=67 velocity=80 time=0
note_off channel=0 note=76 velocity=64 time=216
note_off channel=0 note=67 velocity=64 time=0
note_on channel=0 note=76 velocity=80 time=24
note_on channel=0 note=67 velocity=80 time=0
note_off channel=0 note=76 velocity=64 time=432
note_off channel=0 note=67 velocity=64 time=0
note_on channel=0 note=74 velocity=80 time=48
note_on channel=0 note=67 velocity=80 time=0
note_off channel=0 note=74 velocity=64 time=432
note_off channel=0 note=67 velocity=64 time=0
note_on channel=0 note=67 velocity=80 time=48
note_off channel=0 note=67 velocity=64 time=216
note_on channel=0 note=76 velocity=80 time=24
note_on channel=0 note=69 velocity=80 time=0
note_off channel=0 note=76 velocity=64 time=432
note_off channel=0 note=69 velocity=64 time=0
note_on channel=0 note=79 velocity=80 time=48
note_on channel=0 note=69 velocity=80 time=0
note_off channel=0 note=79 velocity=64 time=216
note_off channel=0 note=69 velocity=64 time=0
note_on channel=0 note=79 velocity=80 time=24
note_on channel=0 note=69 velocity=80 time=0
note_off channel=0 note=79 velocity=64 time=432
note_off channel=0 note=69 velocity=64 time=0
note_on channel=0 note=91 velocity=80 time=288
note_off channel=0 note=91 velocity=64 time=216
note_on channel=0 note=91 velocity=80 time=24
note_off channel=0 note=91 velocity=64 time=216
note_on channel=0 note=84 velocity=80 time=504
note_on channel=0 note=79 velocity=80 time=0
note_off channel=0 note=84 velocity=64 time=216
note_off channel=0 note=79 velocity=64 time=0
note_on channel=0 note=84 velocity=80 time=24
note_on channel=0 note=79 velocity=80 time=0
note_off channel=0 note=84 velocity=64 time=216
note_off channel=0 note=79 velocity=64 time=0
note_on channel=0 note=91 velocity=80 time=504
note_on channel=0 note=79 velocity=80 time=0
note_off channel=0 note=91 velocity=64 time=216
note_off channel=0 note=79 velocity=64 time=0
note_on channel=0 note=91 velocity=80 time=24
note_on channel=0 note=79 velocity=80 time=0
note_off channel=0 note=91 velocity=64 time=216
note_off channel=0 note=79 velocity=64 time=0
note_on channel=0 note=74 velocity=80 time=504
note_on channel=0 note=67 velocity=80 time=0
note_off channel=0 note=74 velocity=64 time=216
note_off channel=0 note=67 velocity=64 time=0
note_on channel=0 note=74 velocity=80 time=24
note_on channel=0 note=67 velocity=80 time=0
note_off channel=0 note=74 velocity=64 time=216
note_off channel=0 note=67 velocity=64 time=0
note_on channel=0 note=76 velocity=80 time=264
note_off channel=0 note=76 velocity=64 time=216
note_on channel=0 note=77 velocity=80 time=24
note_on channel=0 note=67 velocity=80 time=0
note_off channel=0 note=77 velocity=64 time=216
note_off channel=0 note=67 velocity=64 time=0
note_on channel=0 note=76 velocity=80 time=24
note_on channel=0 note=67 velocity=80 time=0
note_off channel=0 note=76 velocity=64 time=1104
note_off channel=0 note=67 velocity=64 time=0
note_on channel=0 note=60 velocity=80 time=336
note_on channel=0 note=64 velocity=80 time=0
note_off channel=0 note=60 velocity=64 time=432
note_off channel=0 note=64 velocity=64 time=0
note_on channel=0 note=55 velocity=80 time=48
note_on channel=0 note=60 velocity=80 time=0
note_off channel=0 note=55 velocity=64 time=216
note_off channel=0 note=60 velocity=64 time=0
note_on channel=0 note=64 velocity=80 time=24
note_on channel=0 note=68 velocity=80 time=0
note_on channel=0 note=71 velocity=80 time=0
note_off channel=0 note=64 velocity=64 time=648
note_off channel=0 note=68 velocity=64 time=0
note_off channel=0 note=71 velocity=64 time=0
note_on channel=0 note=64 velocity=80 time=72
note_off channel=0 note=64 velocity=64 time=216
note_on channel=0 note=68 velocity=80 time=24
note_on channel=0 note=71 velocity=80 time=0
note_off channel=0 note=68 velocity=64 time=432
note_off channel=0 note=71 velocity=64 time=0
note_on channel=0 note=79 velocity=80 time=48
note_on channel=0 note=67 velocity=80 time=0
note_off channel=0 note=79 velocity=64 time=216
note_off channel=0 note=67 velocity=64 time=0
note_on channel=0 note=79 velocity=80 time=24
note_on channel=0 note=67 velocity=80 time=0
note_off channel=0 note=79 velocity=64 time=216
note_off channel=0 note=67 velocity=64 time=0
note_on channel=0 note=72 velocity=80 time=504
note_on channel=0 note=67 velocity=80 time=0
note_off channel=0 note=72 velocity=64 time=216
note_off channel=0 note=67 velocity=64 time=0
note_on channel=0 note=72 velocity=80 time=24
note_on channel=0 note=67 velocity=80 time=0
note_off channel=0 note=72 velocity=64 time=216
note_off channel=0 note=67 velocity=64 time=0
note_on channel=0 note=67 velocity=80 time=264
note_off channel=0 note=67 velocity=64 time=216
note_on channel=0 note=79 velocity=80 time=24
note_on channel=0 note=67 velocity=80 time=0
note_off channel=0 note=79 velocity=64 time=216
note_off channel=0 note=67 velocity=64 time=0
note_on channel=0 note=79 velocity=80 time=24
note_on channel=0 note=67 velocity=80 time=0
note_off channel=0 note=79 velocity=64 time=216
note_off channel=0 note=67 velocity=64 time=0
note_on channel=0 note=74 velocity=80 time=504
note_on channel=0 note=67 velocity=80 time=0
note_off channel=0 note=74 velocity=64 time=216
note_off channel=0 note=67 velocity=64 time=0
note_on channel=0 note=74 velocity=80 time=24
note_on channel=0 note=67 velocity=80 time=0
note_off channel=0 note=74 velocity=64 time=216
note_off channel=0 note=67 velocity=64 time=0
note_on channel=0 note=67 velocity=80 time=264
note_off channel=0 note=67 velocity=64 time=216
note_on channel=0 note=72 velocity=80 time=24
note_off channel=0 note=72 velocity=64 time=216
note_on channel=0 note=74 velocity=80 time=24
note_off channel=0 note=74 velocity=64 time=216
note_on channel=0 note=76 velocity=80 time=24
note_on channel=0 note=69 velocity=80 time=0
note_off channel=0 note=76 velocity=64 time=432
note_off channel=0 note=69 velocity=64 time=0
note_on channel=0 note=76 velocity=80 time=48
note_on channel=0 note=69 velocity=80 time=0
note_off channel=0 note=76 velocity=64 time=216
note_off channel=0 note=69 velocity=64 time=0
note_on channel=0 note=76 velocity=80 time=24
note_on channel=0 note=69 velocity=80 time=0
note_off channel=0 note=76 velocity=64 time=432
note_off channel=0 note=69 velocity=64 time=0
note_on channel=0 note=84 velocity=80 time=48
note_on channel=0 note=76 velocity=80 time=0
note_off channel=0 note=84 velocity=64 time=432
note_off channel=0 note=76 velocity=64 time=0
note_on channel=0 note=76 velocity=80 time=48
note_off channel=0 note=76 velocity=64 time=216
note_on channel=0 note=83 velocity=80 time=24
note_on channel=0 note=76 velocity=80 time=0
note_off channel=0 note=83 velocity=64 time=648
note_off channel=0 note=76 velocity=64 time=0
note_on channel=0 note=79 velocity=80 time=72
note_on channel=0 note=71 velocity=80 time=0
note_off channel=0 note=79 velocity=64 time=432
note_off channel=0 note=71 velocity=64 time=0
note_on channel=0 note=71 velocity=80 time=48
note_off channel=0 note=71 velocity=64 time=216
note_on channel=0 note=79 velocity=80 time=24
note_on channel=0 note=71 velocity=80 time=0
note_off channel=0 note=79 velocity=64 time=216
note_off channel=0 note=71 velocity=64 time=0
note_on channel=0 note=79 velocity=80 time=24
note_on channel=0 note=71 velocity=80 time=0
note_off channel=0 note=79 velocity=64 time=216
note_off channel=0 note=71 velocity=64 time=0
note_on channel=0 note=72 velocity=80 time=504
note_on channel=0 note=69 velocity=80 time=0
note_off channel=0 note=72 velocity=64 time=216
note_off channel=0 note=69 velocity=64 time=0
note_on channel=0 note=72 velocity=80 time=24
note_on channel=0 note=69 velocity=80 time=0
note_off channel=0 note=72 velocity=64 time=216
note_off channel=0 note=69 velocity=64 time=0
note_on channel=0 note=69 velocity=80 time=264
note_off channel=0 note=69 velocity=64 time=216
note_on channel=0 note=79 velocity=80 time=24
note_on channel=0 note=69 velocity=80 time=0
note_off channel=0 note=79 velocity=64 time=216
note_off channel=0 note=69 velocity=64 time=0
note_on channel=0 note=79 velocity=80 time=24
note_on channel=0 note=69 velocity=80 time=0
note_off channel=0 note=79 velocity=64 time=216
note_off channel=0 note=69 velocity=64 time=0
note_on channel=0 note=74 velocity=80 time=504
note_on channel=0 note=67 velocity=80 time=0
note_off channel=0 note=74 velocity=64 time=216
note_off channel=0 note=67 velocity=64 time=0
note_on channel=0 note=74 velocity=80 time=24
note_on channel=0 note=67 velocity=80 time=0
note_off channel=0 note=74 velocity=64 time=216
note_off channel=0 note=67 velocity=64 time=0
note_on channel=0 note=72 velocity=80 time=264
note_on channel=0 note=67 velocity=80 time=0
note_off channel=0 note=72 velocity=64 time=216
note_off channel=0 note=67 velocity=64 time=0
note_on channel=0 note=74 velocity=80 time=24
note_on channel=0 note=67 velocity=80 time=0
note_off channel=0 note=74 velocity=64 time=216
note_off channel=0 note=67 velocity=64 time=0
note_on channel=0 note=72 velocity=80 time=24
note_on channel=0 note=67 velocity=80 time=0
note_off channel=0 note=72 velocity=64 time=1104
note_off channel=0 note=67 velocity=64 time=0
note_on channel=0 note=60 velocity=80 time=336
note_on channel=0 note=64 velocity=80 time=0
note_off channel=0 note=60 velocity=64 time=216
note_off channel=0 note=64 velocity=64 time=0
note_on channel=0 note=64 velocity=80 time=264
note_off channel=0 note=64 velocity=64 time=216
note_on channel=0 note=64 velocity=80 time=24
note_on channel=0 note=69 velocity=80 time=0
note_on channel=0 note=72 velocity=80 time=0
note_off channel=0 note=64 velocity=64 time=864
note_off channel=0 note=69 velocity=64 time=0
note_off channel=0 note=72 velocity=64 time=0
note_on channel=0 note=64 velocity=80 time=96
note_on channel=0 note=69 velocity=80 time=0
note_on channel=0 note=76 velocity=80 time=0
note_off channel=0 note=64 velocity=64 time=216
note_off channel=0 note=69 velocity=64 time=0
note_off channel=0 note=76 velocity=64 time=0
note_on channel=0 note=69 velocity=80 time=24
note_off channel=0 note=69 velocity=64 time=216
note_on channel=0 note=67 velocity=80 time=24
note_on channel=0 note=79 velocity=80 time=0
note_off channel=0 note=67 velocity=64 time=216
note_off channel=0 note=79 velocity=64 time=0
note_on channel=0 note=67 velocity=80 time=24
note_on channel=0 note=79 velocity=80 time=0
note_off channel=0 note=67 velocity=64 time=216
note_off channel=0 note=79 velocity=64 time=0
note_on channel=0 note=72 velocity=80 time=504
note_on channel=0 note=67 velocity=80 time=0
note_off channel=0 note=72 velocity=64 time=216
note_off channel=0 note=67 velocity=64 time=0
note_on channel=0 note=72 velocity=80 time=24
note_on channel=0 note=67 velocity=80 time=0
note_off channel=0 note=72 velocity=64 time=216
note_off channel=0 note=67 velocity=64 time=0
note_on channel=0 note=67 velocity=80 time=264
note_off channel=0 note=67 velocity=64 time=216
note_on channel=0 note=79 velocity=80 time=24
note_on channel=0 note=67 velocity=80 time=0
note_off channel=0 note=79 velocity=64 time=216
note_off channel=0 note=67 velocity=64 time=0
note_on channel=0 note=79 velocity=80 time=24
note_on channel=0 note=67 velocity=80 time=0
note_off channel=0 note=79 velocity=64 time=216
note_off channel=0 note=67 velocity=64 time=0
note_on channel=0 note=74 velocity=80 time=504
note_on channel=0 note=67 velocity=80 time=0
note_off channel=0 note=74 velocity=64 time=216
note_off channel=0 note=67 velocity=64 time=0
note_on channel=0 note=74 velocity=80 time=24
note_on channel=0 note=67 velocity=80 time=0
note_off channel=0 note=74 velocity=64 time=216
note_off channel=0 note=67 velocity=64 time=0
note_on channel=0 note=72 velocity=80 time=264
note_on channel=0 note=67 velocity=80 time=0
note_off channel=0 note=72 velocity=64 time=216
note_off channel=0 note=67 velocity=64 time=0
note_on channel=0 note=74 velocity=80 time=24
note_on channel=0 note=67 velocity=80 time=0
note_off channel=0 note=74 velocity=64 time=216
note_off channel=0 note=67 velocity=64 time=0
note_on channel=0 note=72 velocity=80 time=24
note_on channel=0 note=67 velocity=80 time=0
note_off channel=0 note=72 velocity=64 time=1536
note_off channel=0 note=67 velocity=64 time=0
note_on channel=0 note=60 velocity=80 time=144
note_off channel=0 note=60 velocity=64 time=216
note_on channel=0 note=62 velocity=80 time=24
note_off channel=0 note=62 velocity=64 time=216
note_on channel=0 note=55 velocity=80 time=24
note_on channel=0 note=60 velocity=80 time=0
note_on channel=0 note=64 velocity=80 time=0
note_off channel=0 note=55 velocity=64 time=1728
note_off channel=0 note=60 velocity=64 time=0
note_off channel=0 note=64 velocity=64 time=0
note_on channel=0 note=79 velocity=80 time=192
note_off channel=0 note=79 velocity=64 time=216
note_on channel=0 note=67 velocity=80 time=24
note_off channel=0 note=67 velocity=64 time=216
note_on channel=0 note=72 velocity=80 time=24
note_off channel=0 note=72 velocity=64 time=216
note_on channel=0 note=79 velocity=80 time=24
note_off channel=0 note=79 velocity=64 time=456
note_on channel=0 note=67 velocity=80 time=24
note_off channel=0 note=67 velocity=64 time=216
note_on channel=0 note=72 velocity=80 time=24
note_off channel=0 note=72 velocity=64 time=216
note_on channel=0 note=79 velocity=80 time=24
note_off channel=0 note=79 velocity=64 time=456
note_on channel=0 note=67 velocity=80 time=24
note_off channel=0 note=67 velocity=64 time=216
note_on channel=0 note=72 velocity=80 time=24
note_off channel=0 note=72 velocity=64 time=216
note_on channel=0 note=79 velocity=80 time=24
note_off channel=0 note=79 velocity=64 time=456
note_on channel=0 note=67 velocity=80 time=24
note_off channel=0 note=67 velocity=64 time=432
note_on channel=0 note=72 velocity=80 time=48
note_off channel=0 note=72 velocity=64 time=216
note_on channel=0 note=72 velocity=80 time=264
note_off channel=0 note=72 velocity=64 time=432
note_on channel=0 note=72 velocity=80 time=48
note_off channel=0 note=72 velocity=64 time=432
note_on channel=0 note=72 velocity=80 time=48
note_off channel=0 note=72 velocity=64 time=432
note_on channel=0 note=72 velocity=80 time=48
note_on channel=0 note=69 velocity=80 time=0
note_off channel=0 note=72 velocity=64 time=216
note_off channel=0 note=69 velocity=64 time=0
note_on channel=0 note=74 velocity=80 time=504
note_on channel=0 note=71 velocity=80 time=0
note_off channel=0 note=74 velocity=64 time=432
note_off channel=0 note=71 velocity=64 time=0
note_on channel=0 note=76 velocity=80 time=48
note_on channel=0 note=72 velocity=80 time=0
note_off channel=0 note=76 velocity=64 time=432
note_off channel=0 note=72 velocity=64 time=0
note_on channel=0 note=74 velocity=80 time=48
note_on channel=0 note=71 velocity=80 time=0
note_off channel=0 note=74 velocity=64 time=432
note_off channel=0 note=71 velocity=64 time=0
note_on channel=0 note=79 velocity=80 time=48
note_off channel=0 note=79 velocity=64 time=216
note_on channel=0 note=67 velocity=80 time=24
note_off channel=0 note=67 velocity=64 time=216
note_on channel=0 note=72 velocity=80 time=24
note_off channel=0 note=72 velocity=64 time=216
note_on channel=0 note=79 velocity=80 time=24
note_off channel=0 note=79 velocity=64 time=456
note_on channel=0 note=67 velocity=80 time=24
note_off channel=0 note=67 velocity=64 time=216
note_on channel=0 note=72 velocity=80 time=24
note_off channel=0 note=72 velocity=64 time=216
note_on channel=0 note=79 velocity=80 time=24
note_off channel=0 note=79 velocity=64 time=456
note_on channel=0 note=67 velocity=80 time=24
note_off channel=0 note=67 velocity=64 time=216
note_on channel=0 note=72 velocity=80 time=24
note_off channel=0 note=72 velocity=64 time=216
note_on channel=0 note=79 velocity=80 time=24
note_off channel=0 note=79 velocity=64 time=216
note_on channel=0 note=89 velocity=80 time=24
note_on channel=0 note=86 velocity=80 time=0
note_off channel=0 note=89 velocity=64 time=216
note_off channel=0 note=86 velocity=64 time=0
note_on channel=0 note=88 velocity=80 time=24
note_on channel=0 note=84 velocity=80 time=0
note_off channel=0 note=88 velocity=64 time=216
note_off channel=0 note=84 velocity=64 time=0
note_on channel=0 note=86 velocity=80 time=24
note_on channel=0 note=83 velocity=80 time=0
note_off channel=0 note=86 velocity=64 time=432
note_off channel=0 note=83 velocity=64 time=0
note_on channel=0 note=76 velocity=80 time=48
note_off channel=0 note=76 velocity=64 time=108
note_on channel=0 note=81 velocity=80 time=12
note_off channel=0 note=81 velocity=64 time=108
note_on channel=0 note=83 velocity=80 time=12
note_off channel=0 note=83 velocity=64 time=108
note_on channel=0 note=84 velocity=80 time=12
note_off channel=0 note=84 velocity=64 time=108
note_on channel=0 note=86 velocity=80 time=12
note_off channel=0 note=86 velocity=64 time=108
note_on channel=0 note=88 velocity=80 time=12
note_off channel=0 note=88 velocity=64 time=108
note_on channel=0 note=93 velocity=80 time=12
note_off channel=0 note=93 velocity=64 time=216
note_on channel=0 note=95 velocity=80 time=24
note_off channel=0 note=95 velocity=64 time=432
note_on channel=0 note=96 velocity=80 time=48
note_off channel=0 note=96 velocity=64 time=432
<meta message end_of_track time=47>
