<meta message track_name name='Piano' time=0>
<meta message instrument_name name='Microsoft GS ²¨±íÈí¼þºÏ³ÉÆ÷' time=0>
<meta message key_signature key='Db' time=0>
program_change channel=0 program=0 time=0
control_change channel=0 control=10 value=64 time=0
note_on channel=0 note=70 velocity=80 time=0
note_off channel=0 note=70 velocity=64 time=432
note_on channel=0 note=77 velocity=80 time=48
note_on channel=0 note=73 velocity=80 time=0
note_off channel=0 note=77 velocity=64 time=432
note_off channel=0 note=73 velocity=64 time=0
note_on channel=0 note=75 velocity=80 time=48
note_on channel=0 note=72 velocity=80 time=0
note_off channel=0 note=75 velocity=64 time=432
note_off channel=0 note=72 velocity=64 time=0
note_on channel=0 note=80 velocity=80 time=48
note_on channel=0 note=75 velocity=80 time=0
note_on channel=0 note=72 velocity=80 time=0
note_off channel=0 note=80 velocity=64 time=432
note_off channel=0 note=75 velocity=64 time=0
note_off channel=0 note=72 velocity=64 time=0
note_on channel=0 note=77 velocity=80 time=48
note_on channel=0 note=73 velocity=80 time=0
note_on channel=0 note=70 velocity=80 time=0
note_off channel=0 note=77 velocity=64 time=432
note_off channel=0 note=73 velocity=64 time=0
note_off channel=0 note=70 velocity=64 time=0
note_on channel=0 note=70 velocity=80 time=48
note_off channel=0 note=70 velocity=64 time=216
note_on channel=0 note=75 velocity=80 time=24
note_on channel=0 note=70 velocity=80 time=0
note_off channel=0 note=70 velocity=64 time=432
note_on channel=0 note=70 velocity=80 time=48
note_off channel=0 note=75 velocity=64 time=216
note_off channel=0 note=70 velocity=64 time=0
note_on channel=0 note=73 velocity=80 time=24
note_off channel=0 note=73 velocity=64 time=108
note_on channel=0 note=72 velocity=80 time=12
note_off channel=0 note=72 velocity=64 time=108
note_on channel=0 note=75 velocity=80 time=12
note_off channel=0 note=75 velocity=64 time=216
note_on channel=0 note=77 velocity=80 time=24
note_on channel=0 note=70 velocity=80 time=0
note_off channel=0 note=77 velocity=64 time=432
note_off channel=0 note=70 velocity=64 time=0
note_on channel=0 note=77 velocity=80 time=48
note_on channel=0 note=73 velocity=80 time=0
note_on channel=0 note=78 velocity=80 time=372
note_off channel=0 note=78 velocity=64 time=54
note_on channel=0 note=77 velocity=80 time=0
note_off channel=0 note=77 velocity=64 time=6
note_off channel=0 note=73 velocity=64 time=0
note_off channel=0 note=77 velocity=64 time=48
note_on channel=0 note=75 velocity=80 time=0
note_on channel=0 note=70 velocity=80 time=0
note_off channel=0 note=75 velocity=64 time=432
note_off channel=0 note=70 velocity=64 time=0
note_on channel=0 note=80 velocity=80 time=48
note_on channel=0 note=75 velocity=80 time=0
note_on channel=0 note=72 velocity=80 time=0
note_off channel=0 note=80 velocity=64 time=324
note_off channel=0 note=75 velocity=64 time=0
note_off channel=0 note=72 velocity=64 time=0
note_on channel=0 note=82 velocity=80 time=36
note_on channel=0 note=77 velocity=80 time=0
note_on channel=0 note=73 velocity=80 time=0
note_on channel=0 note=90 velocity=80 time=972
note_off channel=0 note=82 velocity=64 time=12
note_off channel=0 note=77 velocity=64 time=0
note_off channel=0 note=73 velocity=64 time=0
note_off channel=0 note=90 velocity=64 time=15
note_on channel=0 note=89 velocity=80 time=0
note_off channel=0 note=89 velocity=64 time=27
note_on channel=0 note=85 velocity=80 time=0
note_off channel=0 note=85 velocity=64 time=27
note_on channel=0 note=80 velocity=80 time=27
note_on channel=0 note=90 velocity=80 time=399
note_off channel=0 note=90 velocity=64 time=27
note_on channel=0 note=89 velocity=80 time=0
note_off channel=0 note=80 velocity=64 time=6
note_off channel=0 note=89 velocity=64 time=21
note_on channel=0 note=85 velocity=80 time=0
note_off channel=0 note=85 velocity=64 time=27
note_on channel=0 note=80 velocity=80 time=0
note_on channel=0 note=90 velocity=80 time=399
note_off channel=0 note=90 velocity=64 time=27
note_on channel=0 note=89 velocity=80 time=0
note_off channel=0 note=80 velocity=64 time=6
note_off channel=0 note=89 velocity=64 time=21
note_on channel=0 note=85 velocity=80 time=0
note_off channel=0 note=85 velocity=64 time=27
note_on channel=0 note=80 velocity=80 time=0
note_off channel=0 note=80 velocity=64 time=1800
note_on channel=0 note=73 velocity=80 time=0
note_off channel=0 note=73 velocity=64 time=108
note_on channel=0 note=72 velocity=80 time=12
note_off channel=0 note=72 velocity=64 time=1728
note_on channel=0 note=61 velocity=80 time=192
note_on channel=0 note=70 velocity=80 time=0
note_off channel=0 note=61 velocity=64 time=432
note_off channel=0 note=70 velocity=64 time=0
note_on channel=0 note=77 velocity=80 time=48
note_on channel=0 note=73 velocity=80 time=0
note_on channel=0 note=70 velocity=80 time=0
note_off channel=0 note=77 velocity=64 time=216
note_off channel=0 note=73 velocity=64 time=0
note_off channel=0 note=70 velocity=64 time=0
note_on channel=0 note=77 velocity=80 time=24
note_off channel=0 note=77 velocity=64 time=216
note_on channel=0 note=75 velocity=80 time=24
note_on channel=0 note=72 velocity=80 time=0
note_on channel=0 note=68 velocity=80 time=0
note_off channel=0 note=75 velocity=64 time=27
note_off channel=0 note=72 velocity=64 time=0
note_off channel=0 note=68 velocity=64 time=0
note_on channel=0 note=77 velocity=80 time=3
note_off channel=0 note=77 velocity=64 time=27
note_on channel=0 note=75 velocity=80 time=3
note_off channel=0 note=75 velocity=64 time=378
note_on channel=0 note=73 velocity=80 time=42
note_off channel=0 note=73 velocity=64 time=216
note_on channel=0 note=72 velocity=80 time=24
note_off channel=0 note=72 velocity=64 time=216
note_on channel=0 note=77 velocity=80 time=24
note_on channel=0 note=73 velocity=80 time=0
note_on channel=0 note=70 velocity=80 time=0
note_off channel=0 note=77 velocity=64 time=216
note_off channel=0 note=73 velocity=64 time=0
note_off channel=0 note=70 velocity=64 time=0
note_on channel=0 note=73 velocity=80 time=24
note_off channel=0 note=73 velocity=64 time=216
note_on channel=0 note=75 velocity=80 time=24
note_on channel=0 note=72 velocity=80 time=0
note_on channel=0 note=68 velocity=80 time=0
note_off channel=0 note=75 velocity=64 time=27
note_off channel=0 note=72 velocity=64 time=0
note_off channel=0 note=68 velocity=64 time=0
note_on channel=0 note=73 velocity=80 time=3
note_off channel=0 note=73 velocity=64 time=27
note_on channel=0 note=72 velocity=80 time=3
note_off channel=0 note=72 velocity=64 time=162
note_on channel=0 note=68 velocity=80 time=18
note_off channel=0 note=68 velocity=64 time=216
note_on channel=0 note=60 velocity=80 time=24
note_on channel=0 note=61 velocity=80 time=0
note_on channel=0 note=65 velocity=80 time=0
note_off channel=0 note=60 velocity=64 time=432
note_off channel=0 note=61 velocity=64 time=0
note_off channel=0 note=65 velocity=64 time=0
note_on channel=0 note=65 velocity=80 time=48
note_off channel=0 note=65 velocity=64 time=216
note_on channel=0 note=68 velocity=80 time=24
note_on channel=0 note=61 velocity=80 time=132
note_on channel=0 note=65 velocity=80 time=27
note_on channel=0 note=70 velocity=80 time=54
note_off channel=0 note=68 velocity=64 time=3
note_on channel=0 note=73 velocity=80 time=24
note_off channel=0 note=65 velocity=64 time=351
note_off channel=0 note=61 velocity=64 time=189
note_off channel=0 note=70 velocity=64 time=81
note_off channel=0 note=73 velocity=64 time=27
note_on channel=0 note=73 velocity=80 time=72
note_on channel=0 note=70 velocity=80 time=0
note_off channel=0 note=73 velocity=64 time=216
note_off channel=0 note=70 velocity=64 time=0
note_on channel=0 note=75 velocity=80 time=24
note_on channel=0 note=72 velocity=80 time=0
note_on channel=0 note=68 velocity=80 time=0
note_off channel=0 note=75 velocity=64 time=216
note_off channel=0 note=72 velocity=64 time=0
note_off channel=0 note=68 velocity=64 time=0
note_on channel=0 note=75 velocity=80 time=24
note_off channel=0 note=75 velocity=64 time=27
note_on channel=0 note=77 velocity=80 time=3
note_off channel=0 note=77 velocity=64 time=27
note_on channel=0 note=75 velocity=80 time=3
note_off channel=0 note=75 velocity=64 time=162
note_on channel=0 note=73 velocity=80 time=18
note_off channel=0 note=73 velocity=64 time=216
note_on channel=0 note=75 velocity=80 time=24
note_on channel=0 note=68 velocity=80 time=159
note_on channel=0 note=72 velocity=80 time=27
note_on channel=0 note=73 velocity=80 time=27
note_off channel=0 note=75 velocity=64 time=3
note_on channel=0 note=77 velocity=80 time=24
note_off channel=0 note=72 velocity=64 time=378
note_off channel=0 note=77 velocity=64 time=54
note_off channel=0 note=68 velocity=64 time=135
note_off channel=0 note=73 velocity=64 time=54
note_on channel=0 note=75 velocity=80 time=99
note_off channel=0 note=75 velocity=64 time=147
note_on channel=0 note=77 velocity=80 time=3
note_off channel=0 note=77 velocity=64 time=27
note_on channel=0 note=75 velocity=80 time=3
note_off channel=0 note=75 velocity=64 time=27
note_on channel=0 note=73 velocity=80 time=3
note_off channel=0 note=73 velocity=64 time=27
note_on channel=0 note=77 velocity=80 time=3
note_on channel=0 note=75 velocity=80 time=0
note_on channel=0 note=73 velocity=80 time=0
note_on channel=0 note=69 velocity=80 time=0
note_off channel=0 note=77 velocity=64 time=432
note_off channel=0 note=73 velocity=64 time=0
note_off channel=0 note=69 velocity=64 time=0
note_on channel=0 note=77 velocity=80 time=48
note_on channel=0 note=73 velocity=80 time=0
note_on channel=0 note=69 velocity=80 time=0
note_off channel=0 note=75 velocity=64 time=432
note_off channel=0 note=77 velocity=64 time=0
note_off channel=0 note=73 velocity=64 time=0
note_off channel=0 note=69 velocity=64 time=0
note_on channel=0 note=77 velocity=80 time=48
note_on channel=0 note=70 velocity=80 time=0
note_on channel=0 note=65 velocity=80 time=0
note_off channel=0 note=77 velocity=64 time=432
note_off channel=0 note=70 velocity=64 time=0
note_off channel=0 note=65 velocity=64 time=0
note_on channel=0 note=77 velocity=80 time=48
note_on channel=0 note=73 velocity=80 time=0
note_on channel=0 note=70 velocity=80 time=0
note_off channel=0 note=77 velocity=64 time=216
note_off channel=0 note=73 velocity=64 time=0
note_off channel=0 note=70 velocity=64 time=0
note_on channel=0 note=77 velocity=80 time=24
note_off channel=0 note=77 velocity=64 time=216
note_on channel=0 note=75 velocity=80 time=24
note_on channel=0 note=72 velocity=80 time=0
note_on channel=0 note=68 velocity=80 time=0
note_off channel=0 note=75 velocity=64 time=27
note_off channel=0 note=72 velocity=64 time=0
note_off channel=0 note=68 velocity=64 time=0
note_on channel=0 note=77 velocity=80 time=3
note_off channel=0 note=77 velocity=64 time=27
note_on channel=0 note=75 velocity=80 time=3
note_off channel=0 note=75 velocity=64 time=378
note_on channel=0 note=73 velocity=80 time=42
note_off channel=0 note=73 velocity=64 time=216
note_on channel=0 note=80 velocity=80 time=24
note_on channel=0 note=72 velocity=80 time=0
note_off channel=0 note=80 velocity=64 time=216
note_off channel=0 note=72 velocity=64 time=0
note_on channel=0 note=70 velocity=80 time=24
note_on channel=0 note=66 velocity=80 time=0
note_off channel=0 note=70 velocity=64 time=216
note_off channel=0 note=66 velocity=64 time=0
note_on channel=0 note=73 velocity=80 time=24
note_off channel=0 note=73 velocity=64 time=216
note_on channel=0 note=73 velocity=80 time=24
note_off channel=0 note=73 velocity=64 time=27
note_on channel=0 note=75 velocity=80 time=3
note_off channel=0 note=75 velocity=64 time=27
note_on channel=0 note=73 velocity=80 time=3
note_off channel=0 note=73 velocity=64 time=162
note_on channel=0 note=75 velocity=80 time=18
note_on channel=0 note=72 velocity=80 time=0
note_off channel=0 note=75 velocity=64 time=216
note_off channel=0 note=72 velocity=64 time=0
note_on channel=0 note=77 velocity=80 time=24
note_on channel=0 note=68 velocity=80 time=0
note_off channel=0 note=77 velocity=64 time=432
note_off channel=0 note=68 velocity=64 time=0
note_on channel=0 note=65 velocity=80 time=48
note_off channel=0 note=65 velocity=64 time=216
note_on channel=0 note=68 velocity=80 time=24
note_off channel=0 note=68 velocity=64 time=216
note_on channel=0 note=70 velocity=80 time=24
note_off channel=0 note=70 velocity=64 time=27
note_on channel=0 note=72 velocity=80 time=3
note_off channel=0 note=72 velocity=64 time=27
note_on channel=0 note=70 velocity=80 time=3
note_off channel=0 note=70 velocity=64 time=27
note_on channel=0 note=68 velocity=80 time=3
note_off channel=0 note=68 velocity=64 time=27
note_on channel=0 note=70 velocity=80 time=3
note_off channel=0 note=70 velocity=64 time=552
note_on channel=0 note=77 velocity=80 time=48
note_on channel=0 note=70 velocity=80 time=0
note_off channel=0 note=77 velocity=64 time=108
note_off channel=0 note=70 velocity=64 time=0
note_on channel=0 note=73 velocity=80 time=12
note_off channel=0 note=73 velocity=64 time=108
note_on channel=0 note=75 velocity=80 time=12
note_on channel=0 note=72 velocity=80 time=0
note_off channel=0 note=75 velocity=64 time=216
note_off channel=0 note=72 velocity=64 time=0
note_on channel=0 note=73 velocity=80 time=24
note_off channel=0 note=73 velocity=64 time=108
note_on channel=0 note=72 velocity=80 time=12
note_off channel=0 note=72 velocity=64 time=108
note_on channel=0 note=72 velocity=80 time=12
note_off channel=0 note=72 velocity=64 time=54
note_on channel=0 note=73 velocity=80 time=6
note_on channel=0 note=70 velocity=80 time=0
note_off channel=0 note=73 velocity=64 time=108
note_off channel=0 note=70 velocity=64 time=54
note_on channel=0 note=72 velocity=80 time=18
note_on channel=0 note=68 velocity=80 time=0
note_off channel=0 note=72 velocity=64 time=216
note_off channel=0 note=68 velocity=64 time=0
note_on channel=0 note=70 velocity=80 time=24
note_on channel=0 note=68 velocity=80 time=0
note_off channel=0 note=70 velocity=64 time=216
note_off channel=0 note=68 velocity=64 time=0
note_on channel=0 note=80 velocity=80 time=24
note_off channel=0 note=80 velocity=64 time=216
note_on channel=0 note=77 velocity=80 time=24
note_off channel=0 note=77 velocity=64 time=108
note_on channel=0 note=68 velocity=80 time=12
note_off channel=0 note=68 velocity=64 time=108
note_on channel=0 note=75 velocity=80 time=12
note_off channel=0 note=75 velocity=64 time=108
note_on channel=0 note=77 velocity=80 time=12
note_off channel=0 note=77 velocity=64 time=108
note_on channel=0 note=73 velocity=80 time=12
note_off channel=0 note=73 velocity=64 time=108
note_on channel=0 note=75 velocity=80 time=12
note_off channel=0 note=75 velocity=64 time=108
note_on channel=0 note=72 velocity=80 time=12
note_off channel=0 note=72 velocity=64 time=108
note_on channel=0 note=73 velocity=80 time=12
note_off channel=0 note=73 velocity=64 time=108
note_on channel=0 note=77 velocity=80 time=12
note_on channel=0 note=73 velocity=80 time=0
note_on channel=0 note=70 velocity=80 time=0
note_off channel=0 note=77 velocity=64 time=216
note_off channel=0 note=73 velocity=64 time=0
note_off channel=0 note=70 velocity=64 time=0
note_on channel=0 note=77 velocity=80 time=24
note_on channel=0 note=73 velocity=80 time=0
note_on channel=0 note=70 velocity=80 time=0
note_on channel=0 note=70 velocity=80 time=150
note_on channel=0 note=73 velocity=80 time=30
note_on channel=0 note=78 velocity=80 time=30
note_off channel=0 note=77 velocity=64 time=6
note_off channel=0 note=73 velocity=64 time=0
note_off channel=0 note=70 velocity=64 time=0
note_off channel=0 note=70 velocity=64 time=366
note_off channel=0 note=73 velocity=64 time=30
note_off channel=0 note=78 velocity=64 time=30
note_on channel=0 note=70 velocity=80 time=78
note_off channel=0 note=70 velocity=64 time=108
note_on channel=0 note=73 velocity=80 time=12
note_off channel=0 note=73 velocity=64 time=108
note_on channel=0 note=75 velocity=80 time=12
note_off channel=0 note=75 velocity=64 time=108
note_on channel=0 note=77 velocity=80 time=12
note_off channel=0 note=77 velocity=64 time=108
note_on channel=0 note=78 velocity=80 time=12
note_on channel=0 note=75 velocity=80 time=0
note_off channel=0 note=78 velocity=64 time=216
note_off channel=0 note=75 velocity=64 time=0
note_on channel=0 note=94 velocity=80 time=24
note_on channel=0 note=82 velocity=80 time=0
note_off channel=0 note=94 velocity=64 time=216
note_off channel=0 note=82 velocity=64 time=0
note_on channel=0 note=92 velocity=80 time=24
note_on channel=0 note=80 velocity=80 time=0
note_off channel=0 note=92 velocity=64 time=27
note_off channel=0 note=80 velocity=64 time=0
note_on channel=0 note=82 velocity=80 time=3
note_off channel=0 note=82 velocity=64 time=27
note_on channel=0 note=80 velocity=80 time=3
note_off channel=0 note=80 velocity=64 time=162
note_on channel=0 note=75 velocity=80 time=18
note_off channel=0 note=75 velocity=64 time=216
note_on channel=0 note=77 velocity=80 time=24
note_off channel=0 note=77 velocity=64 time=108
note_on channel=0 note=75 velocity=80 time=12
note_off channel=0 note=75 velocity=64 time=108
note_on channel=0 note=77 velocity=80 time=12
note_on channel=0 note=72 velocity=80 time=120
note_off channel=0 note=77 velocity=64 time=216
note_off channel=0 note=72 velocity=64 time=0
note_on channel=0 note=72 velocity=80 time=24
note_off channel=0 note=72 velocity=64 time=108
note_on channel=0 note=73 velocity=80 time=12
note_off channel=0 note=73 velocity=64 time=108
note_on channel=0 note=75 velocity=80 time=12
note_off channel=0 note=75 velocity=64 time=108
note_on channel=0 note=77 velocity=80 time=12
note_off channel=0 note=77 velocity=64 time=216
note_on channel=0 note=92 velocity=80 time=24
note_on channel=0 note=80 velocity=80 time=0
note_off channel=0 note=92 velocity=64 time=216
note_off channel=0 note=80 velocity=64 time=0
note_on channel=0 note=90 velocity=80 time=24
note_on channel=0 note=78 velocity=80 time=0
note_off channel=0 note=90 velocity=64 time=27
note_off channel=0 note=78 velocity=64 time=0
note_on channel=0 note=80 velocity=80 time=3
note_off channel=0 note=80 velocity=64 time=27
note_on channel=0 note=78 velocity=80 time=3
note_off channel=0 note=78 velocity=64 time=162
note_on channel=0 note=77 velocity=80 time=18
note_off channel=0 note=77 velocity=64 time=216
note_on channel=0 note=75 velocity=80 time=24
note_off channel=0 note=75 velocity=64 time=108
note_on channel=0 note=77 velocity=80 time=12
note_off channel=0 note=77 velocity=64 time=27
note_on channel=0 note=75 velocity=80 time=3
note_off channel=0 note=75 velocity=64 time=27
note_on channel=0 note=73 velocity=80 time=3
note_off channel=0 note=73 velocity=64 time=27
note_on channel=0 note=75 velocity=80 time=3
note_off channel=0 note=75 velocity=64 time=462
note_on channel=0 note=71 velocity=80 time=48
note_off channel=0 note=71 velocity=64 time=108
note_on channel=0 note=73 velocity=80 time=12
note_off channel=0 note=73 velocity=64 time=108
note_on channel=0 note=75 velocity=80 time=12
note_off channel=0 note=75 velocity=64 time=216
note_on channel=0 note=78 velocity=80 time=24
note_off channel=0 note=78 velocity=64 time=216
note_on channel=0 note=77 velocity=80 time=24
note_off channel=0 note=77 velocity=64 time=27
note_on channel=0 note=78 velocity=80 time=3
note_off channel=0 note=78 velocity=64 time=27
note_on channel=0 note=77 velocity=80 time=3
note_off channel=0 note=77 velocity=64 time=162
note_on channel=0 note=75 velocity=80 time=18
note_off channel=0 note=75 velocity=64 time=216
note_on channel=0 note=75 velocity=80 time=24
note_on channel=0 note=69 velocity=80 time=0
note_off channel=0 note=75 velocity=64 time=324
note_off channel=0 note=69 velocity=64 time=0
note_on channel=0 note=77 velocity=80 time=36
note_on channel=0 note=72 velocity=80 time=0
note_off channel=0 note=77 velocity=64 time=108
note_off channel=0 note=72 velocity=64 time=0
note_on channel=0 note=63 velocity=80 time=12
note_off channel=0 note=63 velocity=64 time=108
note_on channel=0 note=65 velocity=80 time=12
note_off channel=0 note=65 velocity=64 time=108
note_on channel=0 note=69 velocity=80 time=12
note_off channel=0 note=69 velocity=64 time=108
note_on channel=0 note=72 velocity=80 time=12
note_off channel=0 note=72 velocity=64 time=108
note_on channel=0 note=84 velocity=80 time=12
note_on channel=0 note=81 velocity=80 time=0
note_on channel=0 note=75 velocity=80 time=0
note_off channel=0 note=84 velocity=64 time=108
note_off channel=0 note=81 velocity=64 time=0
note_off channel=0 note=75 velocity=64 time=0
note_on channel=0 note=77 velocity=80 time=12
note_off channel=0 note=77 velocity=64 time=108
note_on channel=0 note=81 velocity=80 time=12
note_off channel=0 note=81 velocity=64 time=108
note_on channel=0 note=84 velocity=80 time=12
note_off channel=0 note=84 velocity=64 time=108
note_on channel=0 note=77 velocity=80 time=12
note_on channel=0 note=72 velocity=80 time=0
note_on channel=0 note=69 velocity=80 time=0
note_off channel=0 note=77 velocity=64 time=216
note_off channel=0 note=72 velocity=64 time=0
note_off channel=0 note=69 velocity=64 time=0
note_on channel=0 note=80 velocity=80 time=24
note_on channel=0 note=77 velocity=80 time=0
note_on channel=0 note=72 velocity=80 time=0
note_on channel=0 note=73 velocity=80 time=150
note_on channel=0 note=77 velocity=80 time=30
note_on channel=0 note=82 velocity=80 time=30
note_off channel=0 note=80 velocity=64 time=6
note_off channel=0 note=77 velocity=64 time=0
note_off channel=0 note=72 velocity=64 time=0
note_off channel=0 note=73 velocity=64 time=150
note_off channel=0 note=77 velocity=64 time=30
note_off channel=0 note=82 velocity=64 time=30
note_on channel=0 note=77 velocity=80 time=54
note_off channel=0 note=77 velocity=64 time=216
note_on channel=0 note=77 velocity=80 time=24
note_on channel=0 note=68 velocity=80 time=0
note_off channel=0 note=68 velocity=64 time=108
note_off channel=0 note=77 velocity=64 time=54
note_on channel=0 note=80 velocity=80 time=18
note_on channel=0 note=70 velocity=80 time=0
note_off channel=0 note=70 velocity=64 time=108
note_off channel=0 note=80 velocity=64 time=54
note_on channel=0 note=75 velocity=80 time=18
note_on channel=0 note=73 velocity=80 time=0
note_off channel=0 note=73 velocity=64 time=108
note_on channel=0 note=72 velocity=80 time=12
note_on channel=0 note=68 velocity=80 time=0
note_off channel=0 note=75 velocity=64 time=432
note_off channel=0 note=72 velocity=64 time=0
note_off channel=0 note=68 velocity=64 time=0
note_on channel=0 note=75 velocity=80 time=48
note_on channel=0 note=68 velocity=80 time=0
note_off channel=0 note=75 velocity=64 time=216
note_off channel=0 note=68 velocity=64 time=0
note_on channel=0 note=77 velocity=80 time=24
note_on channel=0 note=73 velocity=80 time=0
note_off channel=0 note=77 velocity=64 time=216
note_off channel=0 note=73 velocity=64 time=0
note_on channel=0 note=80 velocity=80 time=24
note_on channel=0 note=77 velocity=80 time=0
note_on channel=0 note=72 velocity=80 time=0
note_off channel=0 note=80 velocity=64 time=216
note_off channel=0 note=77 velocity=64 time=0
note_off channel=0 note=72 velocity=64 time=0
note_on channel=0 note=75 velocity=80 time=24
note_on channel=0 note=68 velocity=80 time=0
note_off channel=0 note=75 velocity=64 time=216
note_off channel=0 note=68 velocity=64 time=0
note_on channel=0 note=75 velocity=80 time=24
note_on channel=0 note=68 velocity=80 time=0
note_off channel=0 note=68 velocity=64 time=108
note_off channel=0 note=75 velocity=64 time=54
note_on channel=0 note=77 velocity=80 time=18
note_on channel=0 note=73 velocity=80 time=0
note_off channel=0 note=73 velocity=64 time=108
note_off channel=0 note=77 velocity=64 time=54
note_on channel=0 note=70 velocity=80 time=18
note_on channel=0 note=65 velocity=80 time=0
note_off channel=0 note=70 velocity=64 time=336
note_off channel=0 note=65 velocity=64 time=0
note_on channel=0 note=82 velocity=80 time=24
note_off channel=0 note=82 velocity=64 time=216
note_on channel=0 note=75 velocity=80 time=24
note_on channel=0 note=73 velocity=80 time=0
note_off channel=0 note=75 velocity=64 time=108
note_off channel=0 note=73 velocity=64 time=0
note_on channel=0 note=77 velocity=80 time=12
note_off channel=0 note=77 velocity=64 time=108
note_on channel=0 note=80 velocity=80 time=12
note_on channel=0 note=77 velocity=80 time=0
note_off channel=0 note=80 velocity=64 time=108
note_off channel=0 note=77 velocity=64 time=0
note_on channel=0 note=82 velocity=80 time=12
note_off channel=0 note=82 velocity=64 time=108
note_on channel=0 note=77 velocity=80 time=12
note_on channel=0 note=73 velocity=80 time=0
note_on channel=0 note=70 velocity=80 time=0
note_off channel=0 note=77 velocity=64 time=216
note_off channel=0 note=73 velocity=64 time=0
note_off channel=0 note=70 velocity=64 time=0
note_on channel=0 note=77 velocity=80 time=24
note_on channel=0 note=73 velocity=80 time=0
note_off channel=0 note=77 velocity=64 time=216
note_off channel=0 note=73 velocity=64 time=0
note_on channel=0 note=77 velocity=80 time=24
note_on channel=0 note=73 velocity=80 time=0
note_on channel=0 note=70 velocity=80 time=0
note_off channel=0 note=70 velocity=64 time=108
note_off channel=0 note=77 velocity=64 time=54
note_off channel=0 note=73 velocity=64 time=0
note_on channel=0 note=85 velocity=80 time=18
note_on channel=0 note=77 velocity=80 time=0
note_off channel=0 note=85 velocity=64 time=162
note_off channel=0 note=77 velocity=64 time=0
note_on channel=0 note=84 velocity=80 time=18
note_on channel=0 note=75 velocity=80 time=0
note_off channel=0 note=75 velocity=64 time=108
note_on channel=0 note=75 velocity=80 time=12
note_on channel=0 note=72 velocity=80 time=0
note_on channel=0 note=68 velocity=80 time=0
note_off channel=0 note=84 velocity=64 time=108
note_off channel=0 note=75 velocity=64 time=0
note_off channel=0 note=72 velocity=64 time=0
note_off channel=0 note=68 velocity=64 time=0
note_on channel=0 note=80 velocity=80 time=12
note_on channel=0 note=72 velocity=80 time=0
note_on channel=0 note=68 velocity=80 time=270
note_on channel=0 note=75 velocity=80 time=45
note_off channel=0 note=80 velocity=64 time=9
note_off channel=0 note=72 velocity=64 time=0
note_off channel=0 note=68 velocity=64 time=162
note_off channel=0 note=75 velocity=64 time=45
note_on channel=0 note=73 velocity=80 time=69
note_on channel=0 note=65 velocity=80 time=150
note_on channel=0 note=68 velocity=80 time=30
note_on channel=0 note=75 velocity=80 time=30
note_off channel=0 note=73 velocity=64 time=6
note_off channel=0 note=65 velocity=64 time=150
note_off channel=0 note=68 velocity=64 time=30
note_off channel=0 note=75 velocity=64 time=30
note_on channel=0 note=73 velocity=80 time=54
note_off channel=0 note=73 velocity=64 time=108
note_on channel=0 note=73 velocity=80 time=12
note_off channel=0 note=73 velocity=64 time=108
note_on channel=0 note=73 velocity=80 time=12
note_on channel=0 note=65 velocity=80 time=0
note_off channel=0 note=73 velocity=64 time=162
note_off channel=0 note=65 velocity=64 time=0
note_on channel=0 note=75 velocity=80 time=18
note_on channel=0 note=68 velocity=80 time=0
note_off channel=0 note=75 velocity=64 time=162
note_off channel=0 note=68 velocity=64 time=0
note_on channel=0 note=77 velocity=80 time=18
note_on channel=0 note=72 velocity=80 time=0
note_on channel=0 note=69 velocity=80 time=0
note_off channel=0 note=77 velocity=64 time=108
note_off channel=0 note=72 velocity=64 time=0
note_off channel=0 note=69 velocity=64 time=0
note_on channel=0 note=77 velocity=80 time=12
note_off channel=0 note=77 velocity=64 time=108
note_on channel=0 note=81 velocity=80 time=12
note_off channel=0 note=81 velocity=64 time=108
note_on channel=0 note=84 velocity=80 time=12
note_off channel=0 note=84 velocity=64 time=108
note_on channel=0 note=89 velocity=80 time=12
note_on channel=0 note=77 velocity=80 time=120
note_on channel=0 note=69 velocity=80 time=0
note_off channel=0 note=89 velocity=64 time=108
note_on channel=0 note=87 velocity=80 time=12
note_off channel=0 note=77 velocity=64 time=108
note_off channel=0 note=69 velocity=64 time=0
note_off channel=0 note=87 velocity=64 time=0
note_on channel=0 note=85 velocity=80 time=12
note_on channel=0 note=80 velocity=80 time=0
note_on channel=0 note=72 velocity=80 time=0
note_off channel=0 note=85 velocity=64 time=108
note_on channel=0 note=84 velocity=80 time=12
note_off channel=0 note=80 velocity=64 time=108
note_off channel=0 note=72 velocity=64 time=0
note_off channel=0 note=84 velocity=64 time=0
note_on channel=0 note=82 velocity=80 time=12
note_on channel=0 note=77 velocity=80 time=0
note_on channel=0 note=73 velocity=80 time=0
note_off channel=0 note=82 velocity=64 time=216
note_off channel=0 note=77 velocity=64 time=0
note_off channel=0 note=73 velocity=64 time=0
note_on channel=0 note=77 velocity=80 time=24
note_off channel=0 note=77 velocity=64 time=216
note_on channel=0 note=77 velocity=80 time=24
note_on channel=0 note=68 velocity=80 time=0
note_off channel=0 note=68 velocity=64 time=108
note_off channel=0 note=77 velocity=64 time=54
note_on channel=0 note=80 velocity=80 time=18
note_on channel=0 note=70 velocity=80 time=0
note_off channel=0 note=70 velocity=64 time=108
note_off channel=0 note=80 velocity=64 time=54
note_on channel=0 note=75 velocity=80 time=18
note_on channel=0 note=73 velocity=80 time=0
note_off channel=0 note=73 velocity=64 time=108
note_on channel=0 note=72 velocity=80 time=12
note_on channel=0 note=68 velocity=80 time=0
note_off channel=0 note=75 velocity=64 time=432
note_off channel=0 note=72 velocity=64 time=0
note_off channel=0 note=68 velocity=64 time=0
note_on channel=0 note=75 velocity=80 time=48
note_on channel=0 note=68 velocity=80 time=0
note_off channel=0 note=75 velocity=64 time=216
note_off channel=0 note=68 velocity=64 time=0
note_on channel=0 note=77 velocity=80 time=24
note_on channel=0 note=72 velocity=80 time=0
note_on channel=0 note=68 velocity=80 time=0
note_off channel=0 note=77 velocity=64 time=216
note_off channel=0 note=72 velocity=64 time=0
note_off channel=0 note=68 velocity=64 time=0
note_on channel=0 note=80 velocity=80 time=24
note_on channel=0 note=72 velocity=80 time=0
note_on channel=0 note=68 velocity=80 time=0
note_off channel=0 note=80 velocity=64 time=108
note_off channel=0 note=72 velocity=64 time=0
note_off channel=0 note=68 velocity=64 time=0
note_on channel=0 note=75 velocity=80 time=12
note_off channel=0 note=75 velocity=64 time=108
note_on channel=0 note=77 velocity=80 time=12
note_off channel=0 note=77 velocity=64 time=108
note_on channel=0 note=80 velocity=80 time=12
note_off channel=0 note=80 velocity=64 time=108
note_on channel=0 note=82 velocity=80 time=12
note_off channel=0 note=82 velocity=64 time=54
note_on channel=0 note=84 velocity=80 time=6
note_off channel=0 note=84 velocity=64 time=108
note_on channel=0 note=85 velocity=80 time=12
note_off channel=0 note=85 velocity=64 time=162
note_on channel=0 note=80 velocity=80 time=18
note_off channel=0 note=80 velocity=64 time=216
note_on channel=0 note=82 velocity=80 time=24
note_on channel=0 note=77 velocity=80 time=0
note_on channel=0 note=75 velocity=80 time=0
note_on channel=0 note=73 velocity=80 time=0
note_off channel=0 note=75 velocity=64 time=216
note_off channel=0 note=82 velocity=64 time=108
note_off channel=0 note=77 velocity=64 time=0
note_off channel=0 note=73 velocity=64 time=0
note_on channel=0 note=82 velocity=80 time=36
note_on channel=0 note=77 velocity=80 time=0
note_on channel=0 note=73 velocity=80 time=0
note_off channel=0 note=82 velocity=64 time=216
note_off channel=0 note=77 velocity=64 time=0
note_off channel=0 note=73 velocity=64 time=0
note_on channel=0 note=80 velocity=80 time=24
note_on channel=0 note=72 velocity=80 time=0
note_off channel=0 note=80 velocity=64 time=216
note_off channel=0 note=72 velocity=64 time=0
note_on channel=0 note=78 velocity=80 time=24
note_on channel=0 note=70 velocity=80 time=0
note_off channel=0 note=78 velocity=64 time=216
note_off channel=0 note=70 velocity=64 time=0
note_on channel=0 note=80 velocity=80 time=24
note_on channel=0 note=72 velocity=80 time=0
note_off channel=0 note=80 velocity=64 time=108
note_off channel=0 note=72 velocity=64 time=0
note_on channel=0 note=82 velocity=80 time=12
note_on channel=0 note=73 velocity=80 time=0
note_off channel=0 note=82 velocity=64 time=216
note_off channel=0 note=73 velocity=64 time=0
note_on channel=0 note=85 velocity=80 time=24
note_on channel=0 note=77 velocity=80 time=0
note_on channel=0 note=80 velocity=80 time=306
note_off channel=0 note=85 velocity=64 time=18
note_off channel=0 note=77 velocity=64 time=0
note_off channel=0 note=80 velocity=64 time=9
note_on channel=0 note=82 velocity=80 time=0
note_off channel=0 note=82 velocity=64 time=27
note_on channel=0 note=85 velocity=80 time=0
note_on channel=0 note=75 velocity=80 time=0
note_off channel=0 note=85 velocity=64 time=432
note_off channel=0 note=75 velocity=64 time=0
note_on channel=0 note=84 velocity=80 time=48
note_on channel=0 note=77 velocity=80 time=0
note_on channel=0 note=75 velocity=80 time=0
note_off channel=0 note=84 velocity=64 time=27
note_on channel=0 note=85 velocity=80 time=3
note_off channel=0 note=85 velocity=64 time=27
note_on channel=0 note=84 velocity=80 time=3
note_off channel=0 note=77 velocity=64 time=378
note_off channel=0 note=75 velocity=64 time=0
note_off channel=0 note=84 velocity=64 time=0
note_on channel=0 note=82 velocity=80 time=42
note_on channel=0 note=77 velocity=80 time=0
note_on channel=0 note=75 velocity=80 time=0
note_off channel=0 note=82 velocity=64 time=432
note_off channel=0 note=77 velocity=64 time=0
note_off channel=0 note=75 velocity=64 time=0
note_on channel=0 note=72 velocity=80 time=48
note_on channel=0 note=63 velocity=80 time=0
note_off channel=0 note=72 velocity=64 time=432
note_off channel=0 note=63 velocity=64 time=0
note_on channel=0 note=74 velocity=80 time=48
note_off channel=0 note=74 velocity=64 time=432
note_on channel=0 note=77 velocity=80 time=48
note_off channel=0 note=77 velocity=64 time=216
note_on channel=0 note=78 velocity=80 time=24
note_off channel=0 note=78 velocity=64 time=216
note_on channel=0 note=80 velocity=80 time=24
note_on channel=0 note=73 velocity=80 time=0
note_on channel=0 note=71 velocity=80 time=0
note_off channel=0 note=80 velocity=64 time=216
note_off channel=0 note=73 velocity=64 time=0
note_off channel=0 note=71 velocity=64 time=0
note_on channel=0 note=78 velocity=80 time=24
note_off channel=0 note=78 velocity=64 time=108
note_on channel=0 note=78 velocity=80 time=12
note_off channel=0 note=78 velocity=64 time=216
note_on channel=0 note=77 velocity=80 time=24
note_off channel=0 note=77 velocity=64 time=216
note_on channel=0 note=77 velocity=80 time=24
note_off channel=0 note=77 velocity=64 time=216
note_on channel=0 note=68 velocity=80 time=24
note_off channel=0 note=68 velocity=64 time=360
note_on channel=0 note=73 velocity=80 time=0
note_off channel=0 note=73 velocity=64 time=216
note_on channel=0 note=80 velocity=80 time=24
note_off channel=0 note=80 velocity=64 time=216
note_on channel=0 note=80 velocity=80 time=24
note_on channel=0 note=73 velocity=80 time=0
note_on channel=0 note=70 velocity=80 time=0
note_off channel=0 note=80 velocity=64 time=216
note_off channel=0 note=73 velocity=64 time=0
note_off channel=0 note=70 velocity=64 time=0
note_on channel=0 note=78 velocity=80 time=24
note_off channel=0 note=78 velocity=64 time=108
note_on channel=0 note=78 velocity=80 time=12
note_off channel=0 note=78 velocity=64 time=216
note_on channel=0 note=77 velocity=80 time=24
note_off channel=0 note=77 velocity=64 time=216
note_on channel=0 note=73 velocity=80 time=24
note_off channel=0 note=73 velocity=64 time=216
note_on channel=0 note=68 velocity=80 time=24
note_off channel=0 note=68 velocity=64 time=108
note_on channel=0 note=66 velocity=80 time=12
note_off channel=0 note=66 velocity=64 time=108
note_on channel=0 note=73 velocity=80 time=12
note_off channel=0 note=73 velocity=64 time=108
note_on channel=0 note=73 velocity=80 time=12
note_off channel=0 note=73 velocity=64 time=54
note_on channel=0 note=80 velocity=80 time=6
note_off channel=0 note=80 velocity=64 time=108
note_on channel=0 note=78 velocity=80 time=12
note_off channel=0 note=78 velocity=64 time=162
note_on channel=0 note=73 velocity=80 time=18
note_off channel=0 note=73 velocity=64 time=108
control_change channel=0 control=7 value=100 time=2
note_on channel=0 note=78 velocity=80 time=10
note_off channel=0 note=78 velocity=64 time=216
note_on channel=0 note=76 velocity=80 time=24
note_off channel=0 note=76 velocity=64 time=108
note_on channel=0 note=76 velocity=80 time=12
note_off channel=0 note=76 velocity=64 time=216
note_on channel=0 note=75 velocity=80 time=24
note_off channel=0 note=75 velocity=64 time=216
note_on channel=0 note=75 velocity=80 time=24
note_off channel=0 note=75 velocity=64 time=216
note_on channel=0 note=73 velocity=80 time=24
note_off channel=0 note=73 velocity=64 time=324
note_on channel=0 note=73 velocity=80 time=36
note_off channel=0 note=73 velocity=64 time=162
note_on channel=0 note=75 velocity=80 time=18
note_off channel=0 note=75 velocity=64 time=162
note_on channel=0 note=75 velocity=80 time=18
note_off channel=0 note=75 velocity=64 time=108
note_on channel=0 note=75 velocity=80 time=12
note_off channel=0 note=75 velocity=64 time=432
note_on channel=0 note=75 velocity=80 time=48
note_off channel=0 note=75 velocity=64 time=108
note_on channel=0 note=80 velocity=80 time=12
note_off channel=0 note=80 velocity=64 time=108
note_on channel=0 note=84 velocity=80 time=12
note_off channel=0 note=84 velocity=64 time=108
note_on channel=0 note=87 velocity=80 time=12
note_off channel=0 note=87 velocity=64 time=108
note_on channel=0 note=92 velocity=80 time=12
note_on channel=0 note=87 velocity=80 time=0
note_on channel=0 note=85 velocity=80 time=0
note_off channel=0 note=92 velocity=64 time=108
note_off channel=0 note=87 velocity=64 time=0
note_off channel=0 note=85 velocity=64 time=0
note_on channel=0 note=80 velocity=80 time=12
note_off channel=0 note=80 velocity=64 time=108
note_on channel=0 note=84 velocity=80 time=12
note_off channel=0 note=84 velocity=64 time=108
note_on channel=0 note=75 velocity=80 time=12
note_off channel=0 note=75 velocity=64 time=108
note_on channel=0 note=73 velocity=80 time=12
note_on channel=0 note=72 velocity=80 time=0
note_off channel=0 note=73 velocity=64 time=108
note_off channel=0 note=72 velocity=64 time=0
note_on channel=0 note=75 velocity=80 time=12
note_off channel=0 note=75 velocity=64 time=324
note_on channel=0 note=82 velocity=80 time=36
note_on channel=0 note=77 velocity=80 time=0
note_off channel=0 note=82 velocity=64 time=108
note_off channel=0 note=77 velocity=64 time=0
note_on channel=0 note=77 velocity=80 time=12
note_off channel=0 note=77 velocity=64 time=108
note_on channel=0 note=82 velocity=80 time=12
note_on channel=0 note=77 velocity=80 time=0
note_off channel=0 note=82 velocity=64 time=108
note_off channel=0 note=77 velocity=64 time=0
note_on channel=0 note=77 velocity=80 time=12
note_off channel=0 note=77 velocity=64 time=108
note_on channel=0 note=82 velocity=80 time=12
note_on channel=0 note=77 velocity=80 time=0
note_off channel=0 note=82 velocity=64 time=108
note_off channel=0 note=77 velocity=64 time=0
note_on channel=0 note=77 velocity=80 time=12
note_off channel=0 note=77 velocity=64 time=108
note_on channel=0 note=89 velocity=80 time=12
note_on channel=0 note=84 velocity=80 time=0
note_on channel=0 note=82 velocity=80 time=0
note_on channel=0 note=77 velocity=80 time=0
note_off channel=0 note=89 velocity=64 time=216
note_off channel=0 note=84 velocity=64 time=0
note_off channel=0 note=82 velocity=64 time=0
note_off channel=0 note=77 velocity=64 time=0
note_on channel=0 note=89 velocity=80 time=24
note_on channel=0 note=84 velocity=80 time=0
note_on channel=0 note=81 velocity=80 time=0
note_on channel=0 note=77 velocity=80 time=0
note_off channel=0 note=89 velocity=64 time=432
note_off channel=0 note=84 velocity=64 time=0
note_off channel=0 note=81 velocity=64 time=0
note_off channel=0 note=77 velocity=64 time=0
note_on channel=0 note=89 velocity=80 time=48
note_off channel=0 note=89 velocity=64 time=216
note_on channel=0 note=92 velocity=80 time=24
note_on channel=0 note=85 velocity=80 time=186
note_on channel=0 note=89 velocity=80 time=27
note_off channel=0 note=92 velocity=64 time=3
note_on channel=0 note=94 velocity=80 time=24
note_off channel=0 note=85 velocity=64 time=162
note_off channel=0 note=89 velocity=64 time=27
note_off channel=0 note=94 velocity=64 time=27
note_on channel=0 note=89 velocity=80 time=24
note_off channel=0 note=89 velocity=64 time=216
note_on channel=0 note=89 velocity=80 time=24
note_off channel=0 note=89 velocity=64 time=162
note_on channel=0 note=92 velocity=80 time=18
note_off channel=0 note=92 velocity=64 time=162
note_on channel=0 note=87 velocity=80 time=18
note_off channel=0 note=87 velocity=64 time=552
note_on channel=0 note=87 velocity=80 time=48
note_off channel=0 note=87 velocity=64 time=216
note_on channel=0 note=89 velocity=80 time=24
note_off channel=0 note=89 velocity=64 time=216
note_on channel=0 note=92 velocity=80 time=24
note_off channel=0 note=92 velocity=64 time=216
note_on channel=0 note=87 velocity=80 time=24
note_off channel=0 note=87 velocity=64 time=216
note_on channel=0 note=87 velocity=80 time=24
note_off channel=0 note=87 velocity=64 time=162
note_on channel=0 note=89 velocity=80 time=18
note_off channel=0 note=89 velocity=64 time=162
note_on channel=0 note=82 velocity=80 time=18
note_off channel=0 note=82 velocity=64 time=552
note_on channel=0 note=89 velocity=80 time=48
note_off channel=0 note=89 velocity=64 time=216
note_on channel=0 note=92 velocity=80 time=24
note_on channel=0 note=85 velocity=80 time=186
note_on channel=0 note=89 velocity=80 time=27
note_off channel=0 note=92 velocity=64 time=3
note_on channel=0 note=94 velocity=80 time=24
note_off channel=0 note=85 velocity=64 time=162
note_off channel=0 note=89 velocity=64 time=27
note_off channel=0 note=94 velocity=64 time=27
note_on channel=0 note=89 velocity=80 time=24
note_off channel=0 note=89 velocity=64 time=108
note_on channel=0 note=82 velocity=80 time=12
note_off channel=0 note=82 velocity=64 time=108
note_on channel=0 note=89 velocity=80 time=12
note_off channel=0 note=89 velocity=64 time=162
note_on channel=0 note=97 velocity=80 time=18
note_off channel=0 note=97 velocity=64 time=162
note_on channel=0 note=96 velocity=80 time=18
note_off channel=0 note=96 velocity=64 time=324
note_on channel=0 note=92 velocity=80 time=36
note_on channel=0 note=84 velocity=80 time=0
note_off channel=0 note=92 velocity=64 time=216
note_off channel=0 note=84 velocity=64 time=0
note_on channel=0 note=87 velocity=80 time=24
note_on channel=0 note=80 velocity=80 time=0
note_off channel=0 note=87 velocity=64 time=216
note_off channel=0 note=80 velocity=64 time=0
note_on channel=0 note=85 velocity=80 time=24
note_off channel=0 note=85 velocity=64 time=216
note_on channel=0 note=87 velocity=80 time=24
note_on channel=0 note=80 velocity=80 time=0
note_off channel=0 note=87 velocity=64 time=216
note_off channel=0 note=80 velocity=64 time=0
note_on channel=0 note=85 velocity=80 time=24
note_on channel=0 note=77 velocity=80 time=0
note_off channel=0 note=85 velocity=64 time=108
note_off channel=0 note=77 velocity=64 time=0
note_on channel=0 note=85 velocity=80 time=12
note_on channel=0 note=77 velocity=80 time=0
note_off channel=0 note=85 velocity=64 time=216
note_off channel=0 note=77 velocity=64 time=0
note_on channel=0 note=87 velocity=80 time=24
note_on channel=0 note=80 velocity=80 time=0
note_off channel=0 note=87 velocity=64 time=216
note_off channel=0 note=80 velocity=64 time=0
note_on channel=0 note=89 velocity=80 time=24
note_on channel=0 note=84 velocity=80 time=0
note_on channel=0 note=81 velocity=80 time=0
note_off channel=0 note=89 velocity=64 time=108
note_off channel=0 note=84 velocity=64 time=0
note_off channel=0 note=81 velocity=64 time=0
note_on channel=0 note=89 velocity=80 time=12
note_on channel=0 note=84 velocity=80 time=0
note_on channel=0 note=81 velocity=80 time=0
note_off channel=0 note=89 velocity=64 time=108
note_off channel=0 note=84 velocity=64 time=0
note_off channel=0 note=81 velocity=64 time=0
note_on channel=0 note=81 velocity=80 time=12
note_on channel=0 note=60 velocity=80 time=0
note_off channel=0 note=81 velocity=64 time=108
note_off channel=0 note=60 velocity=64 time=0
note_on channel=0 note=84 velocity=80 time=12
note_on channel=0 note=65 velocity=80 time=0
note_on channel=0 note=57 velocity=80 time=0
note_off channel=0 note=84 velocity=64 time=108
note_off channel=0 note=65 velocity=64 time=0
note_off channel=0 note=57 velocity=64 time=0
note_on channel=0 note=89 velocity=80 time=12
note_on channel=0 note=69 velocity=80 time=0
note_on channel=0 note=60 velocity=80 time=0
note_off channel=0 note=69 velocity=64 time=108
note_off channel=0 note=60 velocity=64 time=0
note_on channel=0 note=77 velocity=80 time=12
note_on channel=0 note=72 velocity=80 time=0
note_on channel=0 note=69 velocity=80 time=0
note_off channel=0 note=89 velocity=64 time=108
note_on channel=0 note=87 velocity=80 time=12
note_off channel=0 note=77 velocity=64 time=108
note_off channel=0 note=72 velocity=64 time=0
note_off channel=0 note=69 velocity=64 time=0
note_off channel=0 note=87 velocity=64 time=0
note_on channel=0 note=85 velocity=80 time=12
note_on channel=0 note=80 velocity=80 time=0
note_on channel=0 note=77 velocity=80 time=0
note_on channel=0 note=72 velocity=80 time=0
note_off channel=0 note=85 velocity=64 time=108
note_on channel=0 note=84 velocity=80 time=12
note_off channel=0 note=80 velocity=64 time=108
note_off channel=0 note=77 velocity=64 time=0
note_off channel=0 note=72 velocity=64 time=0
note_off channel=0 note=84 velocity=64 time=0
note_on channel=0 note=82 velocity=80 time=12
note_on channel=0 note=77 velocity=80 time=0
note_on channel=0 note=73 velocity=80 time=0
note_on channel=0 note=70 velocity=80 time=0
note_off channel=0 note=82 velocity=64 time=216
note_off channel=0 note=77 velocity=64 time=0
note_off channel=0 note=73 velocity=64 time=0
note_off channel=0 note=70 velocity=64 time=0
note_on channel=0 note=77 velocity=80 time=24
note_on channel=0 note=73 velocity=80 time=0
note_on channel=0 note=70 velocity=80 time=0
note_on channel=0 note=65 velocity=80 time=0
note_off channel=0 note=77 velocity=64 time=216
note_off channel=0 note=73 velocity=64 time=0
note_off channel=0 note=70 velocity=64 time=0
note_off channel=0 note=65 velocity=64 time=0
note_on channel=0 note=77 velocity=80 time=24
note_on channel=0 note=73 velocity=80 time=0
note_on channel=0 note=70 velocity=80 time=0
note_on channel=0 note=65 velocity=80 time=0
note_off channel=0 note=77 velocity=64 time=162
note_off channel=0 note=73 velocity=64 time=0
note_off channel=0 note=70 velocity=64 time=0
note_off channel=0 note=65 velocity=64 time=0
note_on channel=0 note=80 velocity=80 time=18
note_on channel=0 note=68 velocity=80 time=0
note_off channel=0 note=80 velocity=64 time=162
note_off channel=0 note=68 velocity=64 time=0
note_on channel=0 note=75 velocity=80 time=18
note_on channel=0 note=63 velocity=80 time=0
note_off channel=0 note=63 velocity=64 time=108
note_on channel=0 note=72 velocity=80 time=12
note_on channel=0 note=68 velocity=80 time=0
note_on channel=0 note=63 velocity=80 time=0
note_off channel=0 note=75 velocity=64 time=432
note_off channel=0 note=72 velocity=64 time=0
note_off channel=0 note=68 velocity=64 time=0
note_off channel=0 note=63 velocity=64 time=0
note_on channel=0 note=75 velocity=80 time=48
note_on channel=0 note=63 velocity=80 time=0
note_off channel=0 note=75 velocity=64 time=216
note_off channel=0 note=63 velocity=64 time=0
note_on channel=0 note=77 velocity=80 time=24
note_on channel=0 note=65 velocity=80 time=0
note_on channel=0 note=68 velocity=80 time=159
note_on channel=0 note=72 velocity=80 time=27
note_on channel=0 note=75 velocity=80 time=27
note_off channel=0 note=77 velocity=64 time=3
note_off channel=0 note=65 velocity=64 time=0
note_on channel=0 note=80 velocity=80 time=24
note_off channel=0 note=68 velocity=64 time=27
note_off channel=0 note=72 velocity=64 time=27
note_off channel=0 note=75 velocity=64 time=27
note_off channel=0 note=80 velocity=64 time=27
note_on channel=0 note=75 velocity=80 time=12
note_off channel=0 note=75 velocity=64 time=108
note_on channel=0 note=77 velocity=80 time=12
note_off channel=0 note=77 velocity=64 time=108
note_on channel=0 note=80 velocity=80 time=12
note_off channel=0 note=80 velocity=64 time=108
note_on channel=0 note=84 velocity=80 time=12
note_off channel=0 note=84 velocity=64 time=162
note_on channel=0 note=85 velocity=80 time=18
note_off channel=0 note=85 velocity=64 time=162
note_on channel=0 note=80 velocity=80 time=18
note_off channel=0 note=80 velocity=64 time=216
note_on channel=0 note=82 velocity=80 time=24
note_on channel=0 note=77 velocity=80 time=0
note_on channel=0 note=73 velocity=80 time=0
note_off channel=0 note=77 velocity=64 time=216
note_off channel=0 note=73 velocity=64 time=0
note_off channel=0 note=82 velocity=64 time=108
note_on channel=0 note=82 velocity=80 time=36
note_on channel=0 note=77 velocity=80 time=0
note_on channel=0 note=73 velocity=80 time=0
note_off channel=0 note=82 velocity=64 time=216
note_off channel=0 note=77 velocity=64 time=0
note_off channel=0 note=73 velocity=64 time=0
note_on channel=0 note=80 velocity=80 time=24
note_on channel=0 note=72 velocity=80 time=0
note_off channel=0 note=80 velocity=64 time=216
note_off channel=0 note=72 velocity=64 time=0
note_on channel=0 note=78 velocity=80 time=24
note_on channel=0 note=70 velocity=80 time=0
note_off channel=0 note=78 velocity=64 time=216
note_off channel=0 note=70 velocity=64 time=0
note_on channel=0 note=80 velocity=80 time=24
note_on channel=0 note=72 velocity=80 time=0
note_off channel=0 note=80 velocity=64 time=108
note_off channel=0 note=72 velocity=64 time=0
note_on channel=0 note=82 velocity=80 time=12
note_on channel=0 note=73 velocity=80 time=0
note_off channel=0 note=82 velocity=64 time=216
note_off channel=0 note=73 velocity=64 time=0
note_on channel=0 note=85 velocity=80 time=24
note_on channel=0 note=77 velocity=80 time=0
note_on channel=0 note=80 velocity=80 time=306
note_off channel=0 note=85 velocity=64 time=18
note_off channel=0 note=77 velocity=64 time=0
note_off channel=0 note=80 velocity=64 time=9
note_on channel=0 note=82 velocity=80 time=0
note_off channel=0 note=82 velocity=64 time=27
note_on channel=0 note=85 velocity=80 time=0
note_on channel=0 note=80 velocity=80 time=0
note_on channel=0 note=75 velocity=80 time=0
note_off channel=0 note=85 velocity=64 time=432
note_off channel=0 note=80 velocity=64 time=0
note_off channel=0 note=75 velocity=64 time=0
note_on channel=0 note=84 velocity=80 time=48
note_on channel=0 note=77 velocity=80 time=0
note_on channel=0 note=75 velocity=80 time=0
note_off channel=0 note=84 velocity=64 time=432
note_off channel=0 note=77 velocity=64 time=0
note_off channel=0 note=75 velocity=64 time=0
note_on channel=0 note=82 velocity=80 time=48
note_on channel=0 note=77 velocity=80 time=0
note_on channel=0 note=75 velocity=80 time=0
note_off channel=0 note=82 velocity=64 time=432
note_off channel=0 note=77 velocity=64 time=0
note_off channel=0 note=75 velocity=64 time=0
note_on channel=0 note=77 velocity=80 time=48
note_on channel=0 note=75 velocity=80 time=0
note_off channel=0 note=77 velocity=64 time=108
note_off channel=0 note=75 velocity=64 time=0
note_on channel=0 note=80 velocity=80 time=12
note_off channel=0 note=80 velocity=64 time=108
note_on channel=0 note=85 velocity=80 time=12
note_off channel=0 note=85 velocity=64 time=108
note_on channel=0 note=82 velocity=80 time=12
note_off channel=0 note=82 velocity=64 time=324
note_on channel=0 note=80 velocity=80 time=36
note_off channel=0 note=80 velocity=64 time=216
note_on channel=0 note=77 velocity=80 time=24
note_off channel=0 note=77 velocity=64 time=216
note_on channel=0 note=75 velocity=80 time=24
note_off channel=0 note=75 velocity=64 time=216
note_on channel=0 note=82 velocity=80 time=24
note_on channel=0 note=77 velocity=80 time=0
note_on channel=0 note=73 velocity=80 time=0
note_off channel=0 note=82 velocity=64 time=216
note_off channel=0 note=77 velocity=64 time=0
note_off channel=0 note=73 velocity=64 time=0
note_on channel=0 note=66 velocity=80 time=24
note_off channel=0 note=66 velocity=64 time=108
note_on channel=0 note=80 velocity=80 time=12
note_on channel=0 note=73 velocity=80 time=0
note_off channel=0 note=80 velocity=64 time=360
note_off channel=0 note=73 velocity=64 time=0
note_on channel=0 note=77 velocity=80 time=0
note_on channel=0 note=73 velocity=80 time=0
note_off channel=0 note=77 velocity=64 time=27
note_on channel=0 note=78 velocity=80 time=3
note_off channel=0 note=78 velocity=64 time=27
note_on channel=0 note=77 velocity=80 time=3
note_off channel=0 note=73 velocity=64 time=108
note_off channel=0 note=77 velocity=64 time=54
note_on channel=0 note=75 velocity=80 time=18
note_on channel=0 note=72 velocity=80 time=0
note_off channel=0 note=75 velocity=64 time=324
note_off channel=0 note=72 velocity=64 time=0
note_on channel=0 note=77 velocity=80 time=36
note_on channel=0 note=72 velocity=80 time=0
note_off channel=0 note=77 velocity=64 time=324
note_off channel=0 note=72 velocity=64 time=0
note_on channel=0 note=82 velocity=80 time=36
note_on channel=0 note=80 velocity=80 time=0
note_on channel=0 note=75 velocity=80 time=0
note_off channel=0 note=82 velocity=64 time=27
note_on channel=0 note=83 velocity=80 time=3
note_off channel=0 note=83 velocity=64 time=27
note_on channel=0 note=82 velocity=80 time=3
note_off channel=0 note=80 velocity=64 time=108
note_off channel=0 note=75 velocity=64 time=0
note_off channel=0 note=82 velocity=64 time=54
note_on channel=0 note=80 velocity=80 time=18
note_on channel=0 note=75 velocity=80 time=0
note_off channel=0 note=80 velocity=64 time=360
note_off channel=0 note=75 velocity=64 time=0
note_on channel=0 note=84 velocity=80 time=0
note_on channel=0 note=75 velocity=80 time=0
note_off channel=0 note=84 velocity=64 time=360
note_off channel=0 note=75 velocity=64 time=0
note_on channel=0 note=75 velocity=80 time=0
note_off channel=0 note=75 velocity=64 time=108
note_on channel=0 note=77 velocity=80 time=12
note_off channel=0 note=77 velocity=64 time=108
note_on channel=0 note=73 velocity=80 time=12
note_off channel=0 note=73 velocity=64 time=108
note_on channel=0 note=85 velocity=80 time=12
note_on channel=0 note=77 velocity=80 time=0
note_off channel=0 note=85 velocity=64 time=216
note_off channel=0 note=77 velocity=64 time=0
note_on channel=0 note=84 velocity=80 time=24
note_on channel=0 note=75 velocity=80 time=0
note_off channel=0 note=84 velocity=64 time=216
note_off channel=0 note=75 velocity=64 time=0
note_on channel=0 note=80 velocity=80 time=24
note_on channel=0 note=72 velocity=80 time=0
note_off channel=0 note=80 velocity=64 time=108
note_off channel=0 note=72 velocity=64 time=0
note_on channel=0 note=104 velocity=80 time=12
note_off channel=0 note=104 velocity=64 time=108
note_on channel=0 note=92 velocity=80 time=12
note_off channel=0 note=92 velocity=64 time=336
note_on channel=0 note=75 velocity=80 time=24
note_off channel=0 note=75 velocity=64 time=108
note_on channel=0 note=73 velocity=80 time=12
note_off channel=0 note=73 velocity=64 time=324
note_on channel=0 note=80 velocity=80 time=36
note_off channel=0 note=80 velocity=64 time=108
note_on channel=0 note=80 velocity=80 time=12
note_off channel=0 note=80 velocity=64 time=324
note_on channel=0 note=75 velocity=80 time=36
note_off channel=0 note=75 velocity=64 time=108
note_on channel=0 note=73 velocity=80 time=12
note_off channel=0 note=73 velocity=64 time=324
note_on channel=0 note=80 velocity=80 time=36
note_on channel=0 note=73 velocity=80 time=159
note_off channel=0 note=73 velocity=64 time=27
note_on channel=0 note=75 velocity=80 time=0
note_off channel=0 note=75 velocity=64 time=27
note_on channel=0 note=80 velocity=80 time=0
note_off channel=0 note=80 velocity=64 time=3
note_off channel=0 note=80 velocity=64 time=24
note_on channel=0 note=75 velocity=80 time=0
note_on channel=0 note=65 velocity=80 time=0
note_off channel=0 note=75 velocity=64 time=108
note_off channel=0 note=65 velocity=64 time=0
note_on channel=0 note=73 velocity=80 time=12
note_off channel=0 note=73 velocity=64 time=108
note_on channel=0 note=75 velocity=80 time=12
note_off channel=0 note=75 velocity=64 time=108
note_on channel=0 note=75 velocity=80 time=12
note_on channel=0 note=68 velocity=80 time=0
note_on channel=0 note=63 velocity=80 time=0
note_off channel=0 note=68 velocity=64 time=216
note_off channel=0 note=63 velocity=64 time=0
note_off channel=0 note=75 velocity=64 time=108
note_on channel=0 note=80 velocity=80 time=36
note_on channel=0 note=72 velocity=80 time=0
note_off channel=0 note=80 velocity=64 time=108
note_off channel=0 note=72 velocity=64 time=0
note_on channel=0 note=80 velocity=80 time=12
note_on channel=0 note=72 velocity=80 time=0
note_off channel=0 note=80 velocity=64 time=216
note_off channel=0 note=72 velocity=64 time=0
note_on channel=0 note=84 velocity=80 time=24
note_on channel=0 note=75 velocity=80 time=0
note_off channel=0 note=84 velocity=64 time=216
note_off channel=0 note=75 velocity=64 time=0
note_on channel=0 note=92 velocity=80 time=24
note_on channel=0 note=84 velocity=80 time=0
note_off channel=0 note=92 velocity=64 time=360
note_off channel=0 note=84 velocity=64 time=0
note_on channel=0 note=92 velocity=80 time=0
note_on channel=0 note=84 velocity=80 time=0
note_off channel=0 note=92 velocity=64 time=108
note_off channel=0 note=84 velocity=64 time=0
note_on channel=0 note=92 velocity=80 time=12
note_on channel=0 note=84 velocity=80 time=0
note_off channel=0 note=92 velocity=64 time=108
note_off channel=0 note=84 velocity=64 time=0
note_on channel=0 note=92 velocity=80 time=12
note_on channel=0 note=84 velocity=80 time=0
note_off channel=0 note=92 velocity=64 time=324
note_off channel=0 note=84 velocity=64 time=0
note_on channel=0 note=94 velocity=80 time=36
note_on channel=0 note=85 velocity=80 time=0
note_off channel=0 note=94 velocity=64 time=432
note_off channel=0 note=85 velocity=64 time=0
note_on channel=0 note=92 velocity=80 time=48
note_on channel=0 note=84 velocity=80 time=0
note_off channel=0 note=92 velocity=64 time=108
note_off channel=0 note=84 velocity=64 time=0
note_on channel=0 note=92 velocity=80 time=12
note_on channel=0 note=84 velocity=80 time=0
note_off channel=0 note=92 velocity=64 time=324
note_off channel=0 note=84 velocity=64 time=0
note_on channel=0 note=90 velocity=80 time=36
note_on channel=0 note=84 velocity=80 time=0
note_off channel=0 note=90 velocity=64 time=324
note_off channel=0 note=84 velocity=64 time=0
note_on channel=0 note=89 velocity=80 time=36
note_on channel=0 note=84 velocity=80 time=0
note_off channel=0 note=89 velocity=64 time=108
note_off channel=0 note=84 velocity=64 time=0
note_on channel=0 note=87 velocity=80 time=12
note_off channel=0 note=87 velocity=64 time=108
note_on channel=0 note=87 velocity=80 time=12
note_off channel=0 note=87 velocity=64 time=108
note_on channel=0 note=85 velocity=80 time=12
note_off channel=0 note=85 velocity=64 time=108
note_on channel=0 note=84 velocity=80 time=12
note_off channel=0 note=84 velocity=64 time=108
note_on channel=0 note=85 velocity=80 time=12
note_off channel=0 note=85 velocity=64 time=216
note_on channel=0 note=80 velocity=80 time=24
note_off channel=0 note=80 velocity=64 time=216
note_on channel=0 note=77 velocity=80 time=24
note_off channel=0 note=77 velocity=64 time=216
note_on channel=0 note=75 velocity=80 time=24
note_off channel=0 note=75 velocity=64 time=216
note_on channel=0 note=80 velocity=80 time=24
note_off channel=0 note=80 velocity=64 time=216
note_on channel=0 note=77 velocity=80 time=24
note_on channel=0 note=73 velocity=80 time=306
note_off channel=0 note=77 velocity=64 time=18
note_off channel=0 note=73 velocity=64 time=9
note_on channel=0 note=75 velocity=80 time=0
note_off channel=0 note=75 velocity=64 time=27
note_on channel=0 note=73 velocity=80 time=0
note_off channel=0 note=73 velocity=64 time=648
note_on channel=0 note=66 velocity=80 time=72
note_off channel=0 note=66 velocity=64 time=108
note_on channel=0 note=73 velocity=80 time=12
note_on channel=0 note=70 velocity=80 time=0
note_on channel=0 note=68 velocity=80 time=0
note_off channel=0 note=73 velocity=64 time=216
note_off channel=0 note=70 velocity=64 time=0
note_off channel=0 note=68 velocity=64 time=0
note_on channel=0 note=85 velocity=80 time=24
note_on channel=0 note=82 velocity=80 time=0
note_on channel=0 note=80 velocity=80 time=0
note_off channel=0 note=85 velocity=64 time=216
note_off channel=0 note=82 velocity=64 time=0
note_off channel=0 note=80 velocity=64 time=0
note_on channel=0 note=85 velocity=80 time=24
note_on channel=0 note=82 velocity=80 time=0
note_on channel=0 note=80 velocity=80 time=0
note_off channel=0 note=85 velocity=64 time=108
note_off channel=0 note=82 velocity=64 time=0
note_off channel=0 note=80 velocity=64 time=0
note_on channel=0 note=97 velocity=80 time=12
note_off channel=0 note=97 velocity=64 time=912
note_on channel=0 note=63 velocity=80 time=48
note_off channel=0 note=63 velocity=64 time=72
note_on channel=0 note=68 velocity=80 time=8
note_off channel=0 note=68 velocity=64 time=72
note_on channel=0 note=73 velocity=80 time=8
note_off channel=0 note=73 velocity=64 time=72
note_on channel=0 note=80 velocity=80 time=8
note_off channel=0 note=80 velocity=64 time=72
note_on channel=0 note=85 velocity=80 time=8
note_off channel=0 note=85 velocity=64 time=72
note_on channel=0 note=87 velocity=80 time=8
note_off channel=0 note=87 velocity=64 time=72
note_on channel=0 note=92 velocity=80 time=8
note_off channel=0 note=92 velocity=64 time=864
note_on channel=0 note=75 velocity=80 time=15
note_on channel=0 note=73 velocity=80 time=27
note_on channel=0 note=72 velocity=80 time=27
note_on channel=0 note=68 velocity=80 time=27
note_off channel=0 note=75 velocity=64 time=351
note_off channel=0 note=73 velocity=64 time=27
note_off channel=0 note=72 velocity=64 time=27
note_off channel=0 note=68 velocity=64 time=243
note_on channel=0 note=68 velocity=80 time=72
note_off channel=0 note=68 velocity=64 time=27
note_on channel=0 note=69 velocity=80 time=3
note_off channel=0 note=69 velocity=64 time=27
note_on channel=0 note=68 velocity=80 time=3
note_off channel=0 note=68 velocity=64 time=378
note_on channel=0 note=65 velocity=80 time=42
note_off channel=0 note=65 velocity=64 time=648
control_change channel=0 control=7 value=60 time=62
note_on channel=0 note=68 velocity=80 time=10
note_off channel=0 note=68 velocity=64 time=54
note_on channel=0 note=68 velocity=80 time=6
note_off channel=0 note=68 velocity=64 time=27
note_on channel=0 note=69 velocity=80 time=3
note_off channel=0 note=69 velocity=64 time=27
note_on channel=0 note=68 velocity=80 time=3
note_off channel=0 note=68 velocity=64 time=1572
<meta message end_of_track time=228>
