<meta message track_name name='Piano' time=0>
<meta message instrument_name name='Microsoft GS ²¨±íÈí¼þºÏ³ÉÆ÷' time=0>
<meta message key_signature key='D' time=0>
program_change channel=0 program=0 time=0
control_change channel=0 control=10 value=64 time=0
control_change channel=0 control=64 value=77 time=10
note_on channel=0 note=78 velocity=80 time=470
note_on channel=0 note=69 velocity=80 time=0
note_off channel=0 note=78 velocity=64 time=1176
note_off channel=0 note=69 velocity=64 time=0
note_on channel=0 note=81 velocity=80 time=24
control_change channel=0 control=64 value=0 time=211
note_off channel=0 note=81 velocity=64 time=5
control_change channel=0 control=64 value=81 time=24
note_on channel=0 note=73 velocity=80 time=0
note_off channel=0 note=73 velocity=64 time=864
note_on channel=0 note=74 velocity=80 time=96
note_off channel=0 note=74 velocity=64 time=648
note_on channel=0 note=76 velocity=80 time=72
note_on channel=0 note=67 velocity=80 time=0
control_change channel=0 control=64 value=0 time=211
control_change channel=0 control=64 value=84 time=19
note_off channel=0 note=76 velocity=64 time=226
note_off channel=0 note=67 velocity=64 time=0
note_on channel=0 note=78 velocity=80 time=24
note_off channel=0 note=78 velocity=64 time=648
note_on channel=0 note=81 velocity=80 time=72
note_on channel=0 note=74 velocity=80 time=0
note_off channel=0 note=74 velocity=64 time=432
note_off channel=0 note=81 velocity=64 time=216
note_on channel=0 note=86 velocity=80 time=72
control_change channel=0 control=64 value=0 time=211
note_off channel=0 note=86 velocity=64 time=5
control_change channel=0 control=64 value=78 time=14
note_on channel=0 note=85 velocity=80 time=10
note_on channel=0 note=76 velocity=80 time=0
note_off channel=0 note=85 velocity=64 time=864
note_off channel=0 note=76 velocity=64 time=0
note_on channel=0 note=83 velocity=80 time=96
note_on channel=0 note=74 velocity=80 time=0
control_change channel=0 control=64 value=0 time=941
control_change channel=0 control=64 value=81 time=29
note_off channel=0 note=83 velocity=64 time=206
note_off channel=0 note=74 velocity=64 time=0
note_on channel=0 note=79 velocity=80 time=24
note_on channel=0 note=71 velocity=80 time=0
note_off channel=0 note=79 velocity=64 time=216
note_off channel=0 note=71 velocity=64 time=0
note_on channel=0 note=79 velocity=80 time=24
note_on channel=0 note=71 velocity=80 time=0
note_off channel=0 note=79 velocity=64 time=216
note_off channel=0 note=71 velocity=64 time=0
note_on channel=0 note=78 velocity=80 time=24
note_on channel=0 note=71 velocity=80 time=150
note_on channel=0 note=73 velocity=80 time=30
note_on channel=0 note=79 velocity=80 time=30
control_change channel=0 control=64 value=1 time=1
note_off channel=0 note=78 velocity=64 time=5
control_change channel=0 control=64 value=79 time=14
note_off channel=0 note=71 velocity=64 time=568
note_off channel=0 note=73 velocity=64 time=30
note_off channel=0 note=79 velocity=64 time=30
note_on channel=0 note=83 velocity=80 time=102
note_on channel=0 note=73 velocity=80 time=150
note_on channel=0 note=76 velocity=80 time=30
control_change channel=0 control=64 value=1 time=22
note_on channel=0 note=81 velocity=80 time=8
note_off channel=0 note=83 velocity=64 time=6
control_change channel=0 control=64 value=83 time=14
note_off channel=0 note=73 velocity=64 time=136
note_off channel=0 note=76 velocity=64 time=30
note_off channel=0 note=81 velocity=64 time=30
note_on channel=0 note=81 velocity=80 time=54
note_on channel=0 note=73 velocity=80 time=0
note_off channel=0 note=81 velocity=64 time=216
note_off channel=0 note=73 velocity=64 time=0
note_on channel=0 note=81 velocity=80 time=24
note_on channel=0 note=73 velocity=80 time=0
note_off channel=0 note=81 velocity=64 time=216
note_off channel=0 note=73 velocity=64 time=0
note_on channel=0 note=79 velocity=80 time=24
note_on channel=0 note=73 velocity=80 time=0
note_on channel=0 note=71 velocity=80 time=150
note_on channel=0 note=75 velocity=80 time=30
note_on channel=0 note=78 velocity=80 time=30
note_off channel=0 note=79 velocity=64 time=6
note_off channel=0 note=73 velocity=64 time=0
control_change channel=0 control=64 value=0 time=34
control_change channel=0 control=64 value=82 time=9
note_off channel=0 note=75 velocity=64 time=353
note_off channel=0 note=71 velocity=64 time=186
note_off channel=0 note=78 velocity=64 time=60
note_on channel=0 note=71 velocity=80 time=102
note_on channel=0 note=71 velocity=80 time=150
note_on channel=0 note=74 velocity=80 time=30
note_on channel=0 note=81 velocity=80 time=30
note_off channel=0 note=71 velocity=64 time=6
control_change channel=0 control=64 value=0 time=5
control_change channel=0 control=64 value=79 time=38
note_off channel=0 note=71 velocity=64 time=107
note_off channel=0 note=74 velocity=64 time=30
note_off channel=0 note=81 velocity=64 time=30
note_on channel=0 note=79 velocity=80 time=54
note_on channel=0 note=71 velocity=80 time=0
note_off channel=0 note=79 velocity=64 time=216
note_off channel=0 note=71 velocity=64 time=0
note_on channel=0 note=79 velocity=80 time=24
note_on channel=0 note=71 velocity=80 time=0
note_off channel=0 note=79 velocity=64 time=216
note_off channel=0 note=71 velocity=64 time=0
note_on channel=0 note=78 velocity=80 time=24
note_off channel=0 note=78 velocity=64 time=216
note_on channel=0 note=74 velocity=80 time=24
note_off channel=0 note=74 velocity=64 time=648
note_on channel=0 note=71 velocity=80 time=72
control_change channel=0 control=64 value=0 time=211
note_off channel=0 note=71 velocity=64 time=5
control_change channel=0 control=64 value=85 time=24
note_on channel=0 note=57 velocity=64 time=0
note_on channel=0 note=64 velocity=64 time=0
note_on channel=0 note=67 velocity=64 time=0
note_on channel=0 note=69 velocity=64 time=0
note_off channel=0 note=57 velocity=64 time=864
note_off channel=0 note=64 velocity=64 time=0
note_off channel=0 note=67 velocity=64 time=0
note_off channel=0 note=69 velocity=64 time=0
note_on channel=0 note=73 velocity=80 time=6
note_on channel=0 note=81 velocity=80 time=22
note_on channel=0 note=88 velocity=80 time=23
note_on channel=0 note=93 velocity=80 time=22
note_off channel=0 note=73 velocity=64 time=797
note_off channel=0 note=81 velocity=64 time=22
note_off channel=0 note=88 velocity=64 time=23
note_off channel=0 note=93 velocity=64 time=22
control_change channel=0 control=64 value=0 time=109
control_change channel=0 control=64 value=85 time=20
note_on channel=0 note=69 velocity=80 time=230
note_off channel=0 note=69 velocity=64 time=216
note_on channel=0 note=74 velocity=80 time=24
note_off channel=0 note=74 velocity=64 time=216
note_on channel=0 note=81 velocity=80 time=24
note_off channel=0 note=81 velocity=64 time=216
note_on channel=0 note=81 velocity=80 time=24
note_off channel=0 note=81 velocity=64 time=648
note_on channel=0 note=81 velocity=80 time=72
note_off channel=0 note=81 velocity=64 time=216
control_change channel=0 control=64 value=0 time=5
note_on channel=0 note=81 velocity=80 time=19
control_change channel=0 control=64 value=84 time=10
note_off channel=0 note=81 velocity=64 time=206
note_on channel=0 note=83 velocity=80 time=24
note_off channel=0 note=83 velocity=64 time=324
note_on channel=0 note=79 velocity=80 time=36
note_off channel=0 note=79 velocity=64 time=216
note_on channel=0 note=78 velocity=80 time=24
note_off channel=0 note=78 velocity=64 time=108
note_on channel=0 note=79 velocity=80 time=12
control_change channel=0 control=64 value=0 time=941
control_change channel=0 control=64 value=84 time=48
note_off channel=0 note=79 velocity=64 time=187
note_on channel=0 note=76 velocity=80 time=24
note_off channel=0 note=76 velocity=64 time=216
note_on channel=0 note=76 velocity=80 time=24
note_off channel=0 note=76 velocity=64 time=216
note_on channel=0 note=78 velocity=80 time=24
note_off channel=0 note=78 velocity=64 time=216
note_on channel=0 note=79 velocity=80 time=24
note_off channel=0 note=79 velocity=64 time=216
note_on channel=0 note=85 velocity=80 time=24
note_off channel=0 note=85 velocity=64 time=432
note_on channel=0 note=76 velocity=80 time=48
note_on channel=0 note=69 velocity=80 time=150
note_on channel=0 note=76 velocity=80 time=30
note_on channel=0 note=79 velocity=80 time=30
note_off channel=0 note=76 velocity=64 time=6
control_change channel=0 control=64 value=0 time=14
control_change channel=0 control=64 value=85 time=10
note_off channel=0 note=69 velocity=64 time=234
note_off channel=0 note=76 velocity=64 time=30
note_off channel=0 note=79 velocity=64 time=30
note_on channel=0 note=81 velocity=80 time=66
note_off channel=0 note=81 velocity=64 time=216
note_on channel=0 note=78 velocity=80 time=24
note_off channel=0 note=78 velocity=64 time=216
note_on channel=0 note=76 velocity=80 time=24
note_off channel=0 note=76 velocity=64 time=108
control_change channel=0 control=64 value=0 time=2
note_on channel=0 note=78 velocity=80 time=10
control_change channel=0 control=64 value=84 time=19
note_off channel=0 note=78 velocity=64 time=197
note_on channel=0 note=69 velocity=80 time=24
note_off channel=0 note=69 velocity=64 time=216
note_on channel=0 note=76 velocity=80 time=24
note_off channel=0 note=76 velocity=64 time=216
note_on channel=0 note=73 velocity=80 time=24
control_change channel=0 control=64 value=0 time=202
control_change channel=0 control=64 value=83 time=28
note_off channel=0 note=73 velocity=64 time=226
note_on channel=0 note=74 velocity=80 time=24
note_off channel=0 note=74 velocity=64 time=216
note_on channel=0 note=74 velocity=80 time=24
note_off channel=0 note=74 velocity=64 time=216
note_on channel=0 note=76 velocity=80 time=24
note_off channel=0 note=76 velocity=64 time=216
note_on channel=0 note=78 velocity=80 time=24
note_off channel=0 note=78 velocity=64 time=648
note_on channel=0 note=81 velocity=80 time=72
note_off channel=0 note=81 velocity=64 time=108
note_on channel=0 note=86 velocity=80 time=12
control_change channel=0 control=64 value=1 time=91
note_off channel=0 note=86 velocity=64 time=17
control_change channel=0 control=64 value=81 time=12
note_on channel=0 note=85 velocity=80 time=0
note_off channel=0 note=85 velocity=64 time=324
note_on channel=0 note=86 velocity=80 time=36
note_off channel=0 note=86 velocity=64 time=324
note_on channel=0 note=83 velocity=80 time=36
note_off channel=0 note=83 velocity=64 time=216
note_on channel=0 note=95 velocity=80 time=24
note_off channel=0 note=95 velocity=64 time=648
note_on channel=0 note=74 velocity=80 time=72
note_off channel=0 note=74 velocity=64 time=108
note_on channel=0 note=76 velocity=80 time=12
note_off channel=0 note=76 velocity=64 time=108
control_change channel=0 control=64 value=0 time=2
note_on channel=0 note=78 velocity=80 time=10
control_change channel=0 control=64 value=81 time=10
note_off channel=0 note=78 velocity=64 time=206
note_on channel=0 note=74 velocity=80 time=24
note_off channel=0 note=74 velocity=64 time=216
note_on channel=0 note=81 velocity=80 time=24
note_off channel=0 note=81 velocity=64 time=216
note_on channel=0 note=78 velocity=80 time=24
note_off channel=0 note=78 velocity=64 time=216
note_on channel=0 note=86 velocity=80 time=24
note_off channel=0 note=86 velocity=64 time=648
note_on channel=0 note=78 velocity=80 time=72
note_on channel=0 note=78 velocity=80 time=159
note_off channel=0 note=78 velocity=64 time=27
note_on channel=0 note=79 velocity=80 time=0
note_off channel=0 note=79 velocity=64 time=27
note_on channel=0 note=78 velocity=80 time=0
note_off channel=0 note=78 velocity=64 time=3
control_change channel=0 control=64 value=0 time=5
note_off channel=0 note=78 velocity=64 time=19
note_on channel=0 note=76 velocity=80 time=0
control_change channel=0 control=64 value=82 time=19
note_off channel=0 note=76 velocity=64 time=629
note_on channel=0 note=74 velocity=80 time=72
note_off channel=0 note=74 velocity=64 time=216
note_on channel=0 note=73 velocity=80 time=24
note_off channel=0 note=73 velocity=64 time=432
note_on channel=0 note=71 velocity=80 time=48
control_change channel=0 control=64 value=1 time=451
control_change channel=0 control=64 value=88 time=29
note_off channel=0 note=71 velocity=64 time=216
note_on channel=0 note=69 velocity=80 time=24
note_off channel=0 note=69 velocity=64 time=216
note_on channel=0 note=74 velocity=80 time=24
note_off channel=0 note=74 velocity=64 time=216
note_on channel=0 note=81 velocity=80 time=24
note_off channel=0 note=81 velocity=64 time=216
note_on channel=0 note=81 velocity=80 time=24
note_off channel=0 note=81 velocity=64 time=648
note_on channel=0 note=81 velocity=80 time=72
control_change channel=0 control=64 value=0 time=202
note_off channel=0 note=81 velocity=64 time=14
control_change channel=0 control=64 value=85 time=14
note_on channel=0 note=81 velocity=80 time=10
note_off channel=0 note=81 velocity=64 time=324
note_on channel=0 note=83 velocity=80 time=36
note_off channel=0 note=83 velocity=64 time=216
note_on channel=0 note=79 velocity=80 time=24
note_off channel=0 note=79 velocity=64 time=216
note_on channel=0 note=78 velocity=80 time=24
note_off channel=0 note=78 velocity=64 time=108
note_on channel=0 note=79 velocity=80 time=12
control_change channel=0 control=64 value=0 time=912
control_change channel=0 control=7 value=90 time=28
control_change channel=0 control=64 value=87 time=1
control_change channel=0 control=7 value=91 time=127
note_off channel=0 note=79 velocity=64 time=108
control_change channel=0 control=7 value=93 time=20
note_on channel=0 note=76 velocity=80 time=4
control_change channel=0 control=7 value=94 time=125
note_off channel=0 note=76 velocity=64 time=91
note_on channel=0 note=76 velocity=80 time=24
control_change channel=0 control=7 value=96 time=13
note_off channel=0 note=76 velocity=64 time=203
note_on channel=0 note=78 velocity=80 time=24
control_change channel=0 control=7 value=97 time=30
control_change channel=0 control=7 value=99 time=128
note_off channel=0 note=78 velocity=64 time=58
note_on channel=0 note=79 velocity=80 time=24
control_change channel=0 control=7 value=100 time=46
control_change channel=0 control=7 value=102 time=129
note_off channel=0 note=79 velocity=64 time=149
note_on channel=0 note=85 velocity=80 time=36
control_change channel=0 control=7 value=103 time=71
control_change channel=0 control=7 value=105 time=129
note_off channel=0 note=85 velocity=64 time=16
note_on channel=0 note=76 velocity=80 time=24
control_change channel=0 control=7 value=106 time=88
control_change channel=0 control=7 value=108 time=128
note_on channel=0 note=69 velocity=64 time=54
note_on channel=0 note=74 velocity=64 time=30
note_off channel=0 note=76 velocity=64 time=24
note_on channel=0 note=79 velocity=64 time=6
control_change channel=0 control=64 value=1 time=20
control_change channel=0 control=64 value=86 time=29
control_change channel=0 control=7 value=109 time=94
note_off channel=0 note=74 velocity=64 time=43
note_off channel=0 note=69 velocity=64 time=78
control_change channel=0 control=7 value=111 time=7
note_off channel=0 note=79 velocity=64 time=53
note_on channel=0 note=81 velocity=80 time=66
control_change channel=0 control=7 value=113 time=10
control_change channel=0 control=7 value=115 time=128
note_off channel=0 note=81 velocity=64 time=78
note_on channel=0 note=78 velocity=80 time=24
control_change channel=0 control=7 value=116 time=155
note_off channel=0 note=78 velocity=64 time=61
note_on channel=0 note=76 velocity=80 time=24
note_on channel=0 note=69 velocity=64 time=30
control_change channel=0 control=7 value=118 time=13
note_on channel=0 note=73 velocity=64 time=17
note_on channel=0 note=78 velocity=64 time=30
note_off channel=0 note=76 velocity=64 time=18
control_change channel=0 control=7 value=119 time=63
note_off channel=0 note=69 velocity=64 time=75
note_off channel=0 note=73 velocity=64 time=30
control_change channel=0 control=7 value=121 time=24
note_off channel=0 note=78 velocity=64 time=6
note_on channel=0 note=69 velocity=80 time=54
note_on channel=0 note=66 velocity=64 time=150
note_on channel=0 note=70 velocity=64 time=30
control_change channel=0 control=7 value=122 time=16
note_on channel=0 note=76 velocity=64 time=14
note_off channel=0 note=69 velocity=64 time=6
control_change channel=0 control=7 value=124 time=109
note_off channel=0 note=66 velocity=64 time=41
note_off channel=0 note=70 velocity=64 time=30
note_off channel=0 note=76 velocity=64 time=30
control_change channel=0 control=7 value=125 time=27
note_on channel=0 note=73 velocity=80 time=27
control_change channel=0 control=7 value=127 time=101
control_change channel=0 control=64 value=0 time=129
control_change channel=0 control=64 value=85 time=20
note_off channel=0 note=73 velocity=64 time=206
note_on channel=0 note=74 velocity=80 time=24
note_off channel=0 note=74 velocity=64 time=216
note_on channel=0 note=74 velocity=80 time=24
note_off channel=0 note=74 velocity=64 time=216
note_on channel=0 note=76 velocity=80 time=24
note_off channel=0 note=76 velocity=64 time=216
note_on channel=0 note=78 velocity=80 time=24
note_off channel=0 note=78 velocity=64 time=216
note_on channel=0 note=74 velocity=80 time=24
note_off channel=0 note=74 velocity=64 time=324
note_on channel=0 note=81 velocity=80 time=36
note_off channel=0 note=81 velocity=64 time=216
note_on channel=0 note=86 velocity=80 time=24
note_on channel=0 note=76 velocity=80 time=30
note_on channel=0 note=80 velocity=80 time=30
note_on channel=0 note=85 velocity=80 time=30
control_change channel=0 control=64 value=0 time=11
note_off channel=0 note=86 velocity=64 time=7
control_change channel=0 control=64 value=86 time=22
note_off channel=0 note=80 velocity=64 time=146
note_off channel=0 note=76 velocity=64 time=78
note_off channel=0 note=85 velocity=64 time=60
note_on channel=0 note=86 velocity=80 time=66
note_on channel=0 note=76 velocity=80 time=0
note_off channel=0 note=86 velocity=64 time=324
note_off channel=0 note=76 velocity=64 time=0
note_on channel=0 note=83 velocity=80 time=36
note_on channel=0 note=88 velocity=80 time=150
note_on channel=0 note=95 velocity=80 time=45
note_off channel=0 note=83 velocity=64 time=21
note_off channel=0 note=88 velocity=64 time=582
note_off channel=0 note=95 velocity=64 time=45
note_on channel=0 note=74 velocity=80 time=117
note_off channel=0 note=74 velocity=64 time=108
note_on channel=0 note=76 velocity=80 time=12
control_change channel=0 control=64 value=0 time=91
note_off channel=0 note=76 velocity=64 time=17
control_change channel=0 control=64 value=85 time=2
control_change channel=0 control=7 value=90 time=0
note_on channel=0 note=78 velocity=80 time=10
note_on channel=0 note=74 velocity=80 time=0
note_off channel=0 note=78 velocity=64 time=216
note_off channel=0 note=74 velocity=64 time=0
note_on channel=0 note=81 velocity=80 time=24
note_off channel=0 note=81 velocity=64 time=216
note_on channel=0 note=81 velocity=80 time=24
note_off channel=0 note=81 velocity=64 time=216
note_on channel=0 note=78 velocity=80 time=24
note_off channel=0 note=78 velocity=64 time=216
note_on channel=0 note=76 velocity=80 time=24
note_on channel=0 note=73 velocity=80 time=0
note_off channel=0 note=76 velocity=64 time=324
note_off channel=0 note=73 velocity=64 time=0
note_on channel=0 note=74 velocity=80 time=36
note_on channel=0 note=66 velocity=80 time=0
note_off channel=0 note=74 velocity=64 time=324
note_off channel=0 note=66 velocity=64 time=0
note_on channel=0 note=73 velocity=80 time=36
note_on channel=0 note=64 velocity=80 time=0
control_change channel=0 control=64 value=0 time=211
note_off channel=0 note=73 velocity=64 time=5
note_off channel=0 note=64 velocity=64 time=0
control_change channel=0 control=64 value=85 time=24
note_on channel=0 note=64 velocity=80 time=0
note_on channel=0 note=73 velocity=80 time=0
note_off channel=0 note=64 velocity=64 time=324
note_off channel=0 note=73 velocity=64 time=0
note_on channel=0 note=66 velocity=80 time=36
note_on channel=0 note=74 velocity=80 time=0
control_change channel=0 control=7 value=100 time=1070
control_change channel=0 control=7 value=101 time=114
control_change channel=0 control=7 value=102 time=57
control_change channel=0 control=7 value=103 time=114
control_change channel=0 control=7 value=104 time=57
note_off channel=0 note=66 velocity=64 time=4
note_off channel=0 note=74 velocity=64 time=0
control_change channel=0 control=64 value=0 time=115
note_on channel=0 note=60 velocity=80 time=29
note_on channel=0 note=64 velocity=80 time=0
control_change channel=0 control=64 value=83 time=10
control_change channel=0 control=7 value=105 time=14
control_change channel=0 control=7 value=106 time=57
control_change channel=0 control=7 value=107 time=57
control_change channel=0 control=7 value=108 time=57
control_change channel=0 control=7 value=109 time=57
control_change channel=0 control=7 value=110 time=172
note_off channel=0 note=60 velocity=64 time=8
note_off channel=0 note=64 velocity=64 time=0
note_on channel=0 note=62 velocity=80 time=48
note_on channel=0 note=66 velocity=80 time=0
control_change channel=0 control=7 value=111 time=1
control_change channel=0 control=7 value=112 time=114
control_change channel=0 control=7 value=113 time=57
control_change channel=0 control=7 value=114 time=172
control_change channel=0 control=7 value=115 time=57
note_off channel=0 note=62 velocity=64 time=31
note_off channel=0 note=66 velocity=64 time=0
control_change channel=0 control=7 value=116 time=26
note_on channel=0 note=64 velocity=80 time=22
note_on channel=0 note=67 velocity=80 time=0
control_change channel=0 control=7 value=117 time=35
control_change channel=0 control=7 value=118 time=57
note_off channel=0 note=64 velocity=64 time=16
note_off channel=0 note=67 velocity=64 time=0
note_on channel=0 note=66 velocity=80 time=12
note_off channel=0 note=66 velocity=64 time=108
note_on channel=0 note=67 velocity=80 time=12
control_change channel=0 control=7 value=119 time=24
control_change channel=0 control=7 value=120 time=57
note_off channel=0 note=67 velocity=64 time=27
note_on channel=0 note=69 velocity=80 time=12
control_change channel=0 control=7 value=121 time=75
note_off channel=0 note=69 velocity=64 time=33
note_on channel=0 note=71 velocity=80 time=12
control_change channel=0 control=7 value=122 time=12
note_off channel=0 note=71 velocity=64 time=69
note_on channel=0 note=72 velocity=80 time=9
note_off channel=0 note=72 velocity=64 time=81
note_on channel=0 note=74 velocity=80 time=9
control_change channel=0 control=7 value=123 time=4
note_off channel=0 note=74 velocity=64 time=50
note_on channel=0 note=76 velocity=80 time=6
control_change channel=0 control=7 value=124 time=1
note_off channel=0 note=76 velocity=64 time=53
control_change channel=0 control=7 value=125 time=4
note_on channel=0 note=78 velocity=80 time=2
note_off channel=0 note=78 velocity=64 time=54
control_change channel=0 control=7 value=126 time=1
note_on channel=0 note=79 velocity=80 time=5
control_change channel=0 control=7 value=127 time=52
note_off channel=0 note=79 velocity=64 time=2
note_on channel=0 note=81 velocity=80 time=6
control_change channel=0 control=64 value=0 time=31
note_off channel=0 note=81 velocity=64 time=23
note_on channel=0 note=83 velocity=80 time=6
control_change channel=0 control=64 value=85 time=19
note_off channel=0 note=83 velocity=64 time=305
note_on channel=0 note=83 velocity=80 time=36
note_on channel=0 note=74 velocity=80 time=0
note_off channel=0 note=83 velocity=64 time=216
note_off channel=0 note=74 velocity=64 time=0
note_on channel=0 note=83 velocity=80 time=24
note_on channel=0 note=74 velocity=80 time=0
note_off channel=0 note=83 velocity=64 time=216
note_off channel=0 note=74 velocity=64 time=0
note_on channel=0 note=78 velocity=80 time=24
note_off channel=0 note=78 velocity=64 time=108
control_change channel=0 control=64 value=0 time=2
note_on channel=0 note=76 velocity=80 time=10
note_on channel=0 note=73 velocity=80 time=0
control_change channel=0 control=64 value=86 time=10
note_off channel=0 note=76 velocity=64 time=206
note_off channel=0 note=73 velocity=64 time=0
note_on channel=0 note=76 velocity=80 time=24
note_on channel=0 note=73 velocity=80 time=0
note_off channel=0 note=76 velocity=64 time=324
note_off channel=0 note=73 velocity=64 time=0
note_on channel=0 note=78 velocity=80 time=36
note_off channel=0 note=78 velocity=64 time=216
note_on channel=0 note=79 velocity=80 time=24
note_on channel=0 note=73 velocity=80 time=30
note_on channel=0 note=76 velocity=80 time=30
control_change channel=0 control=64 value=1 time=12
note_on channel=0 note=81 velocity=80 time=18
note_off channel=0 note=79 velocity=64 time=18
control_change channel=0 control=64 value=83 time=2
note_off channel=0 note=73 velocity=64 time=136
note_off channel=0 note=76 velocity=64 time=30
note_off channel=0 note=81 velocity=64 time=30
note_on channel=0 note=81 velocity=80 time=54
note_on channel=0 note=73 velocity=80 time=0
note_off channel=0 note=81 velocity=64 time=216
note_off channel=0 note=73 velocity=64 time=0
note_on channel=0 note=81 velocity=80 time=24
note_on channel=0 note=73 velocity=80 time=0
note_off channel=0 note=81 velocity=64 time=162
note_off channel=0 note=73 velocity=64 time=0
note_on channel=0 note=73 velocity=80 time=18
note_off channel=0 note=73 velocity=64 time=162
note_on channel=0 note=76 velocity=80 time=18
control_change channel=0 control=64 value=1 time=72
control_change channel=0 control=64 value=81 time=19
note_off channel=0 note=76 velocity=64 time=17
note_on channel=0 note=74 velocity=80 time=12
note_on channel=0 note=69 velocity=80 time=0
note_off channel=0 note=74 velocity=64 time=432
note_off channel=0 note=69 velocity=64 time=0
note_on channel=0 note=73 velocity=80 time=48
note_off channel=0 note=73 velocity=64 time=108
note_on channel=0 note=74 velocity=80 time=12
note_off channel=0 note=74 velocity=64 time=108
note_on channel=0 note=78 velocity=80 time=12
note_off channel=0 note=78 velocity=64 time=108
note_on channel=0 note=81 velocity=80 time=12
note_on channel=0 note=74 velocity=80 time=30
note_on channel=0 note=81 velocity=80 time=45
control_change channel=0 control=64 value=0 time=7
control_change channel=0 control=64 value=0 time=9
note_off channel=0 note=81 velocity=64 time=17
control_change channel=0 control=64 value=87 time=12
note_off channel=0 note=74 velocity=64 time=126
note_off channel=0 note=81 velocity=64 time=45
note_on channel=0 note=79 velocity=80 time=69
note_on channel=0 note=71 velocity=80 time=0
note_off channel=0 note=79 velocity=64 time=108
note_off channel=0 note=71 velocity=64 time=0
note_on channel=0 note=79 velocity=80 time=12
note_on channel=0 note=71 velocity=80 time=0
note_off channel=0 note=79 velocity=64 time=216
note_off channel=0 note=71 velocity=64 time=0
note_on channel=0 note=74 velocity=80 time=24
note_on channel=0 note=71 velocity=80 time=0
note_off channel=0 note=74 velocity=64 time=324
note_off channel=0 note=71 velocity=64 time=0
control_change channel=0 control=64 value=0 time=26
note_on channel=0 note=72 velocity=80 time=10
control_change channel=0 control=64 value=83 time=10
note_off channel=0 note=72 velocity=64 time=206
note_on channel=0 note=73 velocity=80 time=24
note_on channel=0 note=73 velocity=80 time=150
note_on channel=0 note=79 velocity=80 time=30
note_on channel=0 note=83 velocity=80 time=30
note_off channel=0 note=73 velocity=64 time=6
note_off channel=0 note=73 velocity=64 time=150
note_off channel=0 note=79 velocity=64 time=30
note_off channel=0 note=83 velocity=64 time=138
note_on channel=0 note=81 velocity=80 time=66
note_on channel=0 note=73 velocity=80 time=30
note_on channel=0 note=78 velocity=80 time=30
note_on channel=0 note=81 velocity=80 time=30
control_change channel=0 control=64 value=0 time=1
note_off channel=0 note=81 velocity=64 time=17
control_change channel=0 control=64 value=84 time=2
note_off channel=0 note=73 velocity=64 time=136
note_off channel=0 note=78 velocity=64 time=138
note_off channel=0 note=81 velocity=64 time=30
note_on channel=0 note=62 velocity=80 time=66
note_on channel=0 note=64 velocity=80 time=0
note_on channel=0 note=69 velocity=80 time=0
note_off channel=0 note=62 velocity=64 time=432
note_off channel=0 note=64 velocity=64 time=0
note_off channel=0 note=69 velocity=64 time=0
note_on channel=0 note=81 velocity=80 time=48
note_on channel=0 note=76 velocity=80 time=0
control_change channel=0 control=64 value=0 time=91
control_change channel=0 control=64 value=85 time=19
note_off channel=0 note=81 velocity=64 time=106
note_off channel=0 note=76 velocity=64 time=0
note_on channel=0 note=88 velocity=80 time=24
note_off channel=0 note=88 velocity=64 time=108
note_on channel=0 note=93 velocity=80 time=12
note_off channel=0 note=93 velocity=64 time=108
note_on channel=0 note=90 velocity=80 time=12
note_off channel=0 note=90 velocity=64 time=108
note_on channel=0 note=86 velocity=80 time=12
note_on channel=0 note=74 velocity=80 time=390
note_on channel=0 note=78 velocity=80 time=30
note_off channel=0 note=86 velocity=64 time=12
note_on channel=0 note=83 velocity=80 time=18
control_change channel=0 control=64 value=0 time=1
control_change channel=0 control=64 value=85 time=19
note_off channel=0 note=74 velocity=64 time=244
note_off channel=0 note=78 velocity=64 time=30
note_off channel=0 note=83 velocity=64 time=30
note_on channel=0 note=83 velocity=80 time=66
note_on channel=0 note=74 velocity=80 time=0
note_off channel=0 note=83 velocity=64 time=216
note_off channel=0 note=74 velocity=64 time=0
note_on channel=0 note=83 velocity=80 time=24
note_on channel=0 note=74 velocity=80 time=0
note_off channel=0 note=83 velocity=64 time=216
note_off channel=0 note=74 velocity=64 time=0
note_on channel=0 note=83 velocity=80 time=24
note_on channel=0 note=74 velocity=80 time=0
control_change channel=0 control=64 value=1 time=91
note_off channel=0 note=83 velocity=64 time=17
note_off channel=0 note=74 velocity=64 time=0
note_on channel=0 note=83 velocity=80 time=12
note_on channel=0 note=74 velocity=80 time=0
control_change channel=0 control=64 value=85 time=10
note_off channel=0 note=83 velocity=64 time=206
note_off channel=0 note=74 velocity=64 time=0
note_on channel=0 note=85 velocity=80 time=24
note_on channel=0 note=76 velocity=80 time=0
note_off channel=0 note=85 velocity=64 time=324
note_off channel=0 note=76 velocity=64 time=0
note_on channel=0 note=85 velocity=80 time=36
note_on channel=0 note=76 velocity=80 time=0
note_off channel=0 note=85 velocity=64 time=216
note_off channel=0 note=76 velocity=64 time=0
note_on channel=0 note=83 velocity=80 time=24
note_on channel=0 note=74 velocity=80 time=0
control_change channel=0 control=64 value=0 time=82
note_off channel=0 note=83 velocity=64 time=26
note_off channel=0 note=74 velocity=64 time=0
control_change channel=0 control=64 value=85 time=2
note_on channel=0 note=81 velocity=80 time=10
note_on channel=0 note=73 velocity=80 time=0
note_off channel=0 note=81 velocity=64 time=216
note_off channel=0 note=73 velocity=64 time=0
note_on channel=0 note=81 velocity=80 time=24
note_on channel=0 note=73 velocity=80 time=0
control_change channel=0 control=64 value=0 time=202
note_off channel=0 note=81 velocity=64 time=14
note_off channel=0 note=73 velocity=64 time=0
control_change channel=0 control=64 value=84 time=5
note_on channel=0 note=73 velocity=80 time=19
note_off channel=0 note=73 velocity=64 time=162
note_on channel=0 note=78 velocity=80 time=18
note_off channel=0 note=78 velocity=64 time=162
note_on channel=0 note=88 velocity=80 time=18
note_on channel=0 note=78 velocity=80 time=30
note_on channel=0 note=88 velocity=80 time=45
control_change channel=0 control=64 value=0 time=26
note_off channel=0 note=88 velocity=64 time=7
control_change channel=0 control=64 value=83 time=12
note_off channel=0 note=78 velocity=64 time=18
note_on channel=0 note=78 velocity=80 time=12
note_off channel=0 note=88 velocity=64 time=33
note_on channel=0 note=86 velocity=80 time=12
note_off channel=0 note=78 velocity=64 time=63
note_off channel=0 note=86 velocity=64 time=45
note_on channel=0 note=85 velocity=80 time=57
note_off channel=0 note=85 velocity=64 time=108
note_on channel=0 note=86 velocity=80 time=12
note_off channel=0 note=86 velocity=64 time=216
note_on channel=0 note=78 velocity=80 time=24
note_off channel=0 note=78 velocity=64 time=216
note_on channel=0 note=81 velocity=80 time=24
note_on channel=0 note=71 velocity=80 time=30
note_on channel=0 note=74 velocity=80 time=30
note_on channel=0 note=81 velocity=80 time=30
control_change channel=0 control=64 value=0 time=11
note_off channel=0 note=81 velocity=64 time=7
control_change channel=0 control=64 value=88 time=22
note_off channel=0 note=71 velocity=64 time=116
note_off channel=0 note=74 velocity=64 time=30
note_off channel=0 note=81 velocity=64 time=30
note_on channel=0 note=83 velocity=80 time=54
note_off channel=0 note=83 velocity=64 time=108
note_on channel=0 note=74 velocity=80 time=12
note_off channel=0 note=74 velocity=64 time=324
note_on channel=0 note=71 velocity=80 time=36
note_on channel=0 note=67 velocity=80 time=150
note_on channel=0 note=71 velocity=80 time=30
note_on channel=0 note=74 velocity=80 time=30
note_off channel=0 note=71 velocity=64 time=6
control_change channel=0 control=64 value=1 time=5
control_change channel=0 control=64 value=82 time=9
note_off channel=0 note=67 velocity=64 time=136
note_off channel=0 note=71 velocity=64 time=30
note_off channel=0 note=74 velocity=64 time=30
note_on channel=0 note=76 velocity=80 time=54
note_off channel=0 note=76 velocity=64 time=216
note_on channel=0 note=78 velocity=80 time=24
note_off channel=0 note=78 velocity=64 time=216
note_on channel=0 note=79 velocity=80 time=24
note_on channel=0 note=74 velocity=80 time=0
note_on channel=0 note=71 velocity=80 time=0
note_on channel=0 note=69 velocity=80 time=150
note_on channel=0 note=74 velocity=80 time=18
note_on channel=0 note=76 velocity=80 time=18
note_on channel=0 note=79 velocity=80 time=18
control_change channel=0 control=64 value=0 time=7
note_off channel=0 note=79 velocity=64 time=5
note_off channel=0 note=74 velocity=64 time=0
note_off channel=0 note=71 velocity=64 time=0
note_on channel=0 note=81 velocity=80 time=6
control_change channel=0 control=64 value=85 time=18
note_off channel=0 note=69 velocity=64 time=234
note_off channel=0 note=74 velocity=64 time=18
note_off channel=0 note=76 velocity=64 time=18
note_off channel=0 note=79 velocity=64 time=18
note_off channel=0 note=81 velocity=64 time=18
note_on channel=0 note=76 velocity=80 time=54
note_on channel=0 note=74 velocity=80 time=0
note_off channel=0 note=76 velocity=64 time=462
note_off channel=0 note=74 velocity=64 time=0
note_on channel=0 note=93 velocity=80 time=48
note_off channel=0 note=93 velocity=64 time=27
note_on channel=0 note=88 velocity=80 time=3
note_off channel=0 note=88 velocity=64 time=27
note_on channel=0 note=86 velocity=80 time=3
note_off channel=0 note=86 velocity=64 time=27
note_on channel=0 note=81 velocity=80 time=3
note_off channel=0 note=81 velocity=64 time=432
note_on channel=0 note=74 velocity=80 time=48
note_on channel=0 note=69 velocity=80 time=0
note_off channel=0 note=74 velocity=64 time=432
note_off channel=0 note=69 velocity=64 time=0
note_on channel=0 note=73 velocity=80 time=48
note_on channel=0 note=64 velocity=80 time=0
note_off channel=0 note=73 velocity=64 time=432
note_off channel=0 note=64 velocity=64 time=0
note_on channel=0 note=62 velocity=80 time=48
note_on channel=0 note=71 velocity=80 time=0
control_change channel=0 control=64 value=0 time=442
control_change channel=0 control=64 value=85 time=19
note_off channel=0 note=62 velocity=64 time=235
note_off channel=0 note=71 velocity=64 time=0
note_on channel=0 note=69 velocity=80 time=24
note_off channel=0 note=69 velocity=64 time=216
note_on channel=0 note=74 velocity=80 time=24
note_off channel=0 note=74 velocity=64 time=216
note_on channel=0 note=81 velocity=80 time=24
note_off channel=0 note=81 velocity=64 time=216
note_on channel=0 note=81 velocity=80 time=24
note_off channel=0 note=81 velocity=64 time=648
note_on channel=0 note=81 velocity=80 time=72
control_change channel=0 control=64 value=1 time=211
note_off channel=0 note=81 velocity=64 time=5
control_change channel=0 control=64 value=84 time=24
note_on channel=0 note=81 velocity=80 time=0
note_off channel=0 note=81 velocity=64 time=324
note_on channel=0 note=83 velocity=80 time=36
note_off channel=0 note=83 velocity=64 time=216
note_on channel=0 note=79 velocity=80 time=24
note_off channel=0 note=79 velocity=64 time=216
note_on channel=0 note=78 velocity=80 time=24
note_off channel=0 note=78 velocity=64 time=108
note_on channel=0 note=79 velocity=80 time=12
control_change channel=0 control=64 value=1 time=941
control_change channel=0 control=64 value=85 time=29
note_off channel=0 note=79 velocity=64 time=206
note_on channel=0 note=76 velocity=80 time=24
note_off channel=0 note=76 velocity=64 time=216
note_on channel=0 note=76 velocity=80 time=24
note_off channel=0 note=76 velocity=64 time=216
note_on channel=0 note=78 velocity=80 time=24
note_off channel=0 note=78 velocity=64 time=216
note_on channel=0 note=79 velocity=80 time=24
note_off channel=0 note=79 velocity=64 time=324
note_on channel=0 note=85 velocity=80 time=36
note_off channel=0 note=85 velocity=64 time=324
note_on channel=0 note=76 velocity=80 time=36
note_on channel=0 note=69 velocity=80 time=150
note_on channel=0 note=76 velocity=80 time=30
note_on channel=0 note=79 velocity=80 time=30
control_change channel=0 control=64 value=1 time=1
note_off channel=0 note=76 velocity=64 time=5
control_change channel=0 control=64 value=82 time=34
note_off channel=0 note=69 velocity=64 time=224
note_off channel=0 note=76 velocity=64 time=30
note_off channel=0 note=79 velocity=64 time=30
note_on channel=0 note=81 velocity=80 time=66
note_off channel=0 note=81 velocity=64 time=216
note_on channel=0 note=78 velocity=80 time=24
note_off channel=0 note=78 velocity=64 time=216
note_on channel=0 note=76 velocity=80 time=24
note_on channel=0 note=69 velocity=80 time=30
note_on channel=0 note=73 velocity=80 time=30
note_on channel=0 note=78 velocity=80 time=30
note_off channel=0 note=76 velocity=64 time=18
control_change channel=0 control=64 value=0 time=2
control_change channel=0 control=64 value=82 time=20
note_off channel=0 note=69 velocity=64 time=116
note_off channel=0 note=73 velocity=64 time=30
note_off channel=0 note=78 velocity=64 time=30
note_on channel=0 note=69 velocity=80 time=54
note_on channel=0 note=66 velocity=80 time=150
note_on channel=0 note=70 velocity=80 time=30
control_change channel=0 control=64 value=0 time=22
note_on channel=0 note=76 velocity=80 time=8
note_off channel=0 note=69 velocity=64 time=6
control_change channel=0 control=64 value=80 time=14
note_off channel=0 note=66 velocity=64 time=136
note_off channel=0 note=70 velocity=64 time=30
note_off channel=0 note=76 velocity=64 time=30
note_on channel=0 note=73 velocity=80 time=54
control_change channel=0 control=64 value=1 time=221
control_change channel=0 control=64 value=83 time=19
note_off channel=0 note=73 velocity=64 time=216
note_on channel=0 note=74 velocity=80 time=24
note_off channel=0 note=74 velocity=64 time=216
note_on channel=0 note=74 velocity=80 time=24
note_off channel=0 note=74 velocity=64 time=216
note_on channel=0 note=76 velocity=80 time=24
note_off channel=0 note=76 velocity=64 time=216
note_on channel=0 note=78 velocity=80 time=24
note_off channel=0 note=78 velocity=64 time=324
note_on channel=0 note=74 velocity=80 time=36
note_off channel=0 note=74 velocity=64 time=324
note_on channel=0 note=81 velocity=80 time=36
note_off channel=0 note=81 velocity=64 time=108
note_on channel=0 note=86 velocity=80 time=12
note_on channel=0 note=76 velocity=80 time=30
note_on channel=0 note=85 velocity=80 time=45
note_off channel=0 note=86 velocity=64 time=33
control_change channel=0 control=64 value=0 time=2
control_change channel=0 control=64 value=83 time=20
note_off channel=0 note=76 velocity=64 time=116
note_off channel=0 note=85 velocity=64 time=45
note_on channel=0 note=86 velocity=80 time=69
note_off channel=0 note=86 velocity=64 time=432
note_on channel=0 note=83 velocity=80 time=48
note_on channel=0 note=88 velocity=80 time=150
note_on channel=0 note=95 velocity=80 time=45
note_off channel=0 note=83 velocity=64 time=21
note_off channel=0 note=88 velocity=64 time=582
note_off channel=0 note=95 velocity=64 time=45
note_on channel=0 note=74 velocity=80 time=117
note_off channel=0 note=74 velocity=64 time=108
note_on channel=0 note=76 velocity=80 time=12
control_change channel=0 control=64 value=0 time=101
note_off channel=0 note=76 velocity=64 time=7
note_on channel=0 note=78 velocity=80 time=12
control_change channel=0 control=64 value=83 time=10
note_off channel=0 note=78 velocity=64 time=206
note_on channel=0 note=81 velocity=80 time=24
note_off channel=0 note=81 velocity=64 time=216
note_on channel=0 note=81 velocity=80 time=24
note_off channel=0 note=81 velocity=64 time=216
note_on channel=0 note=74 velocity=80 time=24
control_change channel=0 control=64 value=0 time=211
note_off channel=0 note=74 velocity=64 time=5
control_change channel=0 control=64 value=83 time=5
note_on channel=0 note=76 velocity=80 time=19
note_off channel=0 note=76 velocity=64 time=378
note_on channel=0 note=74 velocity=80 time=42
note_off channel=0 note=74 velocity=64 time=27
note_on channel=0 note=76 velocity=80 time=3
note_off channel=0 note=76 velocity=64 time=27
note_on channel=0 note=74 velocity=80 time=3
note_off channel=0 note=74 velocity=64 time=216
note_on channel=0 note=73 velocity=80 time=24
control_change channel=0 control=64 value=0 time=202
note_off channel=0 note=73 velocity=64 time=14
<meta message key_signature key='F' time=24>
note_on channel=0 note=65 velocity=80 time=0
note_on channel=0 note=74 velocity=80 time=0
control_change channel=0 control=64 value=86 time=10
note_off channel=0 note=65 velocity=64 time=314
note_off channel=0 note=74 velocity=64 time=0
note_on channel=0 note=65 velocity=80 time=36
note_off channel=0 note=65 velocity=64 time=552
control_change channel=0 control=64 value=0 time=19
control_change channel=0 control=64 value=83 time=29
note_on channel=0 note=64 velocity=80 time=0
note_off channel=0 note=64 velocity=64 time=324
note_on channel=0 note=72 velocity=80 time=36
note_off channel=0 note=72 velocity=64 time=216
note_on channel=0 note=67 velocity=80 time=24
note_off channel=0 note=67 velocity=64 time=54
note_on channel=0 note=72 velocity=80 time=6
note_off channel=0 note=72 velocity=64 time=162
note_on channel=0 note=67 velocity=80 time=18
note_off channel=0 note=67 velocity=64 time=54
note_on channel=0 note=72 velocity=80 time=6
control_change channel=0 control=64 value=0 time=50
note_off channel=0 note=72 velocity=64 time=4
control_change channel=0 control=64 value=84 time=6
<meta message key_signature key='D' time=0>
note_on channel=0 note=64 velocity=80 time=0
note_off channel=0 note=64 velocity=64 time=324
note_on channel=0 note=64 velocity=80 time=36
note_on channel=0 note=66 velocity=80 time=0
note_on channel=0 note=69 velocity=80 time=0
note_off channel=0 note=64 velocity=64 time=216
note_off channel=0 note=66 velocity=64 time=108
note_off channel=0 note=69 velocity=64 time=0
note_on channel=0 note=81 velocity=80 time=36
note_on channel=0 note=74 velocity=80 time=0
note_off channel=0 note=81 velocity=64 time=324
note_off channel=0 note=74 velocity=64 time=0
note_on channel=0 note=93 velocity=80 time=36
note_on channel=0 note=90 velocity=80 time=0
note_off channel=0 note=93 velocity=64 time=756
note_off channel=0 note=90 velocity=64 time=0
control_change channel=0 control=64 value=1 time=65
control_change channel=0 control=64 value=83 time=19
<meta message key_signature key='F' time=0>
note_on channel=0 note=65 velocity=80 time=0
note_on channel=0 note=74 velocity=80 time=0
note_off channel=0 note=65 velocity=64 time=324
note_off channel=0 note=74 velocity=64 time=0
note_on channel=0 note=65 velocity=80 time=36
note_on channel=0 note=74 velocity=80 time=0
note_off channel=0 note=65 velocity=64 time=216
note_off channel=0 note=74 velocity=64 time=0
note_on channel=0 note=70 velocity=80 time=24
note_off channel=0 note=70 velocity=64 time=108
note_on channel=0 note=74 velocity=80 time=12
note_off channel=0 note=74 velocity=64 time=108
note_on channel=0 note=77 velocity=80 time=12
note_off channel=0 note=77 velocity=64 time=108
note_on channel=0 note=76 velocity=80 time=12
control_change channel=0 control=64 value=0 time=10
control_change channel=0 control=64 value=81 time=9
note_off channel=0 note=76 velocity=64 time=305
note_on channel=0 note=79 velocity=80 time=36
note_on channel=0 note=76 velocity=80 time=0
note_off channel=0 note=79 velocity=64 time=324
note_off channel=0 note=76 velocity=64 time=0
note_on channel=0 note=79 velocity=80 time=36
note_on channel=0 note=76 velocity=80 time=0
control_change channel=0 control=64 value=0 time=211
note_off channel=0 note=79 velocity=64 time=5
note_off channel=0 note=76 velocity=64 time=0
control_change channel=0 control=64 value=84 time=5
<meta message key_signature key='D' time=19>
note_on channel=0 note=79 velocity=80 time=0
note_on channel=0 note=76 velocity=80 time=0
note_off channel=0 note=79 velocity=64 time=324
note_off channel=0 note=76 velocity=64 time=0
note_on channel=0 note=81 velocity=80 time=36
note_on channel=0 note=78 velocity=80 time=0
note_on channel=0 note=74 velocity=80 time=0
note_off channel=0 note=81 velocity=64 time=432
note_off channel=0 note=78 velocity=64 time=0
note_off channel=0 note=74 velocity=64 time=0
note_on channel=0 note=81 velocity=80 time=48
note_on channel=0 note=74 velocity=80 time=0
note_off channel=0 note=81 velocity=64 time=216
note_off channel=0 note=74 velocity=64 time=0
note_on channel=0 note=86 velocity=80 time=24
note_on channel=0 note=81 velocity=80 time=0
note_off channel=0 note=86 velocity=64 time=108
note_off channel=0 note=81 velocity=64 time=0
note_on channel=0 note=86 velocity=80 time=12
note_on channel=0 note=81 velocity=80 time=0
note_off channel=0 note=86 velocity=64 time=216
note_off channel=0 note=81 velocity=64 time=0
note_on channel=0 note=86 velocity=80 time=24
note_on channel=0 note=81 velocity=80 time=0
note_off channel=0 note=86 velocity=64 time=108
note_off channel=0 note=81 velocity=64 time=0
note_on channel=0 note=90 velocity=80 time=12
note_off channel=0 note=90 velocity=64 time=108
note_on channel=0 note=93 velocity=80 time=12
note_off channel=0 note=93 velocity=64 time=216
control_change channel=0 control=64 value=0 time=5
<meta message key_signature key='F' time=19>
note_on channel=0 note=81 velocity=80 time=0
note_on channel=0 note=77 velocity=80 time=0
note_on channel=0 note=74 velocity=80 time=0
control_change channel=0 control=64 value=85 time=10
note_off channel=0 note=81 velocity=64 time=314
note_off channel=0 note=77 velocity=64 time=0
note_off channel=0 note=74 velocity=64 time=0
note_on channel=0 note=81 velocity=80 time=36
note_on channel=0 note=77 velocity=80 time=0
note_on channel=0 note=74 velocity=80 time=0
note_off channel=0 note=81 velocity=64 time=324
note_off channel=0 note=77 velocity=64 time=0
note_off channel=0 note=74 velocity=64 time=0
note_on channel=0 note=81 velocity=80 time=36
note_on channel=0 note=77 velocity=80 time=0
note_on channel=0 note=74 velocity=80 time=0
note_off channel=0 note=81 velocity=64 time=216
note_off channel=0 note=77 velocity=64 time=0
note_off channel=0 note=74 velocity=64 time=0
control_change channel=0 control=64 value=1 time=5
control_change channel=0 control=64 value=80 time=19
note_on channel=0 note=79 velocity=80 time=0
note_on channel=0 note=76 velocity=80 time=0
note_on channel=0 note=72 velocity=80 time=0
note_off channel=0 note=79 velocity=64 time=324
note_off channel=0 note=76 velocity=64 time=0
note_off channel=0 note=72 velocity=64 time=0
note_on channel=0 note=88 velocity=80 time=36
note_on channel=0 note=84 velocity=80 time=0
note_on channel=0 note=79 velocity=80 time=0
note_off channel=0 note=88 velocity=64 time=324
note_off channel=0 note=84 velocity=64 time=0
note_off channel=0 note=79 velocity=64 time=0
note_on channel=0 note=84 velocity=80 time=36
note_on channel=0 note=79 velocity=80 time=0
note_on channel=0 note=76 velocity=80 time=0
note_off channel=0 note=84 velocity=64 time=216
note_off channel=0 note=79 velocity=64 time=0
note_off channel=0 note=76 velocity=64 time=0
<meta message key_signature key='D' time=24>
note_on channel=0 note=79 velocity=80 time=0
note_on channel=0 note=74 velocity=80 time=0
control_change channel=0 control=64 value=0 time=10
control_change channel=0 control=64 value=85 time=19
note_off channel=0 note=79 velocity=64 time=295
note_off channel=0 note=74 velocity=64 time=0
note_on channel=0 note=81 velocity=80 time=36
note_on channel=0 note=74 velocity=80 time=0
note_off channel=0 note=81 velocity=64 time=324
note_off channel=0 note=74 velocity=64 time=0
note_on channel=0 note=81 velocity=80 time=36
note_on channel=0 note=79 velocity=80 time=0
note_on channel=0 note=78 velocity=80 time=0
note_off channel=0 note=81 velocity=64 time=216
note_off channel=0 note=79 velocity=64 time=0
note_off channel=0 note=78 velocity=64 time=0
note_on channel=0 note=78 velocity=80 time=24
note_on channel=0 note=74 velocity=80 time=0
control_change channel=0 control=7 value=100 time=470
control_change channel=0 control=7 value=101 time=114
control_change channel=0 control=7 value=102 time=57
control_change channel=0 control=7 value=103 time=114
control_change channel=0 control=7 value=104 time=57
note_off channel=0 note=78 velocity=64 time=52
note_off channel=0 note=74 velocity=64 time=0
control_change channel=0 control=64 value=0 time=77
note_on channel=0 note=57 velocity=80 time=19
note_on channel=0 note=60 velocity=80 time=0
note_on channel=0 note=64 velocity=80 time=0
control_change channel=0 control=64 value=86 time=10
control_change channel=0 control=7 value=105 time=14
control_change channel=0 control=7 value=106 time=57
control_change channel=0 control=7 value=107 time=57
control_change channel=0 control=7 value=108 time=57
control_change channel=0 control=7 value=109 time=57
control_change channel=0 control=7 value=110 time=172
note_off channel=0 note=57 velocity=64 time=8
note_off channel=0 note=60 velocity=64 time=0
note_off channel=0 note=64 velocity=64 time=0
note_on channel=0 note=62 velocity=80 time=48
note_on channel=0 note=67 velocity=80 time=0
control_change channel=0 control=7 value=111 time=1
control_change channel=0 control=7 value=112 time=114
control_change channel=0 control=7 value=113 time=57
control_change channel=0 control=7 value=114 time=172
control_change channel=0 control=7 value=115 time=57
note_off channel=0 note=62 velocity=64 time=31
note_off channel=0 note=67 velocity=64 time=0
control_change channel=0 control=7 value=116 time=26
note_on channel=0 note=64 velocity=80 time=22
note_on channel=0 note=67 velocity=80 time=0
control_change channel=0 control=7 value=117 time=35
control_change channel=0 control=7 value=118 time=57
note_off channel=0 note=64 velocity=64 time=16
note_off channel=0 note=67 velocity=64 time=0
note_on channel=0 note=60 velocity=80 time=12
note_on channel=0 note=64 velocity=80 time=0
note_off channel=0 note=60 velocity=64 time=108
note_off channel=0 note=64 velocity=64 time=0
note_on channel=0 note=62 velocity=80 time=12
note_on channel=0 note=66 velocity=80 time=0
control_change channel=0 control=7 value=119 time=24
control_change channel=0 control=7 value=120 time=57
note_off channel=0 note=62 velocity=64 time=27
note_off channel=0 note=66 velocity=64 time=0
note_on channel=0 note=64 velocity=80 time=12
note_on channel=0 note=67 velocity=80 time=0
control_change channel=0 control=7 value=121 time=75
note_off channel=0 note=64 velocity=64 time=33
note_off channel=0 note=67 velocity=64 time=0
note_on channel=0 note=69 velocity=80 time=12
control_change channel=0 control=7 value=122 time=12
note_off channel=0 note=69 velocity=64 time=42
note_on channel=0 note=71 velocity=80 time=6
note_off channel=0 note=71 velocity=64 time=54
note_on channel=0 note=72 velocity=80 time=6
note_off channel=0 note=72 velocity=64 time=54
note_on channel=0 note=74 velocity=80 time=6
control_change channel=0 control=7 value=123 time=4
note_off channel=0 note=74 velocity=64 time=50
note_on channel=0 note=76 velocity=80 time=6
control_change channel=0 control=7 value=124 time=1
note_off channel=0 note=76 velocity=64 time=53
control_change channel=0 control=7 value=125 time=4
note_on channel=0 note=78 velocity=80 time=2
note_off channel=0 note=78 velocity=64 time=54
control_change channel=0 control=7 value=126 time=1
note_on channel=0 note=79 velocity=80 time=5
control_change channel=0 control=7 value=127 time=52
note_off channel=0 note=79 velocity=64 time=2
note_on channel=0 note=81 velocity=80 time=6
control_change channel=0 control=64 value=1 time=41
note_off channel=0 note=81 velocity=64 time=13
note_on channel=0 note=83 velocity=80 time=6
control_change channel=0 control=64 value=82 time=19
note_off channel=0 note=83 velocity=64 time=305
note_on channel=0 note=83 velocity=80 time=36
note_on channel=0 note=78 velocity=80 time=0
note_on channel=0 note=74 velocity=80 time=0
note_off channel=0 note=83 velocity=64 time=216
note_off channel=0 note=78 velocity=64 time=0
note_off channel=0 note=74 velocity=64 time=0
note_on channel=0 note=83 velocity=80 time=24
note_on channel=0 note=74 velocity=80 time=0
note_off channel=0 note=83 velocity=64 time=216
note_off channel=0 note=74 velocity=64 time=0
note_on channel=0 note=78 velocity=80 time=24
control_change channel=0 control=64 value=0 time=91
note_off channel=0 note=78 velocity=64 time=17
control_change channel=0 control=64 value=83 time=2
note_on channel=0 note=76 velocity=80 time=10
note_on channel=0 note=73 velocity=80 time=0
note_on channel=0 note=69 velocity=80 time=0
note_off channel=0 note=76 velocity=64 time=324
note_off channel=0 note=73 velocity=64 time=0
note_off channel=0 note=69 velocity=64 time=0
note_on channel=0 note=76 velocity=80 time=36
note_on channel=0 note=73 velocity=80 time=0
note_on channel=0 note=69 velocity=80 time=0
note_off channel=0 note=76 velocity=64 time=216
note_off channel=0 note=73 velocity=64 time=0
note_off channel=0 note=69 velocity=64 time=0
note_on channel=0 note=78 velocity=80 time=24
note_off channel=0 note=78 velocity=64 time=216
note_on channel=0 note=79 velocity=80 time=24
note_on channel=0 note=73 velocity=80 time=30
note_on channel=0 note=76 velocity=80 time=30
note_on channel=0 note=81 velocity=80 time=30
control_change channel=0 control=64 value=0 time=1
note_off channel=0 note=79 velocity=64 time=17
control_change channel=0 control=64 value=86 time=12
note_off channel=0 note=73 velocity=64 time=126
note_off channel=0 note=76 velocity=64 time=30
note_off channel=0 note=81 velocity=64 time=30
note_on channel=0 note=81 velocity=80 time=54
note_on channel=0 note=73 velocity=80 time=0
note_off channel=0 note=81 velocity=64 time=216
note_off channel=0 note=73 velocity=64 time=0
note_on channel=0 note=81 velocity=80 time=24
note_on channel=0 note=73 velocity=80 time=0
note_off channel=0 note=73 velocity=64 time=108
note_off channel=0 note=81 velocity=64 time=54
note_on channel=0 note=73 velocity=80 time=18
note_on channel=0 note=69 velocity=80 time=0
note_off channel=0 note=69 velocity=64 time=108
note_off channel=0 note=73 velocity=64 time=54
note_on channel=0 note=76 velocity=80 time=18
control_change channel=0 control=64 value=0 time=101
note_off channel=0 note=76 velocity=64 time=7
control_change channel=0 control=64 value=83 time=12
note_on channel=0 note=74 velocity=80 time=0
note_off channel=0 note=74 velocity=64 time=432
note_on channel=0 note=73 velocity=80 time=48
note_off channel=0 note=73 velocity=64 time=108
note_on channel=0 note=74 velocity=80 time=12
note_off channel=0 note=74 velocity=64 time=108
note_on channel=0 note=78 velocity=80 time=12
note_off channel=0 note=78 velocity=64 time=108
note_on channel=0 note=81 velocity=80 time=12
note_on channel=0 note=71 velocity=80 time=30
note_on channel=0 note=74 velocity=80 time=30
note_on channel=0 note=81 velocity=80 time=30
note_off channel=0 note=81 velocity=64 time=18
control_change channel=0 control=64 value=1 time=2
control_change channel=0 control=64 value=83 time=10
note_off channel=0 note=71 velocity=64 time=126
note_off channel=0 note=74 velocity=64 time=30
note_off channel=0 note=81 velocity=64 time=30
note_on channel=0 note=79 velocity=80 time=54
note_on channel=0 note=71 velocity=80 time=0
note_off channel=0 note=79 velocity=64 time=108
note_off channel=0 note=71 velocity=64 time=0
note_on channel=0 note=79 velocity=80 time=12
note_on channel=0 note=71 velocity=80 time=0
note_off channel=0 note=79 velocity=64 time=216
note_off channel=0 note=71 velocity=64 time=0
note_on channel=0 note=74 velocity=80 time=24
note_off channel=0 note=74 velocity=64 time=324
control_change channel=0 control=64 value=0 time=17
note_on channel=0 note=72 velocity=80 time=19
control_change channel=0 control=64 value=83 time=10
note_off channel=0 note=72 velocity=64 time=206
note_on channel=0 note=73 velocity=80 time=24
note_on channel=0 note=74 velocity=80 time=150
note_on channel=0 note=78 velocity=80 time=30
note_on channel=0 note=83 velocity=80 time=30
note_off channel=0 note=73 velocity=64 time=6
note_off channel=0 note=74 velocity=64 time=258
note_off channel=0 note=78 velocity=64 time=30
note_off channel=0 note=83 velocity=64 time=30
note_on channel=0 note=81 velocity=80 time=66
note_on channel=0 note=73 velocity=80 time=30
note_on channel=0 note=78 velocity=80 time=30
note_on channel=0 note=81 velocity=80 time=30
control_change channel=0 control=64 value=1 time=1
note_off channel=0 note=81 velocity=64 time=17
control_change channel=0 control=64 value=82 time=12
note_off channel=0 note=73 velocity=64 time=234
note_off channel=0 note=78 velocity=64 time=30
note_off channel=0 note=81 velocity=64 time=30
note_on channel=0 note=69 velocity=80 time=66
note_on channel=0 note=64 velocity=80 time=0
note_off channel=0 note=69 velocity=64 time=216
note_off channel=0 note=64 velocity=64 time=0
note_on channel=0 note=81 velocity=80 time=24
note_on channel=0 note=78 velocity=80 time=0
note_on channel=0 note=76 velocity=80 time=0
note_off channel=0 note=81 velocity=64 time=216
note_off channel=0 note=78 velocity=64 time=0
note_off channel=0 note=76 velocity=64 time=0
note_on channel=0 note=93 velocity=80 time=24
note_on channel=0 note=86 velocity=80 time=0
control_change channel=0 control=64 value=0 time=91
control_change channel=0 control=64 value=83 time=29
note_off channel=0 note=93 velocity=64 time=96
note_off channel=0 note=86 velocity=64 time=0
note_on channel=0 note=100 velocity=80 time=24
note_off channel=0 note=100 velocity=64 time=108
note_on channel=0 note=105 velocity=80 time=12
note_off channel=0 note=105 velocity=64 time=108
note_on channel=0 note=102 velocity=80 time=12
note_off channel=0 note=102 velocity=64 time=108
note_on channel=0 note=100 velocity=80 time=12
note_on channel=0 note=74 velocity=80 time=390
note_on channel=0 note=78 velocity=80 time=30
note_off channel=0 note=100 velocity=64 time=12
note_on channel=0 note=83 velocity=80 time=18
control_change channel=0 control=64 value=0 time=11
control_change channel=0 control=64 value=84 time=29
note_off channel=0 note=74 velocity=64 time=116
note_off channel=0 note=78 velocity=64 time=30
note_off channel=0 note=83 velocity=64 time=138
note_on channel=0 note=83 velocity=80 time=66
note_on channel=0 note=78 velocity=80 time=0
note_on channel=0 note=74 velocity=80 time=0
note_off channel=0 note=83 velocity=64 time=216
note_off channel=0 note=78 velocity=64 time=0
note_off channel=0 note=74 velocity=64 time=0
note_on channel=0 note=83 velocity=80 time=24
note_on channel=0 note=74 velocity=80 time=0
note_off channel=0 note=83 velocity=64 time=216
note_off channel=0 note=74 velocity=64 time=0
note_on channel=0 note=83 velocity=80 time=24
note_on channel=0 note=78 velocity=80 time=0
control_change channel=0 control=64 value=1 time=101
note_off channel=0 note=83 velocity=64 time=7
note_off channel=0 note=78 velocity=64 time=0
control_change channel=0 control=64 value=85 time=12
note_on channel=0 note=83 velocity=80 time=0
note_on channel=0 note=76 velocity=80 time=0
note_off channel=0 note=83 velocity=64 time=216
note_off channel=0 note=76 velocity=64 time=0
note_on channel=0 note=85 velocity=80 time=24
note_on channel=0 note=76 velocity=80 time=0
note_off channel=0 note=85 velocity=64 time=324
note_off channel=0 note=76 velocity=64 time=0
note_on channel=0 note=85 velocity=80 time=36
note_on channel=0 note=76 velocity=80 time=0
note_off channel=0 note=85 velocity=64 time=216
note_off channel=0 note=76 velocity=64 time=0
note_on channel=0 note=83 velocity=80 time=24
note_on channel=0 note=74 velocity=80 time=0
note_on channel=0 note=73 velocity=80 time=30
note_on channel=0 note=76 velocity=80 time=30
note_on channel=0 note=81 velocity=80 time=30
control_change channel=0 control=64 value=0 time=11
note_off channel=0 note=83 velocity=64 time=7
note_off channel=0 note=74 velocity=64 time=0
control_change channel=0 control=64 value=85 time=12
note_off channel=0 note=73 velocity=64 time=126
note_off channel=0 note=76 velocity=64 time=30
note_off channel=0 note=81 velocity=64 time=30
note_on channel=0 note=81 velocity=80 time=54
note_on channel=0 note=76 velocity=80 time=0
note_on channel=0 note=73 velocity=80 time=0
note_off channel=0 note=81 velocity=64 time=216
note_off channel=0 note=76 velocity=64 time=0
note_off channel=0 note=73 velocity=64 time=0
control_change channel=0 control=64 value=0 time=5
control_change channel=0 control=64 value=81 time=19
note_on channel=0 note=73 velocity=80 time=0
note_off channel=0 note=73 velocity=64 time=162
note_on channel=0 note=78 velocity=80 time=18
note_off channel=0 note=78 velocity=64 time=162
note_on channel=0 note=88 velocity=80 time=18
note_on channel=0 note=78 velocity=80 time=30
note_on channel=0 note=83 velocity=80 time=30
note_on channel=0 note=88 velocity=80 time=30
control_change channel=0 control=64 value=0 time=1
note_off channel=0 note=88 velocity=64 time=17
control_change channel=0 control=64 value=85 time=12
note_off channel=0 note=78 velocity=64 time=18
note_off channel=0 note=83 velocity=64 time=30
note_off channel=0 note=88 velocity=64 time=30
note_on channel=0 note=86 velocity=80 time=42
note_off channel=0 note=86 velocity=64 time=108
note_on channel=0 note=85 velocity=80 time=12
note_off channel=0 note=85 velocity=64 time=108
note_on channel=0 note=86 velocity=80 time=12
note_off channel=0 note=86 velocity=64 time=216
note_on channel=0 note=78 velocity=80 time=24
note_off channel=0 note=78 velocity=64 time=216
note_on channel=0 note=81 velocity=80 time=24
note_on channel=0 note=71 velocity=80 time=30
note_on channel=0 note=74 velocity=80 time=30
control_change channel=0 control=64 value=0 time=22
note_on channel=0 note=81 velocity=80 time=8
control_change channel=0 control=64 value=84 time=11
note_off channel=0 note=81 velocity=64 time=7
note_off channel=0 note=71 velocity=64 time=138
note_off channel=0 note=74 velocity=64 time=30
note_off channel=0 note=81 velocity=64 time=30
note_on channel=0 note=83 velocity=80 time=54
note_off channel=0 note=83 velocity=64 time=108
note_on channel=0 note=74 velocity=80 time=12
note_off channel=0 note=74 velocity=64 time=324
note_on channel=0 note=71 velocity=80 time=36
note_on channel=0 note=67 velocity=80 time=150
note_on channel=0 note=71 velocity=80 time=30
control_change channel=0 control=64 value=0 time=22
note_on channel=0 note=74 velocity=80 time=8
note_off channel=0 note=71 velocity=64 time=6
control_change channel=0 control=64 value=86 time=14
note_off channel=0 note=67 velocity=64 time=136
note_off channel=0 note=71 velocity=64 time=30
note_off channel=0 note=74 velocity=64 time=30
note_on channel=0 note=76 velocity=80 time=54
note_on channel=0 note=76 velocity=80 time=150
note_on channel=0 note=78 velocity=80 time=45
control_change channel=0 control=64 value=0 time=16
note_off channel=0 note=76 velocity=64 time=5
control_change channel=0 control=64 value=86 time=5
note_off channel=0 note=76 velocity=64 time=145
note_off channel=0 note=78 velocity=64 time=45
note_on channel=0 note=79 velocity=80 time=69
note_on channel=0 note=69 velocity=80 time=150
note_on channel=0 note=74 velocity=80 time=22
note_on channel=0 note=76 velocity=80 time=23
control_change channel=0 control=64 value=0 time=7
note_off channel=0 note=79 velocity=64 time=14
note_on channel=0 note=81 velocity=80 time=1
control_change channel=0 control=64 value=79 time=4
note_off channel=0 note=69 velocity=64 time=253
note_off channel=0 note=74 velocity=64 time=22
note_off channel=0 note=76 velocity=64 time=23
note_off channel=0 note=81 velocity=64 time=22
note_on channel=0 note=81 velocity=80 time=59
note_on channel=0 note=76 velocity=80 time=0
note_on channel=0 note=74 velocity=80 time=0
note_off channel=0 note=81 velocity=64 time=216
note_off channel=0 note=76 velocity=64 time=0
note_off channel=0 note=74 velocity=64 time=0
note_on channel=0 note=81 velocity=80 time=24
note_off channel=0 note=81 velocity=64 time=108
note_on channel=0 note=86 velocity=80 time=12
note_off channel=0 note=86 velocity=64 time=108
note_on channel=0 note=88 velocity=80 time=12
control_change channel=0 control=64 value=0 time=101
note_off channel=0 note=88 velocity=64 time=7
control_change channel=0 control=64 value=84 time=12
note_on channel=0 note=93 velocity=80 time=0
note_on channel=0 note=88 velocity=80 time=0
note_on channel=0 note=86 velocity=80 time=0
note_off channel=0 note=93 velocity=64 time=108
note_off channel=0 note=88 velocity=64 time=0
note_off channel=0 note=86 velocity=64 time=0
note_on channel=0 note=95 velocity=80 time=12
note_off channel=0 note=95 velocity=64 time=108
note_on channel=0 note=98 velocity=80 time=12
note_off channel=0 note=98 velocity=64 time=108
note_on channel=0 note=100 velocity=80 time=12
note_off channel=0 note=100 velocity=64 time=108
note_on channel=0 note=105 velocity=80 time=12
note_off channel=0 note=105 velocity=64 time=432
control_change channel=0 control=64 value=0 time=38
control_change channel=0 control=64 value=83 time=20
note_on channel=0 note=69 velocity=80 time=230
note_off channel=0 note=69 velocity=64 time=216
note_on channel=0 note=74 velocity=80 time=24
note_off channel=0 note=74 velocity=64 time=216
note_on channel=0 note=81 velocity=80 time=24
note_off channel=0 note=81 velocity=64 time=216
note_on channel=0 note=81 velocity=80 time=24
note_off channel=0 note=81 velocity=64 time=648
note_on channel=0 note=81 velocity=80 time=72
note_off channel=0 note=81 velocity=64 time=216
control_change channel=0 control=64 value=1 time=14
note_on channel=0 note=81 velocity=80 time=10
control_change channel=0 control=64 value=84 time=10
note_off channel=0 note=81 velocity=64 time=314
note_on channel=0 note=83 velocity=80 time=36
note_off channel=0 note=83 velocity=64 time=216
note_on channel=0 note=79 velocity=80 time=24
note_off channel=0 note=79 velocity=64 time=216
note_on channel=0 note=78 velocity=80 time=24
note_off channel=0 note=78 velocity=64 time=108
note_on channel=0 note=79 velocity=80 time=12
control_change channel=0 control=64 value=0 time=941
control_change channel=0 control=64 value=80 time=19
note_off channel=0 note=79 velocity=64 time=216
note_on channel=0 note=76 velocity=80 time=24
note_off channel=0 note=76 velocity=64 time=216
note_on channel=0 note=76 velocity=80 time=24
note_off channel=0 note=76 velocity=64 time=216
note_on channel=0 note=78 velocity=80 time=24
note_off channel=0 note=78 velocity=64 time=216
note_on channel=0 note=79 velocity=80 time=24
note_off channel=0 note=79 velocity=64 time=324
note_on channel=0 note=85 velocity=80 time=36
note_off channel=0 note=85 velocity=64 time=324
note_on channel=0 note=76 velocity=80 time=36
note_on channel=0 note=69 velocity=80 time=150
note_on channel=0 note=76 velocity=80 time=30
note_on channel=0 note=79 velocity=80 time=30
note_off channel=0 note=76 velocity=64 time=6
control_change channel=0 control=64 value=1 time=5
control_change channel=0 control=64 value=84 time=29
note_off channel=0 note=69 velocity=64 time=224
note_off channel=0 note=76 velocity=64 time=30
note_off channel=0 note=79 velocity=64 time=30
note_on channel=0 note=81 velocity=80 time=66
note_off channel=0 note=81 velocity=64 time=216
note_on channel=0 note=78 velocity=80 time=24
note_off channel=0 note=78 velocity=64 time=216
note_on channel=0 note=76 velocity=80 time=24
note_on channel=0 note=69 velocity=80 time=30
note_on channel=0 note=73 velocity=80 time=30
note_on channel=0 note=78 velocity=80 time=30
note_off channel=0 note=76 velocity=64 time=18
control_change channel=0 control=64 value=0 time=12
control_change channel=0 control=64 value=80 time=29
note_off channel=0 note=69 velocity=64 time=97
note_off channel=0 note=73 velocity=64 time=30
note_off channel=0 note=78 velocity=64 time=30
note_on channel=0 note=69 velocity=80 time=54
note_on channel=0 note=66 velocity=80 time=150
note_on channel=0 note=70 velocity=80 time=30
note_on channel=0 note=76 velocity=80 time=30
control_change channel=0 control=64 value=0 time=1
note_off channel=0 note=69 velocity=64 time=5
control_change channel=0 control=64 value=81 time=34
note_off channel=0 note=66 velocity=64 time=116
note_off channel=0 note=70 velocity=64 time=30
note_off channel=0 note=76 velocity=64 time=30
note_on channel=0 note=73 velocity=80 time=54
control_change channel=0 control=64 value=0 time=230
control_change channel=0 control=64 value=83 time=10
note_off channel=0 note=73 velocity=64 time=216
note_on channel=0 note=74 velocity=80 time=24
note_off channel=0 note=74 velocity=64 time=216
note_on channel=0 note=74 velocity=80 time=24
note_off channel=0 note=74 velocity=64 time=216
note_on channel=0 note=76 velocity=80 time=24
note_off channel=0 note=76 velocity=64 time=216
note_on channel=0 note=78 velocity=80 time=24
note_off channel=0 note=78 velocity=64 time=324
note_on channel=0 note=74 velocity=80 time=36
note_off channel=0 note=74 velocity=64 time=216
note_on channel=0 note=81 velocity=80 time=24
note_off channel=0 note=81 velocity=64 time=216
note_on channel=0 note=86 velocity=80 time=24
control_change channel=0 control=64 value=0 time=72
control_change channel=0 control=64 value=85 time=29
note_off channel=0 note=86 velocity=64 time=7
note_on channel=0 note=85 velocity=80 time=12
note_on channel=0 note=76 velocity=80 time=0
note_off channel=0 note=85 velocity=64 time=216
note_off channel=0 note=76 velocity=64 time=0
note_on channel=0 note=86 velocity=80 time=24
note_off channel=0 note=86 velocity=64 time=432
note_on channel=0 note=83 velocity=80 time=48
note_on channel=0 note=76 velocity=80 time=0
note_on channel=0 note=88 velocity=80 time=150
note_on channel=0 note=95 velocity=80 time=45
note_off channel=0 note=83 velocity=64 time=21
note_off channel=0 note=76 velocity=64 time=0
note_off channel=0 note=88 velocity=64 time=582
note_off channel=0 note=95 velocity=64 time=45
note_on channel=0 note=74 velocity=80 time=117
note_off channel=0 note=74 velocity=64 time=108
note_on channel=0 note=76 velocity=80 time=12
note_off channel=0 note=76 velocity=64 time=108
control_change channel=0 control=64 value=0 time=2
note_on channel=0 note=78 velocity=80 time=10
note_on channel=0 note=74 velocity=80 time=0
control_change channel=0 control=64 value=82 time=10
note_off channel=0 note=78 velocity=64 time=206
note_off channel=0 note=74 velocity=64 time=0
note_on channel=0 note=81 velocity=80 time=24
note_off channel=0 note=81 velocity=64 time=216
note_on channel=0 note=81 velocity=80 time=24
note_off channel=0 note=81 velocity=64 time=216
note_on channel=0 note=74 velocity=80 time=24
note_on channel=0 note=69 velocity=80 time=150
note_on channel=0 note=73 velocity=80 time=30
note_on channel=0 note=76 velocity=80 time=30
control_change channel=0 control=64 value=0 time=1
note_off channel=0 note=74 velocity=64 time=5
control_change channel=0 control=64 value=86 time=24
note_off channel=0 note=69 velocity=64 time=234
note_off channel=0 note=73 velocity=64 time=30
note_off channel=0 note=76 velocity=64 time=30
note_on channel=0 note=74 velocity=80 time=66
note_off channel=0 note=74 velocity=64 time=324
note_on channel=0 note=73 velocity=80 time=36
note_off channel=0 note=73 velocity=64 time=216
control_change channel=0 control=64 value=1 time=14
control_change channel=0 control=64 value=82 time=10
note_on channel=0 note=74 velocity=80 time=0
note_off channel=0 note=74 velocity=64 time=864
note_on channel=0 note=73 velocity=80 time=42
control_change channel=0 control=64 value=0 time=25
note_off channel=0 note=73 velocity=64 time=2
note_on channel=0 note=74 velocity=80 time=0
note_off channel=0 note=74 velocity=64 time=27
control_change channel=0 control=64 value=83 time=0
note_on channel=0 note=73 velocity=80 time=0
note_off channel=0 note=73 velocity=64 time=432
note_on channel=0 note=78 velocity=80 time=48
note_off channel=0 note=78 velocity=64 time=432
control_change channel=0 control=64 value=0 time=19
note_on channel=0 note=76 velocity=80 time=29
note_on channel=0 note=71 velocity=80 time=0
note_on channel=0 note=68 velocity=80 time=0
control_change channel=0 control=64 value=81 time=19
note_off channel=0 note=76 velocity=64 time=845
note_off channel=0 note=71 velocity=64 time=0
note_off channel=0 note=68 velocity=64 time=0
note_on channel=0 note=83 velocity=80 time=6
note_on channel=0 note=88 velocity=80 time=30
control_change channel=0 control=64 value=0 time=2
note_on channel=0 note=95 velocity=80 time=28
control_change channel=0 control=64 value=81 time=1
note_off channel=0 note=83 velocity=64 time=587
note_off channel=0 note=88 velocity=64 time=30
note_off channel=0 note=95 velocity=64 time=30
note_on channel=0 note=86 velocity=80 time=102
note_off channel=0 note=86 velocity=64 time=108
note_on channel=0 note=88 velocity=80 time=12
note_on channel=0 note=83 velocity=80 time=30
note_on channel=0 note=86 velocity=80 time=30
note_on channel=0 note=90 velocity=80 time=30
note_off channel=0 note=88 velocity=64 time=18
control_change channel=0 control=64 value=0 time=12
control_change channel=0 control=64 value=85 time=19
note_off channel=0 note=83 velocity=64 time=107
note_off channel=0 note=86 velocity=64 time=30
note_off channel=0 note=90 velocity=64 time=30
note_on channel=0 note=93 velocity=80 time=54
note_off channel=0 note=93 velocity=64 time=216
note_on channel=0 note=93 velocity=80 time=24
note_off channel=0 note=93 velocity=64 time=216
note_on channel=0 note=86 velocity=80 time=24
note_off channel=0 note=86 velocity=64 time=216
control_change channel=0 control=64 value=3 time=5
note_on channel=0 note=88 velocity=80 time=19
note_on channel=0 note=81 velocity=80 time=0
control_change channel=0 control=64 value=82 time=10
note_on channel=0 note=86 velocity=80 time=416
note_off channel=0 note=88 velocity=64 time=6
note_off channel=0 note=81 velocity=64 time=0
note_off channel=0 note=86 velocity=64 time=21
note_on channel=0 note=88 velocity=80 time=0
note_off channel=0 note=88 velocity=64 time=27
note_on channel=0 note=86 velocity=80 time=0
note_off channel=0 note=86 velocity=64 time=216
note_on channel=0 note=85 velocity=80 time=24
control_change channel=0 control=64 value=0 time=211
note_off channel=0 note=85 velocity=64 time=5
control_change channel=0 control=64 value=83 time=5
note_on channel=0 note=86 velocity=80 time=19
note_off channel=0 note=86 velocity=64 time=864
control_change channel=0 control=64 value=0 time=67
control_change channel=0 control=64 value=84 time=29
note_on channel=0 note=85 velocity=80 time=0
note_off channel=0 note=85 velocity=64 time=648
note_on channel=0 note=74 velocity=80 time=72
note_off channel=0 note=74 velocity=64 time=108
note_on channel=0 note=76 velocity=80 time=12
note_on channel=0 note=71 velocity=80 time=30
note_on channel=0 note=74 velocity=80 time=30
control_change channel=0 control=64 value=1 time=22
note_on channel=0 note=78 velocity=80 time=8
note_off channel=0 note=76 velocity=64 time=18
control_change channel=0 control=64 value=84 time=12
note_off channel=0 note=71 velocity=64 time=126
note_off channel=0 note=74 velocity=64 time=30
note_off channel=0 note=78 velocity=64 time=30
note_on channel=0 note=81 velocity=80 time=54
note_off channel=0 note=81 velocity=64 time=216
note_on channel=0 note=81 velocity=80 time=24
note_off channel=0 note=81 velocity=64 time=216
note_on channel=0 note=74 velocity=80 time=24
control_change channel=0 control=64 value=2 time=202
note_off channel=0 note=74 velocity=64 time=14
control_change channel=0 control=64 value=83 time=24
note_on channel=0 note=76 velocity=80 time=0
note_on channel=0 note=67 velocity=80 time=0
note_on channel=0 note=74 velocity=80 time=426
note_off channel=0 note=76 velocity=64 time=6
note_off channel=0 note=67 velocity=64 time=0
note_off channel=0 note=74 velocity=64 time=21
note_on channel=0 note=76 velocity=80 time=0
note_off channel=0 note=76 velocity=64 time=27
note_on channel=0 note=74 velocity=80 time=0
note_off channel=0 note=74 velocity=64 time=216
note_on channel=0 note=73 velocity=80 time=24
control_change channel=0 control=64 value=0 time=211
note_off channel=0 note=73 velocity=64 time=5
control_change channel=0 control=7 value=85 time=4
note_on channel=0 note=62 velocity=80 time=20
note_on channel=0 note=69 velocity=80 time=0
control_change channel=0 control=64 value=83 time=10
control_change channel=0 control=7 value=84 time=107
note_off channel=0 note=62 velocity=64 time=99
note_off channel=0 note=69 velocity=64 time=0
note_on channel=0 note=66 velocity=80 time=24
control_change channel=0 control=7 value=83 time=14
control_change channel=0 control=7 value=81 time=138
note_off channel=0 note=66 velocity=64 time=64
note_on channel=0 note=69 velocity=80 time=24
note_on channel=0 note=74 velocity=80 time=0
note_on channel=0 note=76 velocity=80 time=0
control_change channel=0 control=7 value=80 time=49
control_change channel=0 control=7 value=79 time=137
note_off channel=0 note=69 velocity=64 time=30
note_off channel=0 note=74 velocity=64 time=0
note_off channel=0 note=76 velocity=64 time=0
note_on channel=0 note=74 velocity=80 time=24
control_change channel=0 control=7 value=77 time=84
note_off channel=0 note=74 velocity=64 time=132
note_on channel=0 note=81 velocity=80 time=24
note_on channel=0 note=74 velocity=80 time=0
note_off channel=0 note=81 velocity=64 time=162
note_off channel=0 note=74 velocity=64 time=0
note_on channel=0 note=78 velocity=80 time=18
note_off channel=0 note=78 velocity=64 time=162
note_on channel=0 note=81 velocity=80 time=18
note_off channel=0 note=81 velocity=64 time=162
note_on channel=0 note=86 velocity=80 time=18
note_on channel=0 note=78 velocity=80 time=0
note_off channel=0 note=86 velocity=64 time=162
note_off channel=0 note=78 velocity=64 time=0
note_on channel=0 note=93 velocity=80 time=18
note_on channel=0 note=86 velocity=80 time=0
control_change channel=0 control=7 value=76 time=85
note_off channel=0 note=93 velocity=64 time=131
note_off channel=0 note=86 velocity=64 time=0
note_on channel=0 note=90 velocity=80 time=24
control_change channel=0 control=7 value=75 time=120
note_off channel=0 note=90 velocity=64 time=96
note_on channel=0 note=100 velocity=80 time=24
note_on channel=0 note=98 velocity=80 time=0
control_change channel=0 control=7 value=74 time=18
control_change channel=0 control=7 value=73 time=137
note_off channel=0 note=100 velocity=64 time=61
note_off channel=0 note=98 velocity=64 time=0
note_on channel=0 note=98 velocity=80 time=24
note_on channel=0 note=90 velocity=80 time=0
control_change channel=0 control=7 value=72 time=52
control_change channel=0 control=7 value=71 time=138
control_change channel=0 control=7 value=70 time=137
note_off channel=0 note=98 velocity=64 time=105
note_off channel=0 note=90 velocity=64 time=0
note_on channel=0 note=61 velocity=80 time=48
note_on channel=0 note=66 velocity=80 time=0
note_on channel=0 note=69 velocity=80 time=0
control_change channel=0 control=7 value=69 time=259
control_change channel=0 control=7 value=68 time=138
control_change channel=0 control=7 value=67 time=274
control_change channel=0 control=7 value=66 time=138
note_off channel=0 note=61 velocity=64 time=55
note_off channel=0 note=66 velocity=64 time=0
note_off channel=0 note=69 velocity=64 time=0
note_on channel=0 note=73 velocity=80 time=6
note_on channel=0 note=78 velocity=80 time=30
note_on channel=0 note=81 velocity=80 time=30
control_change channel=0 control=7 value=65 time=291
control_change channel=0 control=7 value=64 time=137
control_change channel=0 control=7 value=63 time=138
control_change channel=0 control=7 value=62 time=137
control_change channel=0 control=7 value=61 time=137
control_change channel=0 control=7 value=60 time=275
control_change channel=0 control=7 value=58 time=138
control_change channel=0 control=7 value=56 time=137
control_change channel=0 control=7 value=55 time=137
control_change channel=0 control=7 value=53 time=138
note_off channel=0 note=73 velocity=64 time=3
note_off channel=0 note=78 velocity=64 time=30
note_off channel=0 note=81 velocity=64 time=30
control_change channel=0 control=7 value=51 time=74
<meta message end_of_track time=148>
