<meta message track_name name='Sound 2' time=0>
<meta message instrument_name name='Microsoft GS ²¨±íÈí¼þºÏ³ÉÆ÷' time=0>
program_change channel=0 program=0 time=0
control_change channel=0 control=10 value=64 time=0
control_change channel=0 control=7 value=70 time=0
note_on channel=0 note=72 velocity=80 time=1440
note_on channel=0 note=65 velocity=80 time=0
note_off channel=0 note=72 velocity=64 time=648
note_off channel=0 note=65 velocity=64 time=0
note_on channel=0 note=74 velocity=80 time=72
note_on channel=0 note=71 velocity=80 time=0
note_on channel=0 note=64 velocity=80 time=0
note_off channel=0 note=74 velocity=64 time=648
note_off channel=0 note=71 velocity=64 time=0
note_off channel=0 note=64 velocity=64 time=0
note_on channel=0 note=62 velocity=80 time=72
note_off channel=0 note=62 velocity=64 time=216
note_on channel=0 note=69 velocity=80 time=24
note_off channel=0 note=69 velocity=64 time=216
note_on channel=0 note=72 velocity=80 time=24
note_on channel=0 note=76 velocity=81 time=161
note_on channel=0 note=77 velocity=81 time=26
note_on channel=0 note=84 velocity=81 time=27
note_off channel=0 note=72 velocity=64 time=2
note_off channel=0 note=76 velocity=64 time=593
note_off channel=0 note=77 velocity=64 time=26
note_off channel=0 note=84 velocity=64 time=27
note_on channel=0 note=60 velocity=80 time=1538
note_on channel=0 note=57 velocity=80 time=0
note_on channel=0 note=50 velocity=80 time=0
note_off channel=0 note=60 velocity=64 time=648
note_off channel=0 note=57 velocity=64 time=0
note_off channel=0 note=50 velocity=64 time=0
note_on channel=0 note=62 velocity=80 time=72
note_on channel=0 note=59 velocity=80 time=0
note_on channel=0 note=52 velocity=80 time=0
note_off channel=0 note=62 velocity=64 time=648
note_off channel=0 note=59 velocity=64 time=0
note_off channel=0 note=52 velocity=64 time=0
note_on channel=0 note=57 velocity=80 time=72
note_on channel=0 note=53 velocity=80 time=0
note_off channel=0 note=57 velocity=64 time=648
note_off channel=0 note=53 velocity=64 time=0
note_on channel=0 note=67 velocity=80 time=72
note_on channel=0 note=69 velocity=80 time=0
note_on channel=0 note=76 velocity=80 time=0
note_off channel=0 note=67 velocity=64 time=2088
note_off channel=0 note=69 velocity=64 time=0
note_off channel=0 note=76 velocity=64 time=0
note_on channel=0 note=65 velocity=80 time=72
note_off channel=0 note=65 velocity=64 time=648
note_on channel=0 note=64 velocity=80 time=72
note_off channel=0 note=64 velocity=64 time=216
note_on channel=0 note=71 velocity=80 time=24
note_off channel=0 note=71 velocity=64 time=432
note_on channel=0 note=62 velocity=80 time=48
note_off channel=0 note=62 velocity=64 time=216
note_on channel=0 note=69 velocity=80 time=24
note_off channel=0 note=69 velocity=64 time=432
note_on channel=0 note=60 velocity=80 time=48
note_off channel=0 note=60 velocity=64 time=432
note_on channel=0 note=67 velocity=80 time=48
note_off channel=0 note=67 velocity=64 time=216
note_on channel=0 note=58 velocity=80 time=24
note_off channel=0 note=58 velocity=64 time=216
note_on channel=0 note=65 velocity=80 time=24
note_off channel=0 note=65 velocity=64 time=216
note_on channel=0 note=67 velocity=80 time=24
note_off channel=0 note=67 velocity=64 time=216
note_on channel=0 note=70 velocity=80 time=24
note_off channel=0 note=70 velocity=64 time=2088
note_on channel=0 note=43 velocity=80 time=72
note_off channel=0 note=43 velocity=64 time=216
note_on channel=0 note=50 velocity=80 time=24
note_off channel=0 note=50 velocity=64 time=432
note_on channel=0 note=45 velocity=80 time=48
note_off channel=0 note=45 velocity=64 time=324
note_on channel=0 note=52 velocity=80 time=36
note_off channel=0 note=52 velocity=64 time=324
note_on channel=0 note=57 velocity=80 time=36
note_on channel=0 note=53 velocity=80 time=0
note_on channel=0 note=46 velocity=80 time=0
note_off channel=0 note=57 velocity=64 time=1368
note_off channel=0 note=53 velocity=64 time=0
note_off channel=0 note=46 velocity=64 time=0
control_change channel=0 control=7 value=70 time=62
<meta message key_signature key='F' time=10>
note_on channel=0 note=38 velocity=80 time=0
note_off channel=0 note=38 velocity=64 time=216
note_on channel=0 note=45 velocity=80 time=24
note_off channel=0 note=45 velocity=64 time=216
note_on channel=0 note=50 velocity=80 time=24
note_off channel=0 note=50 velocity=64 time=432
note_on channel=0 note=40 velocity=80 time=48
note_off channel=0 note=40 velocity=64 time=216
note_on channel=0 note=52 velocity=80 time=24
note_off channel=0 note=52 velocity=64 time=216
note_on channel=0 note=55 velocity=80 time=24
note_off channel=0 note=55 velocity=64 time=432
note_on channel=0 note=41 velocity=80 time=48
note_off channel=0 note=41 velocity=64 time=216
note_on channel=0 note=48 velocity=80 time=24
note_off channel=0 note=48 velocity=64 time=216
note_on channel=0 note=53 velocity=80 time=24
note_off channel=0 note=53 velocity=64 time=432
note_on channel=0 note=42 velocity=80 time=48
note_off channel=0 note=42 velocity=64 time=216
note_on channel=0 note=48 velocity=80 time=24
note_off channel=0 note=48 velocity=64 time=216
note_on channel=0 note=54 velocity=80 time=24
note_off channel=0 note=54 velocity=64 time=432
note_on channel=0 note=43 velocity=80 time=48
note_off channel=0 note=43 velocity=64 time=216
note_on channel=0 note=50 velocity=80 time=24
note_off channel=0 note=50 velocity=64 time=216
note_on channel=0 note=55 velocity=80 time=24
note_off channel=0 note=55 velocity=64 time=432
note_on channel=0 note=48 velocity=80 time=48
note_off channel=0 note=48 velocity=64 time=324
note_on channel=0 note=55 velocity=80 time=36
note_off channel=0 note=55 velocity=64 time=108
note_on channel=0 note=60 velocity=80 time=12
note_off channel=0 note=60 velocity=64 time=432
note_on channel=0 note=45 velocity=80 time=48
note_off channel=0 note=45 velocity=64 time=216
note_on channel=0 note=52 velocity=80 time=24
note_off channel=0 note=52 velocity=64 time=216
note_on channel=0 note=55 velocity=80 time=24
note_off channel=0 note=55 velocity=64 time=432
note_on channel=0 note=60 velocity=80 time=48
note_on channel=0 note=50 velocity=80 time=0
note_off channel=0 note=60 velocity=64 time=864
note_off channel=0 note=50 velocity=64 time=0
note_on channel=0 note=47 velocity=80 time=96
note_off channel=0 note=47 velocity=64 time=216
note_on channel=0 note=53 velocity=80 time=24
note_off channel=0 note=53 velocity=64 time=216
note_on channel=0 note=57 velocity=80 time=24
note_off channel=0 note=57 velocity=64 time=1296
note_on channel=0 note=57 velocity=80 time=144
note_on channel=0 note=45 velocity=80 time=0
note_off channel=0 note=57 velocity=64 time=864
note_off channel=0 note=45 velocity=64 time=0
note_on channel=0 note=33 velocity=80 time=96
note_off channel=0 note=33 velocity=64 time=864
note_on channel=0 note=38 velocity=80 time=96
note_off channel=0 note=38 velocity=64 time=216
note_on channel=0 note=45 velocity=80 time=24
note_off channel=0 note=45 velocity=64 time=216
note_on channel=0 note=50 velocity=80 time=24
note_off channel=0 note=50 velocity=64 time=432
note_on channel=0 note=40 velocity=80 time=48
note_off channel=0 note=40 velocity=64 time=216
note_on channel=0 note=52 velocity=80 time=24
note_off channel=0 note=52 velocity=64 time=216
note_on channel=0 note=55 velocity=80 time=24
note_off channel=0 note=55 velocity=64 time=432
note_on channel=0 note=41 velocity=80 time=48
note_off channel=0 note=41 velocity=64 time=216
note_on channel=0 note=48 velocity=80 time=24
note_off channel=0 note=48 velocity=64 time=216
note_on channel=0 note=53 velocity=80 time=24
note_off channel=0 note=53 velocity=64 time=432
note_on channel=0 note=42 velocity=80 time=48
note_off channel=0 note=42 velocity=64 time=432
note_on channel=0 note=54 velocity=80 time=48
note_off channel=0 note=54 velocity=64 time=432
note_on channel=0 note=43 velocity=80 time=48
note_off channel=0 note=43 velocity=64 time=216
note_on channel=0 note=50 velocity=80 time=24
note_off channel=0 note=50 velocity=64 time=216
note_on channel=0 note=55 velocity=80 time=24
note_off channel=0 note=55 velocity=64 time=432
note_on channel=0 note=48 velocity=80 time=48
note_off channel=0 note=48 velocity=64 time=324
note_on channel=0 note=55 velocity=80 time=36
note_off channel=0 note=55 velocity=64 time=108
note_on channel=0 note=60 velocity=80 time=12
note_off channel=0 note=60 velocity=64 time=432
note_on channel=0 note=45 velocity=80 time=48
note_off channel=0 note=45 velocity=64 time=432
note_on channel=0 note=52 velocity=80 time=48
note_off channel=0 note=52 velocity=64 time=216
note_on channel=0 note=55 velocity=80 time=24
note_off channel=0 note=55 velocity=64 time=216
note_on channel=0 note=50 velocity=80 time=24
note_off channel=0 note=50 velocity=64 time=432
note_on channel=0 note=57 velocity=80 time=48
note_off channel=0 note=57 velocity=64 time=432
note_on channel=0 note=43 velocity=80 time=48
note_off channel=0 note=43 velocity=64 time=324
note_on channel=0 note=50 velocity=80 time=36
note_off channel=0 note=50 velocity=64 time=108
note_on channel=0 note=55 velocity=80 time=12
note_off channel=0 note=55 velocity=64 time=912
note_on channel=0 note=55 velocity=80 time=48
note_off channel=0 note=55 velocity=64 time=216
note_on channel=0 note=43 velocity=80 time=24
note_off channel=0 note=43 velocity=64 time=216
note_on channel=0 note=57 velocity=80 time=24
note_on channel=0 note=45 velocity=80 time=0
note_off channel=0 note=57 velocity=64 time=216
note_off channel=0 note=45 velocity=64 time=0
note_on channel=0 note=57 velocity=80 time=24
note_off channel=0 note=57 velocity=64 time=108
note_on channel=0 note=62 velocity=80 time=12
note_off channel=0 note=62 velocity=64 time=108
note_on channel=0 note=57 velocity=80 time=12
note_off channel=0 note=57 velocity=64 time=216
note_on channel=0 note=52 velocity=80 time=24
note_off channel=0 note=52 velocity=64 time=216
note_on channel=0 note=45 velocity=80 time=24
note_off channel=0 note=45 velocity=64 time=108
note_on channel=0 note=52 velocity=80 time=12
note_off channel=0 note=52 velocity=64 time=108
note_on channel=0 note=57 velocity=80 time=12
note_off channel=0 note=57 velocity=64 time=108
note_on channel=0 note=59 velocity=80 time=12
note_off channel=0 note=59 velocity=64 time=108
note_on channel=0 note=61 velocity=80 time=12
note_off channel=0 note=61 velocity=64 time=432
note_on channel=0 note=46 velocity=80 time=48
note_on channel=0 note=34 velocity=80 time=0
note_off channel=0 note=46 velocity=64 time=108
note_off channel=0 note=34 velocity=64 time=0
note_on channel=0 note=53 velocity=80 time=12
note_off channel=0 note=53 velocity=64 time=108
note_on channel=0 note=58 velocity=80 time=12
note_off channel=0 note=58 velocity=64 time=216
note_on channel=0 note=53 velocity=80 time=24
note_off channel=0 note=53 velocity=64 time=216
note_on channel=0 note=46 velocity=80 time=24
note_off channel=0 note=46 velocity=64 time=216
note_on channel=0 note=57 velocity=80 time=24
note_on channel=0 note=45 velocity=80 time=0
note_off channel=0 note=57 velocity=64 time=432
note_off channel=0 note=45 velocity=64 time=0
note_on channel=0 note=57 velocity=80 time=48
note_on channel=0 note=49 velocity=80 time=0
note_off channel=0 note=57 velocity=64 time=432
note_off channel=0 note=49 velocity=64 time=0
note_on channel=0 note=50 velocity=80 time=48
note_off channel=0 note=50 velocity=64 time=216
note_on channel=0 note=57 velocity=80 time=24
note_off channel=0 note=57 velocity=64 time=216
note_on channel=0 note=62 velocity=80 time=24
note_off channel=0 note=62 velocity=64 time=216
note_on channel=0 note=50 velocity=80 time=24
note_off channel=0 note=50 velocity=64 time=216
note_on channel=0 note=48 velocity=80 time=24
note_off channel=0 note=48 velocity=64 time=216
note_on channel=0 note=57 velocity=80 time=24
note_off channel=0 note=57 velocity=64 time=108
note_on channel=0 note=60 velocity=80 time=12
note_off channel=0 note=60 velocity=64 time=108
note_on channel=0 note=60 velocity=80 time=12
note_off channel=0 note=60 velocity=64 time=216
note_on channel=0 note=48 velocity=80 time=24
note_off channel=0 note=48 velocity=64 time=216
note_on channel=0 note=34 velocity=80 time=24
note_on channel=0 note=46 velocity=80 time=0
note_off channel=0 note=34 velocity=64 time=108
note_off channel=0 note=46 velocity=64 time=0
note_on channel=0 note=58 velocity=80 time=12
note_off channel=0 note=58 velocity=64 time=108
note_on channel=0 note=53 velocity=80 time=12
note_off channel=0 note=53 velocity=64 time=108
note_on channel=0 note=46 velocity=80 time=12
note_off channel=0 note=46 velocity=64 time=108
note_on channel=0 note=53 velocity=80 time=12
note_off channel=0 note=53 velocity=64 time=216
note_on channel=0 note=46 velocity=80 time=24
note_off channel=0 note=46 velocity=64 time=216
note_on channel=0 note=55 velocity=80 time=24
note_on channel=0 note=45 velocity=80 time=0
note_off channel=0 note=55 velocity=64 time=432
note_off channel=0 note=45 velocity=64 time=0
note_on channel=0 note=57 velocity=80 time=48
note_on channel=0 note=55 velocity=80 time=0
note_on channel=0 note=49 velocity=80 time=0
note_off channel=0 note=57 velocity=64 time=432
note_off channel=0 note=55 velocity=64 time=0
note_off channel=0 note=49 velocity=64 time=0
note_on channel=0 note=50 velocity=80 time=48
note_off channel=0 note=50 velocity=64 time=216
note_on channel=0 note=57 velocity=80 time=24
note_off channel=0 note=57 velocity=64 time=108
note_on channel=0 note=62 velocity=80 time=12
note_off channel=0 note=62 velocity=64 time=108
note_on channel=0 note=64 velocity=80 time=12
note_off channel=0 note=64 velocity=64 time=108
note_on channel=0 note=65 velocity=80 time=12
note_off channel=0 note=65 velocity=64 time=108
note_on channel=0 note=69 velocity=80 time=12
note_off channel=0 note=69 velocity=64 time=108
note_on channel=0 note=76 velocity=80 time=12
note_off channel=0 note=76 velocity=64 time=108
note_on channel=0 note=81 velocity=80 time=12
note_off channel=0 note=81 velocity=64 time=108
note_on channel=0 note=77 velocity=80 time=12
note_off channel=0 note=77 velocity=64 time=108
note_on channel=0 note=76 velocity=80 time=12
note_off channel=0 note=76 velocity=64 time=108
note_on channel=0 note=74 velocity=80 time=12
note_off channel=0 note=74 velocity=64 time=108
note_on channel=0 note=69 velocity=80 time=12
note_off channel=0 note=69 velocity=64 time=432
note_on channel=0 note=47 velocity=80 time=48
note_off channel=0 note=47 velocity=64 time=108
note_on channel=0 note=53 velocity=80 time=12
note_off channel=0 note=53 velocity=64 time=108
note_on channel=0 note=57 velocity=80 time=12
note_off channel=0 note=57 velocity=64 time=108
note_on channel=0 note=59 velocity=80 time=12
note_off channel=0 note=59 velocity=64 time=108
note_on channel=0 note=62 velocity=80 time=12
note_off channel=0 note=62 velocity=64 time=108
note_on channel=0 note=65 velocity=80 time=12
note_off channel=0 note=65 velocity=64 time=108
note_on channel=0 note=69 velocity=80 time=12
note_off channel=0 note=69 velocity=64 time=216
note_on channel=0 note=40 velocity=80 time=24
note_off channel=0 note=40 velocity=64 time=108
note_on channel=0 note=47 velocity=80 time=12
note_off channel=0 note=47 velocity=64 time=108
note_on channel=0 note=52 velocity=80 time=12
note_off channel=0 note=52 velocity=64 time=108
note_on channel=0 note=56 velocity=80 time=12
note_off channel=0 note=56 velocity=64 time=108
note_on channel=0 note=59 velocity=80 time=12
note_off channel=0 note=59 velocity=64 time=108
note_on channel=0 note=64 velocity=80 time=12
note_off channel=0 note=64 velocity=64 time=108
note_on channel=0 note=68 velocity=80 time=12
note_off channel=0 note=68 velocity=64 time=216
note_on channel=0 note=45 velocity=80 time=24
note_off channel=0 note=45 velocity=64 time=108
note_on channel=0 note=52 velocity=80 time=12
note_off channel=0 note=52 velocity=64 time=108
note_on channel=0 note=57 velocity=80 time=12
note_off channel=0 note=57 velocity=64 time=108
note_on channel=0 note=59 velocity=80 time=12
note_off channel=0 note=59 velocity=64 time=108
note_on channel=0 note=60 velocity=80 time=12
note_off channel=0 note=60 velocity=64 time=108
note_on channel=0 note=64 velocity=80 time=12
note_off channel=0 note=64 velocity=64 time=324
note_on channel=0 note=38 velocity=80 time=36
note_off channel=0 note=38 velocity=64 time=108
note_on channel=0 note=45 velocity=80 time=12
note_off channel=0 note=45 velocity=64 time=108
note_on channel=0 note=50 velocity=80 time=12
note_off channel=0 note=50 velocity=64 time=108
note_on channel=0 note=54 velocity=80 time=12
note_off channel=0 note=54 velocity=64 time=108
note_on channel=0 note=57 velocity=80 time=12
note_off channel=0 note=57 velocity=64 time=108
note_on channel=0 note=62 velocity=80 time=12
note_off channel=0 note=62 velocity=64 time=324
control_change channel=0 control=7 value=70 time=26
note_on channel=0 note=53 velocity=80 time=10
note_on channel=0 note=50 velocity=80 time=0
note_on channel=0 note=43 velocity=80 time=0
note_off channel=0 note=53 velocity=64 time=432
note_off channel=0 note=50 velocity=64 time=0
note_off channel=0 note=43 velocity=64 time=0
note_on channel=0 note=53 velocity=80 time=48
note_on channel=0 note=50 velocity=80 time=0
note_on channel=0 note=43 velocity=80 time=0
note_off channel=0 note=53 velocity=64 time=432
note_off channel=0 note=50 velocity=64 time=0
note_off channel=0 note=43 velocity=64 time=0
note_on channel=0 note=53 velocity=80 time=48
note_on channel=0 note=50 velocity=80 time=0
note_on channel=0 note=43 velocity=80 time=0
note_off channel=0 note=53 velocity=64 time=432
note_off channel=0 note=50 velocity=64 time=0
note_off channel=0 note=43 velocity=64 time=0
note_on channel=0 note=53 velocity=80 time=48
note_on channel=0 note=50 velocity=80 time=0
note_on channel=0 note=43 velocity=80 time=0
note_off channel=0 note=53 velocity=64 time=432
note_off channel=0 note=50 velocity=64 time=0
note_off channel=0 note=43 velocity=64 time=0
note_on channel=0 note=53 velocity=80 time=48
note_on channel=0 note=50 velocity=80 time=0
note_on channel=0 note=43 velocity=80 time=0
note_off channel=0 note=53 velocity=64 time=432
note_off channel=0 note=50 velocity=64 time=0
note_off channel=0 note=43 velocity=64 time=0
note_on channel=0 note=53 velocity=80 time=48
note_on channel=0 note=50 velocity=80 time=0
note_on channel=0 note=43 velocity=80 time=0
note_off channel=0 note=53 velocity=64 time=432
note_off channel=0 note=50 velocity=64 time=0
note_off channel=0 note=43 velocity=64 time=0
note_on channel=0 note=43 velocity=80 time=48
note_on channel=0 note=50 velocity=80 time=0
note_on channel=0 note=53 velocity=80 time=0
note_off channel=0 note=43 velocity=64 time=324
note_off channel=0 note=50 velocity=64 time=0
note_off channel=0 note=53 velocity=64 time=0
note_on channel=0 note=50 velocity=80 time=36
note_on channel=0 note=53 velocity=80 time=0
note_off channel=0 note=50 velocity=64 time=228
note_off channel=0 note=53 velocity=64 time=0
note_on channel=0 note=43 velocity=80 time=12
note_off channel=0 note=43 velocity=64 time=216
note_on channel=0 note=31 velocity=80 time=24
note_off channel=0 note=31 velocity=64 time=108
note_on channel=0 note=36 velocity=80 time=12
note_off channel=0 note=36 velocity=64 time=108
note_on channel=0 note=43 velocity=80 time=12
note_off channel=0 note=43 velocity=64 time=108
note_on channel=0 note=48 velocity=80 time=12
note_off channel=0 note=48 velocity=64 time=108
note_on channel=0 note=50 velocity=80 time=12
note_off channel=0 note=50 velocity=64 time=108
note_on channel=0 note=52 velocity=80 time=12
note_off channel=0 note=52 velocity=64 time=108
note_on channel=0 note=55 velocity=80 time=12
note_off channel=0 note=55 velocity=64 time=108
note_on channel=0 note=60 velocity=80 time=12
note_off channel=0 note=60 velocity=64 time=108
note_on channel=0 note=62 velocity=80 time=12
note_off channel=0 note=62 velocity=64 time=108
note_on channel=0 note=64 velocity=80 time=12
note_off channel=0 note=64 velocity=64 time=108
note_on channel=0 note=62 velocity=80 time=12
note_off channel=0 note=62 velocity=64 time=108
note_on channel=0 note=60 velocity=80 time=12
note_off channel=0 note=60 velocity=64 time=108
note_on channel=0 note=55 velocity=80 time=12
note_off channel=0 note=55 velocity=64 time=108
note_on channel=0 note=52 velocity=80 time=12
note_off channel=0 note=52 velocity=64 time=108
note_on channel=0 note=48 velocity=80 time=12
note_off channel=0 note=48 velocity=64 time=108
note_on channel=0 note=43 velocity=80 time=12
note_off channel=0 note=43 velocity=64 time=108
note_on channel=0 note=38 velocity=80 time=12
note_off channel=0 note=38 velocity=64 time=108
note_on channel=0 note=36 velocity=80 time=12
note_off channel=0 note=36 velocity=64 time=108
note_on channel=0 note=43 velocity=80 time=12
note_off channel=0 note=43 velocity=64 time=108
note_on channel=0 note=48 velocity=80 time=12
note_off channel=0 note=48 velocity=64 time=108
note_on channel=0 note=50 velocity=80 time=12
note_off channel=0 note=50 velocity=64 time=108
note_on channel=0 note=52 velocity=80 time=12
note_off channel=0 note=52 velocity=64 time=108
note_on channel=0 note=50 velocity=80 time=12
note_off channel=0 note=50 velocity=64 time=108
note_on channel=0 note=48 velocity=80 time=12
note_off channel=0 note=48 velocity=64 time=108
note_on channel=0 note=43 velocity=80 time=12
note_off channel=0 note=43 velocity=64 time=108
note_on channel=0 note=36 velocity=80 time=12
note_off channel=0 note=36 velocity=64 time=108
note_on channel=0 note=43 velocity=80 time=12
note_off channel=0 note=43 velocity=64 time=108
note_on channel=0 note=48 velocity=80 time=12
note_off channel=0 note=48 velocity=64 time=108
note_on channel=0 note=50 velocity=80 time=12
note_off channel=0 note=50 velocity=64 time=108
note_on channel=0 note=55 velocity=80 time=12
note_off channel=0 note=55 velocity=64 time=108
note_on channel=0 note=60 velocity=80 time=12
note_off channel=0 note=60 velocity=64 time=108
note_on channel=0 note=62 velocity=80 time=12
note_off channel=0 note=62 velocity=64 time=108
note_on channel=0 note=67 velocity=80 time=12
note_off channel=0 note=67 velocity=64 time=108
note_on channel=0 note=41 velocity=80 time=12
note_off channel=0 note=41 velocity=64 time=216
note_on channel=0 note=48 velocity=80 time=24
note_off channel=0 note=48 velocity=64 time=216
note_on channel=0 note=53 velocity=80 time=24
note_off channel=0 note=53 velocity=64 time=216
note_on channel=0 note=48 velocity=80 time=24
note_off channel=0 note=48 velocity=64 time=216
note_on channel=0 note=55 velocity=80 time=24
note_on channel=0 note=45 velocity=80 time=0
note_off channel=0 note=55 velocity=64 time=432
note_off channel=0 note=45 velocity=64 time=0
note_on channel=0 note=57 velocity=80 time=48
note_on channel=0 note=49 velocity=80 time=0
note_off channel=0 note=57 velocity=64 time=432
note_off channel=0 note=49 velocity=64 time=0
note_on channel=0 note=50 velocity=80 time=48
note_off channel=0 note=50 velocity=64 time=216
note_on channel=0 note=57 velocity=80 time=24
note_off channel=0 note=57 velocity=64 time=216
note_on channel=0 note=62 velocity=80 time=24
note_off channel=0 note=62 velocity=64 time=216
note_on channel=0 note=57 velocity=80 time=24
note_off channel=0 note=57 velocity=64 time=216
note_on channel=0 note=48 velocity=80 time=24
note_off channel=0 note=48 velocity=64 time=324
note_on channel=0 note=48 velocity=80 time=36
note_off channel=0 note=48 velocity=64 time=108
note_on channel=0 note=60 velocity=80 time=12
note_off channel=0 note=60 velocity=64 time=216
note_on channel=0 note=55 velocity=80 time=24
note_off channel=0 note=55 velocity=64 time=216
note_on channel=0 note=46 velocity=80 time=24
note_off channel=0 note=46 velocity=64 time=216
note_on channel=0 note=53 velocity=80 time=24
note_off channel=0 note=53 velocity=64 time=216
note_on channel=0 note=58 velocity=80 time=24
note_off channel=0 note=58 velocity=64 time=216
note_on channel=0 note=46 velocity=80 time=24
note_off channel=0 note=46 velocity=64 time=216
note_on channel=0 note=55 velocity=80 time=24
note_on channel=0 note=45 velocity=80 time=0
note_off channel=0 note=55 velocity=64 time=432
note_off channel=0 note=45 velocity=64 time=0
note_on channel=0 note=57 velocity=80 time=48
note_on channel=0 note=49 velocity=80 time=0
note_off channel=0 note=57 velocity=64 time=432
note_off channel=0 note=49 velocity=64 time=0
note_on channel=0 note=50 velocity=80 time=48
note_off channel=0 note=50 velocity=64 time=216
note_on channel=0 note=57 velocity=80 time=24
note_off channel=0 note=57 velocity=64 time=216
note_on channel=0 note=62 velocity=80 time=24
note_off channel=0 note=62 velocity=64 time=216
note_on channel=0 note=57 velocity=80 time=24
note_off channel=0 note=57 velocity=64 time=216
note_on channel=0 note=48 velocity=80 time=24
note_off channel=0 note=48 velocity=64 time=324
note_on channel=0 note=48 velocity=80 time=36
note_off channel=0 note=48 velocity=64 time=108
note_on channel=0 note=60 velocity=80 time=12
note_off channel=0 note=60 velocity=64 time=216
note_on channel=0 note=55 velocity=80 time=24
note_off channel=0 note=55 velocity=64 time=216
note_on channel=0 note=46 velocity=80 time=24
note_off channel=0 note=46 velocity=64 time=216
note_on channel=0 note=53 velocity=80 time=24
note_off channel=0 note=53 velocity=64 time=216
note_on channel=0 note=58 velocity=80 time=24
note_off channel=0 note=58 velocity=64 time=216
note_on channel=0 note=53 velocity=80 time=24
note_off channel=0 note=53 velocity=64 time=216
note_on channel=0 note=55 velocity=80 time=24
note_on channel=0 note=45 velocity=80 time=0
note_off channel=0 note=55 velocity=64 time=324
note_off channel=0 note=45 velocity=64 time=0
note_on channel=0 note=52 velocity=80 time=36
note_off channel=0 note=52 velocity=64 time=108
note_on channel=0 note=57 velocity=80 time=12
note_on channel=0 note=49 velocity=80 time=0
note_off channel=0 note=57 velocity=64 time=432
note_off channel=0 note=49 velocity=64 time=0
note_on channel=0 note=50 velocity=80 time=48
note_off channel=0 note=50 velocity=64 time=324
note_on channel=0 note=57 velocity=80 time=36
note_off channel=0 note=57 velocity=64 time=108
note_on channel=0 note=62 velocity=80 time=12
note_off channel=0 note=62 velocity=64 time=216
note_on channel=0 note=57 velocity=80 time=24
note_off channel=0 note=57 velocity=64 time=216
note_on channel=0 note=47 velocity=80 time=24
note_off channel=0 note=47 velocity=64 time=216
note_on channel=0 note=53 velocity=80 time=24
note_off channel=0 note=53 velocity=64 time=216
note_on channel=0 note=57 velocity=80 time=24
note_off channel=0 note=57 velocity=64 time=216
note_on channel=0 note=53 velocity=80 time=24
note_off channel=0 note=53 velocity=64 time=216
note_on channel=0 note=43 velocity=80 time=24
note_off channel=0 note=43 velocity=64 time=216
note_on channel=0 note=50 velocity=80 time=24
note_off channel=0 note=50 velocity=64 time=216
note_on channel=0 note=55 velocity=80 time=24
note_off channel=0 note=55 velocity=64 time=216
note_on channel=0 note=50 velocity=80 time=24
note_off channel=0 note=50 velocity=64 time=216
note_on channel=0 note=40 velocity=80 time=24
note_off channel=0 note=40 velocity=64 time=324
note_on channel=0 note=40 velocity=80 time=36
note_off channel=0 note=40 velocity=64 time=336
note_on channel=0 note=40 velocity=80 time=24
note_off channel=0 note=40 velocity=64 time=216
control_change channel=0 control=7 value=56 time=15
note_on channel=0 note=45 velocity=80 time=9
control_change channel=0 control=7 value=58 time=90
control_change channel=0 control=7 value=60 time=100
note_off channel=0 note=45 velocity=64 time=26
note_on channel=0 note=52 velocity=80 time=24
control_change channel=0 control=7 value=65 time=150
note_off channel=0 note=52 velocity=64 time=66
note_on channel=0 note=57 velocity=80 time=24
control_change channel=0 control=7 value=70 time=10
control_change channel=0 control=7 value=75 time=200
note_off channel=0 note=57 velocity=64 time=6
note_on channel=0 note=52 velocity=80 time=24
control_change channel=0 control=7 value=80 time=70
note_off channel=0 note=52 velocity=64 time=146
note_on channel=0 note=36 velocity=80 time=24
note_on channel=0 note=48 velocity=80 time=0
control_change channel=0 control=7 value=85 time=30
control_change channel=0 control=7 value=90 time=100
note_off channel=0 note=36 velocity=64 time=194
note_off channel=0 note=48 velocity=64 time=0
control_change channel=0 control=7 value=92 time=6
note_on channel=0 note=48 velocity=80 time=30
control_change channel=0 control=7 value=95 time=70
note_off channel=0 note=48 velocity=64 time=38
note_on channel=0 note=58 velocity=80 time=12
note_off channel=0 note=58 velocity=64 time=324
note_on channel=0 note=55 velocity=80 time=36
note_off channel=0 note=55 velocity=64 time=108
note_on channel=0 note=41 velocity=80 time=12
note_off channel=0 note=41 velocity=64 time=216
note_on channel=0 note=48 velocity=80 time=24
note_off channel=0 note=48 velocity=64 time=216
note_on channel=0 note=53 velocity=80 time=24
note_off channel=0 note=53 velocity=64 time=216
note_on channel=0 note=48 velocity=80 time=24
note_off channel=0 note=48 velocity=64 time=216
note_on channel=0 note=55 velocity=80 time=24
note_on channel=0 note=45 velocity=80 time=0
note_off channel=0 note=55 velocity=64 time=432
note_off channel=0 note=45 velocity=64 time=0
note_on channel=0 note=57 velocity=80 time=48
note_on channel=0 note=49 velocity=80 time=0
note_off channel=0 note=57 velocity=64 time=432
note_off channel=0 note=49 velocity=64 time=0
note_on channel=0 note=50 velocity=80 time=48
note_off channel=0 note=50 velocity=64 time=216
note_on channel=0 note=57 velocity=80 time=24
note_off channel=0 note=57 velocity=64 time=216
note_on channel=0 note=62 velocity=80 time=24
note_off channel=0 note=62 velocity=64 time=216
note_on channel=0 note=57 velocity=80 time=24
note_off channel=0 note=57 velocity=64 time=216
note_on channel=0 note=48 velocity=80 time=24
note_off channel=0 note=48 velocity=64 time=324
note_on channel=0 note=48 velocity=80 time=36
note_off channel=0 note=48 velocity=64 time=108
note_on channel=0 note=60 velocity=80 time=12
note_off channel=0 note=60 velocity=64 time=216
note_on channel=0 note=55 velocity=80 time=24
note_off channel=0 note=55 velocity=64 time=216
note_on channel=0 note=46 velocity=80 time=24
note_off channel=0 note=46 velocity=64 time=216
note_on channel=0 note=53 velocity=80 time=24
note_off channel=0 note=53 velocity=64 time=216
note_on channel=0 note=58 velocity=80 time=24
note_off channel=0 note=58 velocity=64 time=216
note_on channel=0 note=46 velocity=80 time=24
note_off channel=0 note=46 velocity=64 time=216
note_on channel=0 note=55 velocity=80 time=24
note_on channel=0 note=45 velocity=80 time=0
note_off channel=0 note=55 velocity=64 time=432
note_off channel=0 note=45 velocity=64 time=0
note_on channel=0 note=57 velocity=80 time=48
note_on channel=0 note=49 velocity=80 time=0
note_off channel=0 note=57 velocity=64 time=432
note_off channel=0 note=49 velocity=64 time=0
note_on channel=0 note=50 velocity=80 time=48
note_off channel=0 note=50 velocity=64 time=216
note_on channel=0 note=57 velocity=80 time=24
note_off channel=0 note=57 velocity=64 time=216
note_on channel=0 note=62 velocity=80 time=24
note_off channel=0 note=62 velocity=64 time=216
note_on channel=0 note=57 velocity=80 time=24
note_off channel=0 note=57 velocity=64 time=216
note_on channel=0 note=48 velocity=80 time=24
note_off channel=0 note=48 velocity=64 time=324
note_on channel=0 note=48 velocity=80 time=36
note_off channel=0 note=48 velocity=64 time=108
note_on channel=0 note=60 velocity=80 time=12
note_off channel=0 note=60 velocity=64 time=216
note_on channel=0 note=55 velocity=80 time=24
note_off channel=0 note=55 velocity=64 time=216
note_on channel=0 note=46 velocity=80 time=24
note_off channel=0 note=46 velocity=64 time=216
note_on channel=0 note=53 velocity=80 time=24
note_off channel=0 note=53 velocity=64 time=216
note_on channel=0 note=58 velocity=80 time=24
note_off channel=0 note=58 velocity=64 time=216
note_on channel=0 note=46 velocity=80 time=24
note_off channel=0 note=46 velocity=64 time=216
note_on channel=0 note=46 velocity=80 time=24
note_off channel=0 note=46 velocity=64 time=324
note_on channel=0 note=46 velocity=80 time=36
note_off channel=0 note=46 velocity=64 time=108
note_on channel=0 note=58 velocity=80 time=12
note_off channel=0 note=58 velocity=64 time=216
note_on channel=0 note=46 velocity=80 time=24
note_off channel=0 note=46 velocity=64 time=216
note_on channel=0 note=55 velocity=80 time=24
note_on channel=0 note=45 velocity=80 time=0
note_off channel=0 note=55 velocity=64 time=324
note_off channel=0 note=45 velocity=64 time=0
note_on channel=0 note=52 velocity=80 time=36
note_off channel=0 note=52 velocity=64 time=108
note_on channel=0 note=55 velocity=80 time=12
note_off channel=0 note=55 velocity=64 time=216
note_on channel=0 note=52 velocity=80 time=24
note_off channel=0 note=52 velocity=64 time=216
note_on channel=0 note=60 velocity=80 time=24
note_on channel=0 note=57 velocity=80 time=0
note_on channel=0 note=50 velocity=80 time=0
note_off channel=0 note=60 velocity=64 time=864
note_off channel=0 note=57 velocity=64 time=0
note_off channel=0 note=50 velocity=64 time=0
note_on channel=0 note=43 velocity=80 time=96
note_off channel=0 note=43 velocity=64 time=324
note_on channel=0 note=50 velocity=80 time=36
note_off channel=0 note=50 velocity=64 time=108
note_on channel=0 note=55 velocity=80 time=12
note_off channel=0 note=55 velocity=64 time=432
note_on channel=0 note=58 velocity=80 time=48
note_on channel=0 note=48 velocity=80 time=0
note_off channel=0 note=58 velocity=64 time=216
note_off channel=0 note=48 velocity=64 time=0
note_on channel=0 note=55 velocity=80 time=24
note_off channel=0 note=55 velocity=64 time=216
note_on channel=0 note=55 velocity=80 time=24
note_off channel=0 note=55 velocity=64 time=432
note_on channel=0 note=41 velocity=80 time=48
note_off channel=0 note=41 velocity=64 time=216
note_on channel=0 note=48 velocity=80 time=24
note_off channel=0 note=48 velocity=64 time=108
note_on channel=0 note=53 velocity=80 time=12
note_off channel=0 note=53 velocity=64 time=108
note_on channel=0 note=53 velocity=80 time=12
note_off channel=0 note=53 velocity=64 time=216
note_on channel=0 note=48 velocity=80 time=24
note_off channel=0 note=48 velocity=64 time=108
note_on channel=0 note=53 velocity=80 time=12
note_off channel=0 note=53 velocity=64 time=108
control_change channel=0 control=7 value=95 time=2
note_on channel=0 note=41 velocity=80 time=10
note_off channel=0 note=41 velocity=64 time=216
note_on channel=0 note=48 velocity=80 time=24
note_off channel=0 note=48 velocity=64 time=108
note_on channel=0 note=43 velocity=80 time=12
note_on channel=0 note=53 velocity=80 time=0
note_off channel=0 note=43 velocity=64 time=108
note_off channel=0 note=53 velocity=64 time=0
note_on channel=0 note=53 velocity=80 time=132
note_on channel=0 note=45 velocity=80 time=0
note_off channel=0 note=53 velocity=64 time=324
note_off channel=0 note=45 velocity=64 time=0
note_on channel=0 note=46 velocity=80 time=36
note_off channel=0 note=46 velocity=64 time=324
note_on channel=0 note=53 velocity=80 time=36
note_off channel=0 note=53 velocity=64 time=108
note_on channel=0 note=60 velocity=80 time=12
note_off channel=0 note=60 velocity=64 time=432
note_on channel=0 note=41 velocity=80 time=48
note_off channel=0 note=41 velocity=64 time=216
note_on channel=0 note=48 velocity=80 time=24
note_off channel=0 note=48 velocity=64 time=216
note_on channel=0 note=53 velocity=80 time=24
note_off channel=0 note=53 velocity=64 time=216
note_on channel=0 note=48 velocity=80 time=24
note_off channel=0 note=48 velocity=64 time=216
note_on channel=0 note=43 velocity=80 time=24
note_off channel=0 note=43 velocity=64 time=324
note_on channel=0 note=50 velocity=80 time=36
note_off channel=0 note=50 velocity=64 time=108
note_on channel=0 note=48 velocity=80 time=12
note_off channel=0 note=48 velocity=64 time=324
note_on channel=0 note=55 velocity=80 time=36
note_off channel=0 note=55 velocity=64 time=108
note_on channel=0 note=41 velocity=80 time=12
note_off channel=0 note=41 velocity=64 time=216
note_on channel=0 note=48 velocity=80 time=24
note_off channel=0 note=48 velocity=64 time=216
note_on channel=0 note=53 velocity=80 time=24
note_off channel=0 note=53 velocity=64 time=216
note_on channel=0 note=48 velocity=80 time=24
note_off channel=0 note=48 velocity=64 time=216
note_on channel=0 note=45 velocity=80 time=24
note_off channel=0 note=45 velocity=64 time=108
note_on channel=0 note=52 velocity=80 time=12
note_off channel=0 note=52 velocity=64 time=216
note_on channel=0 note=57 velocity=80 time=24
note_off channel=0 note=57 velocity=64 time=228
note_on channel=0 note=49 velocity=80 time=12
note_off channel=0 note=49 velocity=64 time=324
note_on channel=0 note=38 velocity=80 time=36
note_off channel=0 note=38 velocity=64 time=216
note_on channel=0 note=45 velocity=80 time=24
note_off channel=0 note=45 velocity=64 time=108
note_on channel=0 note=50 velocity=80 time=12
note_off channel=0 note=50 velocity=64 time=108
note_on channel=0 note=53 velocity=80 time=12
note_off channel=0 note=53 velocity=64 time=432
control_change channel=0 control=7 value=60 time=38
note_on channel=0 note=47 velocity=80 time=10
note_off channel=0 note=47 velocity=64 time=108
note_on channel=0 note=55 velocity=80 time=12
note_off channel=0 note=55 velocity=64 time=108
note_on channel=0 note=59 velocity=80 time=12
note_off channel=0 note=59 velocity=64 time=216
note_on channel=0 note=62 velocity=80 time=24
note_off channel=0 note=62 velocity=64 time=432
note_on channel=0 note=48 velocity=80 time=48
note_off channel=0 note=48 velocity=64 time=108
note_on channel=0 note=55 velocity=80 time=12
note_off channel=0 note=55 velocity=64 time=216
note_on channel=0 note=60 velocity=80 time=24
note_off channel=0 note=60 velocity=64 time=108
note_on channel=0 note=49 velocity=80 time=12
note_off channel=0 note=49 velocity=64 time=108
note_on channel=0 note=57 velocity=80 time=12
note_off channel=0 note=57 velocity=64 time=216
note_on channel=0 note=61 velocity=80 time=24
note_off channel=0 note=61 velocity=64 time=108
control_change channel=0 control=7 value=95 time=2
note_on channel=0 note=50 velocity=80 time=10
note_off channel=0 note=50 velocity=64 time=108
note_on channel=0 note=57 velocity=80 time=12
note_off channel=0 note=57 velocity=64 time=216
note_on channel=0 note=62 velocity=80 time=24
note_off channel=0 note=62 velocity=64 time=552
note_on channel=0 note=48 velocity=80 time=48
note_off channel=0 note=48 velocity=64 time=108
note_on channel=0 note=57 velocity=80 time=12
note_off channel=0 note=57 velocity=64 time=108
note_on channel=0 note=60 velocity=80 time=12
note_off channel=0 note=60 velocity=64 time=108
note_on channel=0 note=64 velocity=80 time=12
note_off channel=0 note=64 velocity=64 time=552
note_on channel=0 note=46 velocity=80 time=48
note_off channel=0 note=46 velocity=64 time=108
note_on channel=0 note=53 velocity=80 time=12
note_off channel=0 note=53 velocity=64 time=216
note_on channel=0 note=58 velocity=80 time=24
note_off channel=0 note=58 velocity=64 time=552
note_on channel=0 note=45 velocity=80 time=48
note_off channel=0 note=45 velocity=64 time=108
note_on channel=0 note=53 velocity=80 time=12
note_off channel=0 note=53 velocity=64 time=108
note_on channel=0 note=57 velocity=80 time=12
note_off channel=0 note=57 velocity=64 time=108
note_on channel=0 note=60 velocity=80 time=12
note_off channel=0 note=60 velocity=64 time=336
note_on channel=0 note=53 velocity=80 time=24
note_off channel=0 note=53 velocity=64 time=216
note_on channel=0 note=45 velocity=80 time=24
note_off channel=0 note=45 velocity=64 time=108
note_on channel=0 note=52 velocity=80 time=12
note_off channel=0 note=52 velocity=64 time=216
note_on channel=0 note=57 velocity=80 time=24
note_off channel=0 note=57 velocity=64 time=108
note_on channel=0 note=59 velocity=80 time=12
note_off channel=0 note=59 velocity=64 time=108
note_on channel=0 note=61 velocity=80 time=12
note_off channel=0 note=61 velocity=64 time=324
note_on channel=0 note=50 velocity=80 time=36
note_off channel=0 note=50 velocity=64 time=108
note_on channel=0 note=57 velocity=80 time=12
note_off channel=0 note=57 velocity=64 time=108
note_on channel=0 note=62 velocity=80 time=12
note_off channel=0 note=62 velocity=64 time=108
note_on channel=0 note=65 velocity=80 time=12
note_off channel=0 note=65 velocity=64 time=108
note_on channel=0 note=69 velocity=80 time=12
note_off channel=0 note=69 velocity=64 time=216
note_on channel=0 note=48 velocity=80 time=24
note_on channel=0 note=36 velocity=80 time=0
note_off channel=0 note=48 velocity=64 time=216
note_off channel=0 note=36 velocity=64 time=0
note_on channel=0 note=47 velocity=80 time=24
note_on channel=0 note=35 velocity=80 time=0
note_on channel=0 note=47 velocity=80 time=375
note_off channel=0 note=47 velocity=64 time=24
note_on channel=0 note=50 velocity=80 time=4
note_off channel=0 note=50 velocity=64 time=24
note_on channel=0 note=53 velocity=80 time=4
note_off channel=0 note=53 velocity=64 time=24
note_on channel=0 note=57 velocity=80 time=4
note_off channel=0 note=57 velocity=64 time=24
note_on channel=0 note=59 velocity=80 time=4
note_off channel=0 note=59 velocity=64 time=24
note_on channel=0 note=62 velocity=80 time=4
note_off channel=0 note=62 velocity=64 time=24
note_on channel=0 note=65 velocity=80 time=4
note_off channel=0 note=65 velocity=64 time=24
note_on channel=0 note=69 velocity=80 time=4
note_off channel=0 note=69 velocity=64 time=24
note_on channel=0 note=59 velocity=80 time=5
note_off channel=0 note=59 velocity=64 time=24
note_on channel=0 note=62 velocity=80 time=4
note_off channel=0 note=62 velocity=64 time=24
note_on channel=0 note=65 velocity=80 time=4
note_off channel=0 note=65 velocity=64 time=24
note_on channel=0 note=69 velocity=80 time=4
note_off channel=0 note=69 velocity=64 time=24
note_on channel=0 note=71 velocity=80 time=4
note_off channel=0 note=71 velocity=64 time=24
note_on channel=0 note=74 velocity=80 time=4
note_off channel=0 note=74 velocity=64 time=24
note_on channel=0 note=77 velocity=80 time=4
note_off channel=0 note=77 velocity=64 time=24
note_on channel=0 note=81 velocity=80 time=4
note_off channel=0 note=81 velocity=64 time=24
note_on channel=0 note=71 velocity=80 time=5
note_off channel=0 note=71 velocity=64 time=24
note_on channel=0 note=74 velocity=80 time=4
note_off channel=0 note=74 velocity=64 time=24
note_on channel=0 note=77 velocity=80 time=4
note_off channel=0 note=77 velocity=64 time=24
note_on channel=0 note=81 velocity=80 time=4
note_off channel=0 note=81 velocity=64 time=24
note_on channel=0 note=83 velocity=80 time=4
note_off channel=0 note=83 velocity=64 time=24
note_on channel=0 note=86 velocity=80 time=4
note_off channel=0 note=86 velocity=64 time=24
note_on channel=0 note=89 velocity=80 time=4
note_off channel=0 note=89 velocity=64 time=24
note_on channel=0 note=93 velocity=80 time=4
note_off channel=0 note=93 velocity=64 time=24
note_on channel=0 note=83 velocity=80 time=5
note_off channel=0 note=83 velocity=64 time=24
note_on channel=0 note=86 velocity=80 time=4
note_off channel=0 note=86 velocity=64 time=24
note_on channel=0 note=89 velocity=80 time=4
note_off channel=0 note=89 velocity=64 time=24
note_on channel=0 note=93 velocity=80 time=4
note_off channel=0 note=93 velocity=64 time=24
note_on channel=0 note=95 velocity=80 time=4
note_off channel=0 note=95 velocity=64 time=24
note_on channel=0 note=98 velocity=80 time=4
note_off channel=0 note=98 velocity=64 time=24
note_on channel=0 note=101 velocity=80 time=4
note_off channel=0 note=101 velocity=64 time=24
note_on channel=0 note=105 velocity=80 time=4
note_off channel=0 note=105 velocity=64 time=461
note_off channel=0 note=47 velocity=64 time=885
note_off channel=0 note=35 velocity=64 time=0
note_on channel=0 note=70 velocity=80 time=288
note_off channel=0 note=70 velocity=64 time=864
note_on channel=0 note=69 velocity=80 time=96
note_off channel=0 note=69 velocity=64 time=864
note_on channel=0 note=55 velocity=80 time=96
note_on channel=0 note=65 velocity=80 time=0
note_off channel=0 note=55 velocity=64 time=588
note_off channel=0 note=65 velocity=64 time=0
note_on channel=0 note=65 velocity=80 time=12
note_off channel=0 note=65 velocity=64 time=108
note_on channel=0 note=64 velocity=80 time=12
note_off channel=0 note=64 velocity=64 time=108
note_on channel=0 note=62 velocity=80 time=12
note_off channel=0 note=62 velocity=64 time=108
note_on channel=0 note=57 velocity=80 time=12
note_on channel=0 note=60 velocity=80 time=0
note_on channel=0 note=65 velocity=80 time=0
note_off channel=0 note=57 velocity=64 time=432
note_off channel=0 note=60 velocity=64 time=0
note_off channel=0 note=65 velocity=64 time=0
note_on channel=0 note=62 velocity=80 time=48
note_off channel=0 note=62 velocity=64 time=216
note_on channel=0 note=64 velocity=80 time=24
note_off channel=0 note=64 velocity=64 time=216
note_on channel=0 note=46 velocity=80 time=24
note_off channel=0 note=46 velocity=64 time=864
note_on channel=0 note=55 velocity=80 time=96
note_on channel=0 note=45 velocity=80 time=0
note_off channel=0 note=55 velocity=64 time=864
note_off channel=0 note=45 velocity=64 time=0
note_on channel=0 note=43 velocity=80 time=96
note_off channel=0 note=43 velocity=64 time=108
note_on channel=0 note=50 velocity=80 time=12
note_off channel=0 note=50 velocity=64 time=216
note_on channel=0 note=55 velocity=80 time=24
note_off channel=0 note=55 velocity=64 time=108
note_on channel=0 note=45 velocity=80 time=12
note_off channel=0 note=45 velocity=64 time=108
note_on channel=0 note=53 velocity=80 time=12
note_off channel=0 note=53 velocity=64 time=216
note_on channel=0 note=55 velocity=80 time=24
note_off channel=0 note=55 velocity=64 time=108
note_on channel=0 note=46 velocity=80 time=12
note_off channel=0 note=46 velocity=64 time=108
note_on channel=0 note=53 velocity=80 time=12
note_off channel=0 note=53 velocity=64 time=216
note_on channel=0 note=58 velocity=80 time=24
note_off channel=0 note=58 velocity=64 time=108
note_on channel=0 note=58 velocity=80 time=12
note_on channel=0 note=48 velocity=80 time=0
note_off channel=0 note=58 velocity=64 time=432
note_off channel=0 note=48 velocity=64 time=0
note_on channel=0 note=38 velocity=80 time=48
note_on channel=0 note=50 velocity=80 time=0
note_off channel=0 note=38 velocity=64 time=3648
note_off channel=0 note=50 velocity=64 time=0
<meta message end_of_track time=192>
